<?xml version="1.0" encoding="utf-8"?>
<!-- Generator: Adobe Illustrator 19.0.0, SVG Export Plug-In . SVG Version: 6.00 Build 0)  -->
<svg version="1.1" id="Layer_1" xmlns="http://www.w3.org/2000/svg" xmlns:xlink="http://www.w3.org/1999/xlink" x="0px" y="0px"
	 viewBox="-279 -5 90 110" style="enable-background:new -279 -5 90 110;" xml:space="preserve">
<style type="text/css">
	.st0{fill:#EC0800;}
	.st1{fill:#FFFFFF;}
</style>
<g>
	<path d="M-259.3,101.9l-1.7-3.1h-1.2v3.1h-1.4V94h2.7c0.4,0,0.8,0,1.1,0.1s0.7,0.2,0.9,0.4c0.3,0.2,0.5,0.4,0.6,0.7
		c0.1,0.3,0.2,0.7,0.2,1.1c0,0.6-0.1,1.1-0.4,1.5c-0.3,0.4-0.7,0.6-1.1,0.8l1.9,3.3H-259.3z M-262.2,97.7h1.1c0.5,0,0.9-0.1,1.2-0.3
		s0.4-0.6,0.4-1c0-0.5-0.1-0.8-0.4-0.9s-0.7-0.3-1.2-0.3h-1.1V97.7z"/>
	<path d="M-252.9,99.7h-2.6l-0.6,2.1h-1.4l2.6-7.8h1.6l2.6,7.8h-1.5L-252.9,99.7z M-253.2,98.6l-0.3-1c-0.1-0.4-0.3-0.8-0.4-1.3
		c-0.1-0.4-0.2-0.9-0.3-1.3h0c-0.1,0.4-0.2,0.9-0.3,1.3c-0.1,0.4-0.2,0.9-0.4,1.3l-0.3,1H-253.2z"/>
	<path d="M-249.9,94h2.1c1.2,0,2.1,0.3,2.8,1c0.7,0.6,1,1.6,1,2.9c0,0.6-0.1,1.2-0.3,1.7c-0.2,0.5-0.4,0.9-0.7,1.2
		c-0.3,0.3-0.7,0.6-1.2,0.8s-1,0.3-1.6,0.3h-2.2V94z M-247.9,100.7c0.8,0,1.4-0.2,1.8-0.7c0.4-0.5,0.6-1.2,0.6-2.1
		c0-1-0.2-1.7-0.6-2.1c-0.4-0.4-1-0.7-1.8-0.7h-0.6v5.6H-247.9z"/>
	<path d="M-242.4,94h1.4v7.8h-1.4V94z"/>
	<path d="M-235.3,99.7h-2.6l-0.6,2.1h-1.4l2.6-7.8h1.6l2.6,7.8h-1.5L-235.3,99.7z M-235.6,98.6l-0.3-1c-0.1-0.4-0.3-0.8-0.4-1.3
		c-0.1-0.4-0.2-0.9-0.3-1.3h0c-0.1,0.4-0.2,0.9-0.3,1.3c-0.1,0.4-0.2,0.9-0.4,1.3l-0.3,1H-235.6z"/>
	<path d="M-231.2,95.2h-2.3V94h5.9v1.2h-2.3v6.7h-1.4V95.2z"/>
	<path d="M-226.2,94h1.4v7.8h-1.4V94z"/>
	<path d="M-219.8,102c-0.5,0-1-0.1-1.4-0.3c-0.4-0.2-0.8-0.5-1.1-0.8c-0.3-0.4-0.5-0.8-0.7-1.3s-0.3-1.1-0.3-1.7
		c0-0.6,0.1-1.2,0.3-1.7c0.2-0.5,0.4-0.9,0.7-1.3s0.7-0.6,1.1-0.8c0.4-0.2,0.9-0.3,1.4-0.3c0.5,0,1,0.1,1.4,0.3
		c0.4,0.2,0.8,0.4,1.1,0.8s0.5,0.8,0.7,1.3c0.2,0.5,0.3,1.1,0.3,1.7c0,0.6-0.1,1.2-0.3,1.7c-0.2,0.5-0.4,0.9-0.7,1.3
		c-0.3,0.4-0.7,0.6-1.1,0.8C-218.8,101.9-219.3,102-219.8,102z M-219.8,100.8c0.3,0,0.6-0.1,0.8-0.2s0.5-0.3,0.6-0.6
		c0.2-0.3,0.3-0.6,0.4-0.9c0.1-0.4,0.1-0.8,0.1-1.2c0-0.9-0.2-1.6-0.5-2.1c-0.4-0.5-0.9-0.8-1.5-0.8s-1.1,0.2-1.5,0.8
		c-0.4,0.5-0.5,1.2-0.5,2.1c0,0.4,0,0.8,0.1,1.2c0.1,0.4,0.2,0.7,0.4,0.9s0.4,0.4,0.6,0.6C-220.4,100.7-220.1,100.8-219.8,100.8z"/>
	<path d="M-214.7,94h1.4l2.4,4.4l0.8,1.7h0c0-0.4-0.1-0.8-0.1-1.3c0-0.5-0.1-0.9-0.1-1.4V94h1.3v7.8h-1.4l-2.4-4.4l-0.8-1.7h0
		c0,0.4,0.1,0.9,0.1,1.3c0,0.5,0.1,0.9,0.1,1.3v3.4h-1.3V94z"/>
</g>
<rect x="-264.8" y="11" transform="matrix(0.7071 -0.7071 0.7071 0.7071 -98.0102 -153.4835)" class="st0" width="61.1" height="61.1"/>
<path class="st1" d="M-226.7,42.8h16.2l0-1c0-8.5-4.5-16.4-11.8-20.7l-0.9-0.5l-8.2,14.3c-0.9-0.4-1.9-0.6-3-0.6
	c-1,0-1.9,0.2-2.8,0.5l-8.2-14.3l-0.9,0.5c-7.3,4.2-12,12.1-12.1,20.6l0,1h16.3c0.2,2.1,1.2,4,2.8,5.3l-8.1,14l0.9,0.5
	c3.7,2.2,7.9,3.2,12.1,3.2c4.1,0,8.1-1,11.8-3.1l0.9-0.5l-8.1-14C-228,46.8-226.9,45-226.7,42.8z M-229.6,35.9l7.2-12.5
	c5.9,3.9,9.6,10.4,9.9,17.5h-14.3c0,0,0-0.1,0-0.1c0-0.2-0.1-0.3-0.1-0.5c0-0.1,0-0.2-0.1-0.3c0-0.1-0.1-0.3-0.1-0.4
	c0-0.1-0.1-0.3-0.1-0.4c0-0.1-0.1-0.2-0.1-0.3c-0.1-0.2-0.1-0.3-0.2-0.4c0-0.1-0.1-0.1-0.1-0.2c-0.1-0.2-0.2-0.3-0.3-0.5
	c0,0-0.1-0.1-0.1-0.1c-0.1-0.2-0.2-0.3-0.3-0.4c0-0.1-0.1-0.1-0.1-0.2c-0.1-0.1-0.2-0.2-0.3-0.4c-0.1-0.1-0.1-0.1-0.2-0.2
	c-0.1-0.1-0.2-0.2-0.3-0.3C-229.3,36.1-229.4,36.1-229.6,35.9C-229.5,36-229.6,35.9-229.6,35.9z M-246,23.3l7.2,12.5
	c-0.1,0.1-0.1,0.1-0.2,0.2c-0.1,0.1-0.2,0.1-0.2,0.2c-0.1,0.1-0.2,0.2-0.3,0.2c-0.1,0.1-0.2,0.2-0.3,0.3c-0.1,0.1-0.1,0.1-0.2,0.2
	c-0.1,0.1-0.2,0.3-0.3,0.4c0,0,0,0.1-0.1,0.1c-0.7,0.9-1.2,2.1-1.4,3.3h-14.3C-255.7,33.6-251.9,27.1-246,23.3z M-239.9,42l0-0.3
	c0.1-1.5,0.7-2.8,1.7-3.8c0,0,0.1-0.1,0.1-0.1c0.1-0.1,0.2-0.2,0.4-0.3c0.1,0,0.1-0.1,0.2-0.1c0.1-0.1,0.3-0.2,0.4-0.3
	c0.8-0.5,1.8-0.8,2.8-0.8c1,0,1.9,0.2,2.7,0.7l0.1,0.1c0,0,0,0,0.1,0c0.2,0.1,0.4,0.2,0.6,0.4c0,0,0,0,0.1,0.1
	c0.4,0.3,0.7,0.6,0.9,0.9c0,0.1,0.1,0.1,0.1,0.2c0.1,0.1,0.2,0.2,0.2,0.3c0,0.1,0.1,0.1,0.1,0.2c0.1,0.2,0.2,0.3,0.3,0.5
	c0,0,0,0,0,0.1c0.1,0.2,0.2,0.4,0.2,0.6c0,0,0,0.1,0,0.1c0.1,0.2,0.1,0.4,0.1,0.6c0,0,0,0.1,0,0.1c0,0.2,0.1,0.5,0.1,0.7l0,0.2
	c0,2.1-1.2,3.9-2.9,4.9c-1.8,1-4,1-5.7-0.1c-0.1,0-0.1-0.1-0.2-0.1l0,0C-238.9,45.6-239.9,43.9-239.9,42z M-231.4,49.1l7.1,12.2
	c-6.3,3.2-13.8,3.1-20.1-0.1l7-12.2c0,0,0,0,0,0c0.9,0.4,2,0.7,3.1,0.7C-233.2,49.6-232.3,49.4-231.4,49.1L-231.4,49.1z"/>
</svg>
