<?xml version="1.0" encoding="utf-8"?>
<!-- Generator: Adobe Illustrator 19.0.0, SVG Export Plug-In . SVG Version: 6.00 Build 0)  -->
<svg version="1.1" id="Layer_1" xmlns="http://www.w3.org/2000/svg" xmlns:xlink="http://www.w3.org/1999/xlink" x="0px" y="0px"
	 viewBox="-39 36 70 80" style="enable-background:new -39 36 70 80;" xml:space="preserve">
<style type="text/css">
	.st0{fill:#FFFFFF;}
</style>
<g>
	<path class="st0" d="M-13.4,76.8h0.6c0.6,0,1.1-0.1,1.4-0.4c0.3-0.3,0.5-0.6,0.5-1c0-0.5-0.1-0.8-0.4-1c-0.3-0.2-0.6-0.3-1.2-0.3
		h-0.9V76.8z M-9,75.3c0,1-0.3,1.8-0.9,2.3c-0.6,0.5-1.5,0.8-2.7,0.8h-0.8v3.3h-2v-9.2h3c1.1,0,2,0.2,2.6,0.7
		C-9.3,73.6-9,74.4-9,75.3"/>
	<path class="st0" d="M-1.5,77c0-2-0.9-3-2.6-3h-1v5.9h0.8C-2.3,80-1.5,79.1-1.5,77 M0.6,77c0,1.5-0.4,2.7-1.3,3.5
		c-0.9,0.8-2.1,1.2-3.8,1.2H-7v-9.2h2.9c1.5,0,2.7,0.4,3.5,1.2C0.2,74.4,0.6,75.5,0.6,77"/>
</g>
<polygon class="st0" points="4.7,81.6 2.8,81.6 2.8,72.4 8.1,72.4 8.1,74 4.7,74 4.7,76.4 7.8,76.4 7.8,78 4.7,78 "/>
<g>
	<path class="st0" d="M11.2,98.4H5.7c-0.8,0-1.5-0.7-1.5-1.5s0.7-1.5,1.5-1.5h5.5c0.2,0,0.5,0,0.5-0.5v-27c0-2.3-1.7-4-1.7-4.1
		l-6.8-6.8c-1.6-1.6-4-1.7-4.1-1.7h-17c-1.4,0-1.5,1-1.5,1.5v37c0,1.4,1,1.5,1.5,1.5h4c0.8,0,1.5,0.7,1.5,1.5s-0.7,1.5-1.5,1.5h-4
		c-1.8,0-4.5-1.2-4.5-4.5v-37c0-1.8,1.2-4.5,4.5-4.5h17c0.1,0,3.7,0,6.2,2.6l6.8,6.8c0.1,0.1,2.6,2.6,2.6,6.2v27
		C14.7,96.3,13.8,98.4,11.2,98.4z"/>
	<path class="st0" d="M13.2,66.4h-8c-3.3,0-4.5-2.7-4.5-4.5v-7h3v7c0,0.7,0.3,1.5,1.5,1.5h8V66.4z"/>
	<path class="st0" d="M-4.3,100.9C-4.3,100.9-4.3,100.9-4.3,100.9C-4.3,100.9-4.3,100.9-4.3,100.9c-0.2,0-0.4,0-0.6-0.1
		c-0.2-0.1-0.3-0.2-0.5-0.3c0,0,0,0,0,0c0,0,0,0,0,0l-6-6c-0.6-0.6-0.6-1.5,0-2.1s1.5-0.6,2.1,0l3.4,3.4v-8.9c0-0.8,0.7-1.5,1.5-1.5
		s1.5,0.7,1.5,1.5v8.9l3.4-3.4c0.6-0.6,1.5-0.6,2.1,0s0.6,1.5,0,2.1l-6,6c0,0,0,0,0,0c0,0,0,0,0,0c-0.1,0.1-0.3,0.2-0.5,0.3
		C-3.9,100.9-4.1,100.9-4.3,100.9C-4.3,100.9-4.3,100.9-4.3,100.9C-4.3,100.9-4.3,100.9-4.3,100.9z"/>
</g>
</svg>
