<?xml version="1.0" encoding="utf-8"?>
<!-- Generator: Adobe Illustrator 19.0.0, SVG Export Plug-In . SVG Version: 6.00 Build 0)  -->
<!DOCTYPE svg PUBLIC "-//W3C//DTD SVG 1.1//EN" "http://www.w3.org/Graphics/SVG/1.1/DTD/svg11.dtd">
<svg version="1.1" id="Layer_1" xmlns="http://www.w3.org/2000/svg" xmlns:xlink="http://www.w3.org/1999/xlink" x="0px" y="0px"
	 viewBox="0 0 21 21" style="enable-background:new 0 0 21 21;" xml:space="preserve">
<style type="text/css">
	.st0{fill:#FFFFFF;}
</style>
<g id="XMLID_5_">
	<path id="XMLID_8_" class="st0" d="M3,21c-0.8,0-1.5-0.3-2.1-0.9c-1.2-1.2-1.2-3.1,0-4.2l15-15c1.2-1.2,3.1-1.2,4.2,0
		c1.2,1.2,1.2,3.1,0,4.2l-15,15C4.5,20.7,3.8,21,3,21z"/>
</g>
<g id="XMLID_4_">
	<path id="XMLID_7_" class="st0" d="M18,21c-0.8,0-1.5-0.3-2.1-0.9l-15-15c-1.2-1.2-1.2-3.1,0-4.2C2-0.3,4-0.3,5.1,0.9l15,15
		c1.2,1.2,1.2,3.1,0,4.2C19.5,20.7,18.8,21,18,21z"/>
</g>
</svg>
