<?xml version="1.0" encoding="utf-8"?>
<!-- Generator: Adobe Illustrator 19.0.0, SVG Export Plug-In . SVG Version: 6.00 Build 0)  -->
<!DOCTYPE svg PUBLIC "-//W3C//DTD SVG 1.1//EN" "http://www.w3.org/Graphics/SVG/1.1/DTD/svg11.dtd">
<svg version="1.1" id="Layer_1" xmlns="http://www.w3.org/2000/svg" xmlns:xlink="http://www.w3.org/1999/xlink" x="0px" y="0px"
	 viewBox="-447 249 64 64" style="enable-background:new -447 249 64 64;" xml:space="preserve">
<style type="text/css">
	.st0{opacity:0.85;fill:#FFFFFF;}
	.st1{fill:#FB6400;}
</style>
<circle class="st0" cx="-415.1" cy="280.9" r="30.2"/>
<path class="st1" d="M-415,250c-17.1,0-31,13.9-31,31s13.9,31,31,31s31-13.9,31-31S-397.9,250-415,250z M-415,310c-16,0-29-13-29-29
	s13-29,29-29s29,13,29,29S-399,310-415,310z"/>
<path class="st1" d="M-404.4,280.2l-20-14c-0.3-0.2-0.7-0.2-1-0.1c-0.4,0.2-0.6,0.5-0.6,0.9v28c0,0.4,0.2,0.7,0.5,0.9
	c0.2,0.1,0.3,0.1,0.5,0.1s0.4-0.1,0.6-0.2l20-14c0.3-0.2,0.4-0.5,0.4-0.8S-404.2,280.4-404.4,280.2z"/>
</svg>
