<?xml version="1.0" encoding="utf-8"?>
<!-- Generator: Adobe Illustrator 19.0.0, SVG Export Plug-In . SVG Version: 6.00 Build 0)  -->
<svg version="1.1" id="Layer_1" xmlns="http://www.w3.org/2000/svg" xmlns:xlink="http://www.w3.org/1999/xlink" x="0px" y="0px"
	 viewBox="20 -20 80 80" style="enable-background:new 20 -20 80 80;" xml:space="preserve">
<style type="text/css">
	.st0{fill:#FFFFFF;}
</style>
<polygon class="st0" points="30.6,-3.2 30.6,0.5 27.2,0.5 27.2,-3.2 25,-3.2 25,6.5 27.2,6.5 27.2,2.4 30.6,2.4 30.6,6.5 32.8,6.5 
	32.8,-3.2 "/>
<g>
	<path class="st0" d="M39.3,2.5l-0.2-0.9c-0.1-0.5-0.3-1-0.4-1.6s-0.3-1.1-0.4-1.6h-0.1c-0.1,0.6-0.3,1-0.4,1.6
		c-0.1,0.6-0.3,1-0.4,1.6l-0.3,0.9H39.3z M39.8,4.1h-3l-0.6,2.3H34l3.1-9.7h2.5l3.1,9.7h-2.3L39.8,4.1z"/>
	<path class="st0" d="M43.9-3.2h2.2l2.5,4.8l0.9,2.1h0.1c-0.1-0.6-0.1-1.1-0.2-1.8c-0.1-0.7-0.1-1.2-0.1-1.9v-3.4h2.1v9.7h-2.2
		l-2.5-4.8l-0.9-2.1h-0.1c0.1,0.6,0.1,1.1,0.2,1.8S46,2.4,46,2.9v3.4h-2.1V-3.2z"/>
	<path class="st0" d="M56.4,4.7c0.4,0,0.8-0.1,1.1-0.2c0.4-0.1,0.7-0.3,0.8-0.6s0.5-0.6,0.6-0.9c0.1-0.4,0.2-0.9,0.2-1.5
		S59,0.5,58.9,0c-0.1-0.4-0.3-0.7-0.6-0.9c-0.3-0.3-0.6-0.4-0.8-0.5c-0.4-0.1-0.7-0.2-1.1-0.2H56v6.2L56.4,4.7L56.4,4.7z M53.8-3.2
		h2.7c0.7,0,1.4,0.1,2.1,0.3c0.6,0.2,1.1,0.5,1.5,0.8c0.5,0.4,0.7,0.9,1,1.5c0.2,0.7,0.4,1.3,0.4,2.1S61.3,3.1,61,3.7
		c-0.2,0.7-0.6,1.1-0.9,1.5c-0.4,0.4-0.9,0.7-1.5,0.9s-1.2,0.3-2,0.3h-2.9V-3.2z"/>
	<path class="st0" d="M63.7,3.8C64,4,64.4,4.3,64.8,4.5s0.8,0.3,1.2,0.3c0.5,0,0.8-0.1,1-0.3s0.4-0.4,0.4-0.7c0-0.2,0-0.3-0.1-0.4
		S67.1,3.3,67,3.2c-0.1-0.1-0.3-0.2-0.5-0.3c-0.2-0.1-0.4-0.2-0.6-0.3l-1.2-0.6C64.5,2,64.3,1.9,64,1.7c-0.3-0.2-0.5-0.4-0.7-0.6
		S63,0.7,62.9,0.4c-0.1-0.3-0.2-0.6-0.2-0.9s0.1-0.7,0.3-1.1c0.2-0.4,0.4-0.7,0.7-0.9C64-2.9,64.4-3,64.9-3.2s0.9-0.2,1.4-0.2
		c0.6,0,1.1,0.1,1.7,0.4c0.6,0.2,1,0.6,1.5,0.9l-1.2,1.4c-0.3-0.3-0.7-0.5-0.9-0.6s-0.7-0.2-1-0.2s-0.7,0.1-0.9,0.2
		C65.1-1.1,65-0.9,65-0.6c0,0.2,0,0.3,0.1,0.4s0.2,0.2,0.3,0.3s0.3,0.2,0.5,0.3c0.2,0.1,0.4,0.2,0.6,0.3l1.2,0.5
		c0.6,0.3,1,0.6,1.4,1c0.4,0.4,0.6,0.9,0.6,1.7c0,0.4-0.1,0.8-0.3,1.1c-0.2,0.4-0.4,0.7-0.7,0.9c-0.3,0.3-0.7,0.5-1.1,0.7
		c-0.5,0.2-0.9,0.3-1.6,0.3c-0.7,0-1.3-0.1-1.9-0.4c-0.7-0.2-1.2-0.6-1.7-1L63.7,3.8z"/>
</g>
<rect x="71.1" y="0.2" class="st0" width="3.6" height="1.6"/>
<g>
	<path class="st0" d="M80.9,4.8c0.7,0,1.2-0.3,1.6-0.8C82.9,3.4,83,2.6,83,1.6c0-0.9-0.2-1.8-0.6-2.2c-0.4-0.5-0.9-0.8-1.6-0.8
		c-0.7,0-1.2,0.2-1.6,0.7s-0.6,1.3-0.6,2.3c0,1,0.2,1.8,0.6,2.3C79.7,4.5,80.2,4.8,80.9,4.8 M80.9,6.6c-0.7,0-1.2-0.1-1.8-0.4
		c-0.6-0.2-1-0.6-1.4-1c-0.4-0.5-0.7-0.9-0.9-1.6c-0.3-0.7-0.3-1.3-0.3-2.1s0.1-1.5,0.3-2.1s0.6-1.1,0.9-1.6
		c0.4-0.5,0.8-0.7,1.4-0.9s1.1-0.4,1.8-0.4c0.7,0,1.2,0.1,1.8,0.4c0.6,0.2,1,0.6,1.4,0.9c0.4,0.5,0.7,0.9,0.9,1.6
		c0.2,0.7,0.3,1.3,0.3,2.1S85.2,3,85,3.7c-0.2,0.7-0.6,1.1-0.9,1.6c-0.4,0.5-0.8,0.7-1.4,1C82.2,6.6,81.6,6.6,80.9,6.6"/>
	<path class="st0" d="M87.1-3.2h2.2l2.5,4.8l0.9,2.1h0.1c-0.1-0.6-0.1-1.1-0.2-1.8c-0.1-0.7-0.1-1.2-0.1-1.9v-3.4h2.1v9.7h-2.2
		l-2.5-4.8L89-0.5h-0.1C89,0,89,0.6,89.1,1.2s0.1,1.2,0.1,1.8v3.4h-2.1V-3.2z"/>
</g>
<polygon class="st0" points="25.4,10.7 25.4,41.9 42.9,41.9 42.9,38.5 29.3,38.5 29.3,10.7 "/>
<g>
	<path class="st0" d="M62.6,29.2l-1.5-4.8c-0.6-1.8-1.1-3.4-1.6-5.2c-0.5-1.8-1-3.4-1.5-5.3h-0.2c-0.5,1.8-0.9,3.5-1.5,5.3
		c-0.5,1.8-1,3.4-1.6,5.2l-1.5,4.8H62.6z M63.6,32.4H52.3l-3,9.5h-4.1l10.5-31.2h4.5l10.5,31.2h-4.2L63.6,32.4z"/>
	<path class="st0" d="M83.8,38.8c2.7,0,4.8-0.5,6.2-1.5c1.5-1,2.2-2.5,2.2-4.7c0-2-0.7-3.4-2.1-4.3c-1.5-0.9-3.5-1.4-6.3-1.4h-5.4
		v11.7L83.8,38.8L83.8,38.8z M82.9,24c2.7,0,4.7-0.5,5.8-1.4c1.1-0.9,1.8-2.2,1.8-4c0-1.7-0.7-3-1.9-3.7c-1.2-0.7-3.1-1.1-5.5-1.1
		h-4.8v10.2L82.9,24L82.9,24z M74.4,10.7h9.2c1.6,0,3.1,0.2,4.4,0.5s2.4,0.7,3.4,1.3c0.9,0.6,1.7,1.4,2.1,2.3
		c0.6,0.9,0.7,2.1,0.7,3.4c0,1.6-0.5,3-1.3,4.2c-0.9,1.2-2.2,2.1-4.1,2.6v0.2c2.2,0.4,4.1,1.1,5.3,2.3c1.3,1.2,1.9,2.9,1.9,5.1
		c0,1.5-0.3,2.9-0.8,4c-0.6,1.1-1.4,2.1-2.4,2.9c-1,0.7-2.3,1.3-3.7,1.7c-1.5,0.4-3.1,0.6-4.8,0.6h-9.8V10.7z"/>
</g>
</svg>
