<?xml version="1.0" encoding="utf-8"?>
<!-- Generator: Adobe Illustrator 22.1.0, SVG Export Plug-In . SVG Version: 6.00 Build 0)  -->
<svg version="1.1" id="Layer_1" xmlns="http://www.w3.org/2000/svg" xmlns:xlink="http://www.w3.org/1999/xlink" x="0px" y="0px"
	 viewBox="0 0 90 110" style="enable-background:new 0 0 90 110;" xml:space="preserve">
<style type="text/css">
	.st0{fill:#EC0800;}
	.st1{fill:#FFFFFF;}
</style>
<g>
	
		<rect x="14.2" y="16" transform="matrix(0.7071 -0.7071 0.7071 0.7071 -19.8034 45.2597)" class="st0" width="61.1" height="61.1"/>
	<g>
		<path class="st1" d="M40.8,48.5l2.8-6.1l6.6,4.7l2.2-8l5.7,3.3l-6.7-16.7l3.6-1.4l-2.9-7.4l-24.2,9.6l2.9,7.4l3.7-1.5L40.8,48.5z
			 M30.3,27.5l20.5-8.1l1.5,3.7l-3.6,1.4L54,37.7L51.1,36L49,43.7l-6.2-4.5l-1.8,4l-2.3-5.9l5.9-2.3c0.5-0.2,0.8-0.8,0.6-1.3
			s-0.8-0.8-1.3-0.6L38,35.4l-2.3-5.9L32,31L30.3,27.5z"/>
		<path class="st1" d="M46.9,57.4L45,49.2l-5.3,2.5l-4.9,13.5c-0.9,2.3-0.8,4.9,0.2,7.1c1,2.2,2.9,3.9,5.2,4.8c1,0.4,2,0.5,3.1,0.5
			c1.4,0,2.7-0.3,4-0.9c2.2-1.1,3.9-3,4.7-5.3l4.8-13.3l-2.6-4.8L46.9,57.4z M50.1,70.7c-0.7,1.9-2,3.4-3.7,4.2
			c-1.7,0.9-3.7,1-5.5,0.3s-3.3-2-4.1-3.7S36,67.8,36.6,66l1-2.8l5.6,2c0.1,0,0.2,0.1,0.3,0.1c0.4,0,0.8-0.3,0.9-0.7
			c0.2-0.5-0.1-1.1-0.6-1.3l-5.6-2l2.9-8.1l2.3-1.1l1.9,8.4l7.8-4.5l1.2,2.2L50.1,70.7z"/>
	</g>
</g>
<g>
	<path d="M23.1,106.4c-0.5,0.3-1.2,0.5-2.1,0.5h-2.8v-7.6h2.6c0.7,0,1.4,0.1,1.9,0.4c0.5,0.3,0.8,0.8,0.8,1.5c0,0.8-0.5,1.4-1.3,1.6
		v0c1.1,0.2,1.8,0.9,1.8,1.9C24,105.5,23.6,106,23.1,106.4z M21.6,100.5c-0.2-0.1-0.5-0.2-0.9-0.2h-1v2h1c0.3,0,0.7-0.1,0.9-0.2
		c0.2-0.2,0.4-0.4,0.4-0.8C22.1,100.9,21.9,100.7,21.6,100.5z M22,103.6c-0.2-0.1-0.6-0.2-1-0.2h-1.2v2.3H21c0.4,0,0.8-0.1,1-0.2
		c0.3-0.2,0.5-0.5,0.5-0.9C22.5,104.1,22.2,103.8,22,103.6z"/>
	<path d="M29.5,106.8l-1.8-3h-0.9v3h-1.5v-7.6H28c0.8,0,1.5,0.2,1.9,0.5c0.5,0.4,0.8,1,0.8,1.8c0,1.1-0.6,1.8-1.6,2.1l2,3.2H29.5z
		 M28.8,100.6c-0.3-0.2-0.6-0.3-1-0.3h-1.1v2.4h1.1c0.4,0,0.7-0.1,1-0.3c0.3-0.2,0.5-0.5,0.5-0.9C29.3,101.1,29.1,100.8,28.8,100.6z
		"/>
	<path d="M32.2,106.8v-7.6h4.9v1.2h-3.4v1.8h3.1v1.2h-3.1v2.2h3.5v1.2H32.2z"/>
	<path d="M43.4,106.8l-0.6-1.7h-3l-0.6,1.7h-1.5l2.7-7.6h1.8l2.7,7.6H43.4z M41.4,100.6l-1.1,3.4h2.2L41.4,100.6z"/>
	<path d="M50.2,106.8l-2-3.4l-0.8,0.9v2.5h-1.5v-7.6h1.5v3.3l2.7-3.3h1.8l-2.7,3.1l2.8,4.5H50.2z"/>
	<path d="M58,106.8l-0.6-1.7h-3l-0.6,1.7h-1.5l2.7-7.6h1.8l2.7,7.6H58z M55.9,100.6l-1.1,3.4H57L55.9,100.6z"/>
	<path d="M65.6,106.8l-0.1-0.8c0,0-0.6,0.9-2.3,0.9c-1.8,0-3.4-1.4-3.4-4s1.8-3.9,3.7-3.9c1.9,0,2.8,1.2,2.9,1.3l-0.9,0.9
		c-0.2-0.2-0.7-1-1.9-1s-2.2,0.9-2.2,2.6s0.9,2.6,2.2,2.6s1.7-0.7,1.7-0.7v-1.1h-1.6v-1.1h3v4.1H65.6z"/>
	<path d="M68.2,106.8v-7.6h4.9v1.2h-3.4v1.8h3.1v1.2h-3.1v2.2h3.5v1.2H68.2z"/>
</g>
</svg>
