<?xml version="1.0" encoding="utf-8"?>
<!-- Generator: Adobe Illustrator 22.1.0, SVG Export Plug-In . SVG Version: 6.00 Build 0)  -->
<svg version="1.1" id="Layer_1" xmlns="http://www.w3.org/2000/svg" xmlns:xlink="http://www.w3.org/1999/xlink" x="0px" y="0px"
	 viewBox="0 0 90 110" style="enable-background:new 0 0 90 110;" xml:space="preserve">
<style type="text/css">
	.st0{fill:#EC0800;}
	.st1{fill:#FFFFFF;}
</style>
<g>
	<rect x="14.7" y="16" transform="matrix(0.7071 -0.7071 0.7071 0.7071 -19.657 45.6133)" class="st0" width="61.1" height="61.1"/>
	<g>
		<path class="st1" d="M46.2,71.8c-10.5,0-19.1-8.6-19.1-19.1c0-0.2,0-0.3,0-0.5v-0.1v-0.2c0-6.9,2.9-16.7,9.3-22.1l1.7-1.4L38,30.6
			c0,1.4,0.7,2.3,1.6,2.6c0.4,0.2,0.9,0.2,1.2-0.1c0.5-0.5,0.5-2.1-0.9-5c-2.8-5.5-0.5-9.2,0.6-10.5c1.7-2,4.2-3,6.1-2.4l1.1,0.3
			l-0.5,1c-1.6,3.4,1,6.3,5.8,11.1c5.7,5.7,12.8,12.9,12.4,24.9C65.3,63.3,56.7,71.8,46.2,71.8z M29.2,51.9v0.5c0,0.1,0,0.2,0,0.3
			c0,9.4,8,17.1,17.4,17.1S64,62.1,64,52.7l0,0c0-11.2-6.7-18-12.1-23.5c-4.1-4.1-7.9-7.7-6.8-12c-0.9,0.2-2.1,0.7-3,1.8
			c-0.9,1-2.7,3.9-0.4,8.3c2.1,4.2,1.5,6.2,0.6,7.2c-0.8,0.9-2.1,1.1-3.4,0.6c-1-0.4-2-1.3-2.5-2.5C31.1,38.1,29.2,46.9,29.2,51.9z
			 M45.9,64.5c-4.2,0-7.7-3.4-7.7-7.7c-0.1-2.3,1.2-4.3,2.4-6.3c1.4-2.2,2.7-4.3,2.1-6.8l-0.5-2.4l2,1.3c3.8,2.5,9.7,8.5,9.3,14.2
			C53.6,61,50.1,64.5,45.9,64.5z M44.8,45.6c-0.2,2.2-1.4,4.2-2.5,6s-2.2,3.5-2.1,5.2c0,3.2,2.5,5.7,5.7,5.7c3.1,0,5.7-2.5,5.7-5.7
			C51.8,52.9,48.1,48.3,44.8,45.6z"/>
	</g>
</g>
<g>
	<path d="M36.7,100.4v2.1h2.9v1.2h-2.9v3.1h-1.5v-7.6h4.7v1.2H36.7z"/>
	<path d="M41,106.8v-7.6h1.5v7.6H41z"/>
	<path d="M48.5,106.8l-1.8-3h-0.9v3h-1.5v-7.6H47c0.8,0,1.5,0.2,1.9,0.5c0.5,0.4,0.8,1,0.8,1.8c0,1.1-0.6,1.8-1.6,2.1l2,3.2H48.5z
		 M47.8,100.6c-0.3-0.2-0.6-0.3-1-0.3h-1.1v2.4h1.1c0.4,0,0.7-0.1,1-0.3c0.3-0.2,0.5-0.5,0.5-0.9C48.2,101.1,48.1,100.8,47.8,100.6z
		"/>
	<path d="M51.2,106.8v-7.6h4.9v1.2h-3.4v1.8h3.1v1.2h-3.1v2.2h3.5v1.2H51.2z"/>
</g>
</svg>
