<?xml version="1.0" encoding="utf-8"?>
<!-- Generator: Adobe Illustrator 19.0.0, SVG Export Plug-In . SVG Version: 6.00 Build 0)  -->
<svg version="1.1" id="Layer_1" xmlns="http://www.w3.org/2000/svg" xmlns:xlink="http://www.w3.org/1999/xlink" x="0px" y="0px"
	 viewBox="-279 -5 90 110" style="enable-background:new -279 -5 90 110;" xml:space="preserve">
<style type="text/css">
	.st0{fill:#EC0800;}
	.st1{fill:#FFFFFF;}
</style>
<g>
	<path d="M-252,94h2.6c0.4,0,0.8,0,1.2,0.1c0.4,0.1,0.7,0.2,0.9,0.4c0.3,0.2,0.5,0.4,0.6,0.8c0.2,0.3,0.2,0.7,0.2,1.1
		c0,0.4-0.1,0.8-0.2,1.1c-0.2,0.3-0.4,0.6-0.6,0.8s-0.6,0.4-0.9,0.5c-0.4,0.1-0.8,0.1-1.2,0.1h-1.2v2.9h-1.4V94z M-249.4,97.9
		c1.2,0,1.7-0.5,1.7-1.4c0-0.5-0.1-0.8-0.4-1c-0.3-0.2-0.7-0.3-1.3-0.3h-1.1v2.7H-249.4z"/>
	<path d="M-244.9,94h1.4v6.7h3.3v1.2h-4.7V94z"/>
	<path d="M-235.2,99.7h-2.6l-0.6,2.1h-1.4l2.6-7.8h1.6l2.6,7.8h-1.5L-235.2,99.7z M-235.5,98.6l-0.3-1c-0.1-0.4-0.3-0.8-0.4-1.3
		c-0.1-0.4-0.2-0.9-0.3-1.3h0c-0.1,0.4-0.2,0.9-0.3,1.3c-0.1,0.4-0.2,0.9-0.4,1.3l-0.3,1H-235.5z"/>
	<path d="M-232.2,94h1.4l2.4,4.4l0.8,1.7h0c0-0.4-0.1-0.8-0.1-1.3c0-0.5-0.1-0.9-0.1-1.4V94h1.3v7.8h-1.4l-2.4-4.4l-0.8-1.7h0
		c0,0.4,0.1,0.9,0.1,1.3c0,0.5,0.1,0.9,0.1,1.3v3.4h-1.3V94z"/>
	<path d="M-222.7,95.2h-2.3V94h5.9v1.2h-2.3v6.7h-1.4V95.2z"/>
	<path d="M-217.8,99.9c0.3,0.3,0.6,0.5,1,0.6s0.7,0.2,1.1,0.2c0.4,0,0.8-0.1,1-0.3c0.2-0.2,0.3-0.4,0.3-0.7c0-0.2,0-0.3-0.1-0.4
		c-0.1-0.1-0.1-0.2-0.3-0.3s-0.2-0.2-0.4-0.2c-0.1-0.1-0.3-0.1-0.5-0.2l-1.1-0.5c-0.2-0.1-0.4-0.2-0.6-0.3s-0.4-0.3-0.5-0.4
		c-0.2-0.2-0.3-0.4-0.4-0.6s-0.1-0.5-0.1-0.8c0-0.3,0.1-0.6,0.2-0.9c0.1-0.3,0.3-0.5,0.5-0.7s0.5-0.4,0.8-0.5
		c0.3-0.1,0.7-0.2,1.1-0.2c0.5,0,0.9,0.1,1.3,0.3c0.4,0.2,0.8,0.4,1.1,0.7l-0.7,0.9c-0.3-0.2-0.5-0.4-0.8-0.5s-0.6-0.2-0.9-0.2
		c-0.4,0-0.7,0.1-0.9,0.2c-0.2,0.2-0.3,0.4-0.3,0.7c0,0.2,0,0.3,0.1,0.4c0.1,0.1,0.2,0.2,0.3,0.3c0.1,0.1,0.2,0.2,0.4,0.2
		c0.2,0.1,0.3,0.1,0.5,0.2l1.1,0.4c0.2,0.1,0.4,0.2,0.6,0.3c0.2,0.1,0.4,0.3,0.5,0.4c0.1,0.2,0.2,0.4,0.3,0.6
		c0.1,0.2,0.1,0.5,0.1,0.8c0,0.3-0.1,0.6-0.2,0.9c-0.1,0.3-0.3,0.5-0.6,0.7s-0.5,0.4-0.9,0.5c-0.3,0.1-0.7,0.2-1.2,0.2
		c-0.5,0-1-0.1-1.5-0.3c-0.5-0.2-0.9-0.5-1.3-0.9L-217.8,99.9z"/>
</g>
<g>
	
		<rect x="-264.8" y="11" transform="matrix(0.7071 -0.7071 0.7071 0.7071 -98.0102 -153.4835)" class="st0" width="61.1" height="61.1"/>
	<path class="st1" d="M-209.4,35.7c-0.1,0-0.1,0-0.2,0c-4.5,0-11.3,2.8-15.2,6.3c-1.5,1.3-2.5,3.7-2.6,5.9c-0.1,1.6,0.3,3,1.2,4.2
		l-6.7,6.7l0-18.2c2.3-0.2,4.4-1.3,5.9-3.1c2.2-2.6,3.2-6.5,2.5-10.1c-1-5.5-5.5-14-8.7-17.6l-0.7-0.8l-0.8,0.7
		c-4.2,4.1-8.1,13.3-8.5,20.3c-0.2,2.6,1,5.7,3,7.8c1.5,1.6,3.2,2.5,5.2,2.8l0,18.2l-6.6-6.7c0.8-1.2,1.2-2.6,1.2-4.2
		c-0.1-2.2-1.1-4.5-2.6-5.9c-4-3.6-10.9-6.4-15.4-6.3l-1,0l0.1,1c0.2,3.7,2.4,10.6,4.8,14.1c1.6,2.3,4.3,3.9,6.9,4.1
		c0.2,0,0.4,0,0.6,0c1.5,0,3-0.5,4.2-1.4l8,8.1l0,10.7c0,0.6,0.4,1,1,1h0c0.6,0,1-0.4,1-1l0-10.7c0,0,0,0,0,0l8-8.1
		c1.2,0.9,2.7,1.4,4.2,1.4c0.2,0,0.4,0,0.6,0c2.6-0.2,5.2-1.8,6.9-4.1c2.4-3.5,4.6-10.4,4.8-14.1l0.1-1L-209.4,35.7z M-247.6,53
		c-2-0.2-4.1-1.4-5.4-3.3c-2-2.8-3.8-8.4-4.3-12c4,0.4,9.7,2.9,13,5.7c1.1,1,1.9,2.8,2,4.5c0,0.8-0.1,1.8-0.6,2.7l-6.3-6.3
		c-0.4-0.4-1-0.4-1.4,0c-0.4,0.4-0.4,1,0,1.4l6.3,6.3C-245.5,52.9-246.7,53.1-247.6,53z M-238.7,36.4c-1.6-1.7-2.6-4.3-2.5-6.3
		c0.4-6.1,3.5-14.1,7.2-18.1c2.9,3.8,6.7,11.1,7.5,15.8c0.6,3.1-0.2,6.3-2.1,8.4c-0.9,1-2.3,2.2-4.4,2.4l0-12.3c0-0.6-0.4-1-1-1h0
		c-0.6,0-1,0.4-1,1l0,12.3C-236.7,38.3-237.9,37.3-238.7,36.4z M-214.9,49.7c-1.3,1.9-3.4,3.1-5.4,3.3c-0.9,0.1-2.1-0.1-3.2-0.9
		l6.3-6.3c0.4-0.4,0.4-1,0-1.4c-0.4-0.4-1-0.4-1.4,0l-6.3,6.3c-0.5-0.9-0.7-1.9-0.6-2.7c0.1-1.7,0.9-3.5,2-4.5c3.2-2.9,9-5.4,13-5.7
		C-211.1,41.3-212.9,46.9-214.9,49.7z"/>
</g>
</svg>
