<?xml version="1.0" encoding="utf-8"?>
<!-- Generator: Adobe Illustrator 22.1.0, SVG Export Plug-In . SVG Version: 6.00 Build 0)  -->
<svg version="1.1" id="Layer_1" xmlns="http://www.w3.org/2000/svg" xmlns:xlink="http://www.w3.org/1999/xlink" x="0px" y="0px"
	 viewBox="0 0 90 110" style="enable-background:new 0 0 90 110;" xml:space="preserve">
<style type="text/css">
	.st0{fill:#EC0800;}
	.st1{fill:#FFFFFF;}
</style>
<rect id="XMLID_14_" x="14.4" y="16.2" transform="matrix(0.7071 -0.7071 0.7071 0.7071 -19.9206 45.4497)" class="st0" width="61.1" height="61.1"/>
<g id="XMLID_2_">
	<path id="XMLID_10_" class="st1" d="M63.3,48.2c5.1,0,9.1-3.9,9.1-9s-4-9-9.1-9c-4.1,0-7.6,2.7-8.7,6.7H35c-1.1-4-4.6-6.7-8.7-6.7
		c-5.1,0-9.1,3.9-9.1,9c0,5,4.1,9.1,9.1,9.1c0.3,0,0.7,0,1-0.1l6.4,11.1l-8.5-0.9c-0.6-0.1-1,0.3-1.1,0.9c-0.1,0.6,0.3,1,0.9,1.1
		l10,1l1.5,2.7l-9.2,1.1c-0.5,0.1-0.9,0.6-0.9,1.1c0.1,0.5,0.5,0.9,1,0.9h0.1l10-1.2l0.5,0.8c1.7,3,4.1,4.7,6.7,4.7
		c2.6,0,5-1.7,6.7-4.7l0.4-0.7l9.4,1.2h0.1c0.5,0,0.9-0.4,1-0.9s-0.3-1-0.9-1.1l-8.5-1.1l1.6-2.8l9.3-1c0.5-0.1,0.9-0.5,0.9-1.1
		c-0.1-0.5-0.5-0.9-1.1-0.9l-7.8,0.8l6.4-11.1C62.6,48.2,62.9,48.2,63.3,48.2z M60.8,46.6l-0.1,0.2c0,0.1-0.1,0.2-0.2,0.3l-7.2,12.5
		l-2.8,0.3C50,60,49.6,60.4,49.6,61c0.1,0.5,0.5,0.9,1,0.9h0.1l1.4-0.1l-1.3,2.3l-1.3-0.2c-0.6-0.1-1,0.3-1.1,0.9
		c-0.1,0.6,0.3,1,0.9,1.1l0.4,0.1c-1.4,2.4-3.1,3.7-5,3.7s-3.6-1.3-5-3.7v-0.1c0.4-0.1,0.8-0.6,0.7-1.1s-0.6-0.9-1.1-0.9L38.7,64
		l-1.2-2.1l0.7,0.1h0.1c0.5,0,0.9-0.4,1-0.9s-0.3-1-0.9-1.1l-2.1-0.2l-7.4-12.7c-0.1-0.1-0.1-0.3-0.2-0.4c-0.2-0.3-0.5-0.5-0.9-0.5
		c-0.1,0-0.1,0-0.2,0c-0.4,0.1-0.9,0.2-1.3,0.2c-3.9,0-7.1-3.2-7.1-7.1s3.1-7,7.1-7c3.5,0,6.3,2.4,7,5.9c0.1,0.5,0.5,0.8,1,0.8h21.2
		c0.5,0,0.9-0.3,1-0.8c0.7-3.5,3.5-5.9,7-5.9c4,0,7.1,3.1,7.1,7s-3.1,7-7.1,7c-0.5,0-1,0-1.4-0.1C61.4,46,61,46.2,60.8,46.6z"/>
	<path id="XMLID_7_" class="st1" d="M37.7,43.5c-2,0-3.7,1.7-3.7,3.7s1.7,3.7,3.7,3.7s3.7-1.7,3.7-3.7S39.8,43.5,37.7,43.5z
		 M37.7,48.9c-0.9,0-1.7-0.8-1.7-1.7s0.8-1.7,1.7-1.7s1.7,0.8,1.7,1.7S38.7,48.9,37.7,48.9z"/>
	<path id="XMLID_4_" class="st1" d="M52.9,43.5c-2,0-3.7,1.7-3.7,3.7s1.7,3.7,3.7,3.7s3.7-1.7,3.7-3.7S54.9,43.5,52.9,43.5z
		 M52.9,48.9c-0.9,0-1.7-0.8-1.7-1.7s0.8-1.7,1.7-1.7s1.7,0.8,1.7,1.7S53.8,48.9,52.9,48.9z"/>
	<path id="XMLID_3_" class="st1" d="M47.2,60.1h-5.5c-1.1,0-1.4,0.7-0.7,1.6l2.4,3c0.7,0.9,1.8,0.8,2.5,0l2.2-2.9
		C48.6,60.8,48.3,60.1,47.2,60.1z"/>
</g>
<g>
	<path d="M27.3,106.8l-0.6-1.7h-3l-0.6,1.7h-1.5l2.7-7.6h1.8l2.7,7.6H27.3z M25.3,100.6l-1.1,3.4h2.2L25.3,100.6z"/>
	<path d="M34.6,106.8l-3.4-5.5v5.5h-1.4v-7.6h1.6l3.2,5.2v-5.2h1.4v7.6H34.6z"/>
	<path d="M37.8,106.8v-7.6h1.5v7.6H37.8z"/>
	<path d="M47.6,106.8l-0.1-5.7l-1.9,5.7h-1.3l-1.9-5.7l-0.1,5.7h-1.4l0.3-7.6h1.9L45,105l1.9-5.8h2l0.3,7.6H47.6z"/>
	<path d="M55.5,106.8l-0.6-1.7h-3l-0.6,1.7h-1.5l2.7-7.6h1.8l2.7,7.6H55.5z M53.5,100.6l-1.1,3.4h2.2L53.5,100.6z"/>
	<path d="M58,106.8v-7.6h1.5v6.4h3v1.2H58z"/>
	<path d="M65.9,107c-1,0-2.1-0.4-2.8-1.1l0.8-1.1c0.3,0.3,1.2,0.9,2.1,0.9s1.4-0.4,1.4-0.9c0-0.6-0.6-0.8-0.9-0.9
		c-0.3-0.1-1.3-0.5-1.5-0.6c-0.8-0.3-1.5-0.9-1.5-2c0-1,0.7-2.2,2.7-2.2c1.3,0,2.2,0.6,2.6,1l-0.6,1c-0.4-0.4-1.2-0.8-2-0.8
		c-0.8,0-1.2,0.3-1.2,0.9c0,0.6,0.6,0.8,0.8,0.9c0.3,0.1,1.2,0.5,1.5,0.5c1.1,0.4,1.6,1.2,1.6,2C68.8,105.7,68,107,65.9,107z"/>
</g>
</svg>
