<?xml version="1.0" encoding="utf-8"?>
<!-- Generator: Adobe Illustrator 22.1.0, SVG Export Plug-In . SVG Version: 6.00 Build 0)  -->
<svg version="1.1" id="Layer_1" xmlns="http://www.w3.org/2000/svg" xmlns:xlink="http://www.w3.org/1999/xlink" x="0px" y="0px"
	 viewBox="0 0 90 110" style="enable-background:new 0 0 90 110;" xml:space="preserve">
<style type="text/css">
	.st0{fill:#EC0800;}
	.st1{fill:#FFFFFF;}
</style>
<rect x="14.3" y="16" transform="matrix(0.7071 -0.7071 0.7071 0.7071 -19.7663 45.3226)" class="st0" width="61.1" height="61.1"/>
<polygon class="st1" points="50.9,9.5 50.9,20 37.8,20 37.8,10.4 35.8,12.4 35.8,22 52.9,22 52.9,11.5 "/>
<path class="st1" d="M70.2,60.9c-0.2-2.3-2-5.8-5.9-5.8c-1.7,0-4.2,0-6.7,0.1c-2.3,0-4.7,0.1-6.4,0.1c-1.5-1.4-3.4-2.3-4.7-2.6h-8.3
	c-3.4-3.9-8.6-4.6-11-4.7v-3h-9.9v2.7H2.7l2,2h12.6v12.6l2,2V47h5.9v18.4h-4.8l2,2h4.8v-1.6c2.2,1.2,7.2,4,9.3,5.1
	c1.4,0.7,2.5,0.9,3.5,0.9c0.8,0,1.6-0.2,2.4-0.3c0.4-0.1,0.7-0.1,1.1-0.2c1.6-0.2,12.1-4.1,23.2-8.3c1.4-0.5,2.4-0.9,2.9-1.1
	l0.7-0.3L70.2,60.9z M66,61.1c-5.8,2.2-21.2,8-22.8,8.2c-0.4,0.1-0.8,0.1-1.2,0.2c-1.5,0.3-2.7,0.5-4.5-0.4
	c-2.5-1.3-9.3-5.1-10.2-5.6V49.9c2.2,0.1,6.9,0.8,9.8,4.4l0.3,0.4h8.9c0.7,0.2,4.9,1.6,5.5,5.6c-5.5,0-16.9,0.1-16.9,0.1v2.1
	c0,0,13,0.2,17.9,0.2h1v-1.5c0-1.5-0.4-2.8-1-3.9c1.5,0,3.2,0,4.9-0.1c2.5,0,5-0.1,6.7-0.1c2.4,0,3.4,1.9,3.8,3.3
	C67.5,60.5,66.8,60.8,66,61.1z"/>
<g>
	<path class="st1" d="M44.1,48.8c-0.5,0-0.9-0.4-0.9-0.9V25.6c0-0.5,0.4-0.9,0.9-0.9s0.9,0.4,0.9,0.9v22.2
		C45.1,48.4,44.6,48.8,44.1,48.8z"/>
</g>
<g>
	<path class="st1" d="M34.8,44.2c-2.3,0-5.1-0.9-5.1-5.5c0-3.4,2.3-4.9,4-4.9c0.6,0,1,0.4,1,1c0,0.6-0.5,1-1,1c-0.6,0-2,0.7-2,2.9
		c0,2.5,1,3.5,3.2,3.5c2.4,0,3.2-1.6,3.2-2.5V25.6c0-0.6,0.4-1,1-1s1,0.4,1,1v14.1C40,41.6,38.5,44.2,34.8,44.2z"/>
</g>
<g>
	<path class="st1" d="M54.4,50.4c-3.7,0-5.4-3.4-5.4-5.3V25.6c0-0.6,0.4-1,1-1s1,0.4,1,1v19.5c0,0.9,0.9,3.3,3.4,3.3
		c2.3,0,3.2-1.1,3.2-3.5c0-2.2-1.8-2.9-2.4-2.9c-0.6,0-1-0.4-1-1s0.4-1,1-1c1.8,0,4.4,1.7,4.4,4.9C59.6,48.5,57.8,50.4,54.4,50.4z"
		/>
</g>
<g>
	<path d="M9,106.8v-3.4H5.7v3.4H4.2v-7.6h1.5v3H9v-3h1.5v7.6H9z"/>
	<path d="M17,106.8l-0.6-1.7h-3l-0.6,1.7h-1.5l2.7-7.6h1.8l2.7,7.6H17z M14.9,100.6l-1.1,3.4H16L14.9,100.6z"/>
	<path d="M24.3,106.8l-3.4-5.5v5.5h-1.4v-7.6h1.6l3.2,5.2v-5.2h1.4v7.6H24.3z"/>
	<path d="M32.8,105.9c-0.7,0.6-1.5,0.9-2.7,0.9h-2.6v-7.6h2.6c1.2,0,2.1,0.3,2.7,0.9c0.7,0.6,1.2,1.6,1.2,2.9
		C34,104.4,33.5,105.3,32.8,105.9z M31.8,101c-0.4-0.4-1-0.6-1.7-0.6H29v5.2h1.1c0.7,0,1.3-0.2,1.7-0.6c0.4-0.4,0.7-1.1,0.7-2
		C32.4,102.1,32.2,101.4,31.8,101z"/>
	<path d="M45,106.8h-1.7l-1.5-5.8l-1.5,5.8h-1.7l-2-7.6h1.5l1.3,5.9l1.5-5.9h1.6l1.5,5.9l1.3-5.9h1.5L45,106.8z"/>
	<path d="M52.3,106.8l-0.6-1.7h-3l-0.6,1.7h-1.5l2.7-7.6h1.8l2.7,7.6H52.3z M50.3,100.6l-1.1,3.4h2.2L50.3,100.6z"/>
	<path d="M57.1,107c-1,0-2.1-0.4-2.8-1.1l0.8-1.1c0.3,0.3,1.2,0.9,2.1,0.9s1.4-0.4,1.4-0.9c0-0.6-0.6-0.8-0.9-0.9
		c-0.3-0.1-1.3-0.5-1.5-0.6c-0.8-0.3-1.5-0.9-1.5-2c0-1,0.7-2.2,2.7-2.2c1.3,0,2.2,0.6,2.6,1l-0.6,1c-0.4-0.4-1.2-0.8-2-0.8
		c-0.8,0-1.2,0.3-1.2,0.9c0,0.6,0.6,0.8,0.8,0.9c0.3,0.1,1.2,0.5,1.5,0.5c1.1,0.4,1.6,1.2,1.6,2C60,105.7,59.2,107,57.1,107z"/>
	<path d="M66.1,106.8v-3.4h-3.3v3.4h-1.5v-7.6h1.5v3h3.3v-3h1.5v7.6H66.1z"/>
	<path d="M69.3,106.8v-7.6h1.5v7.6H69.3z"/>
	<path d="M77.4,106.8l-3.4-5.5v5.5h-1.4v-7.6h1.6l3.2,5.2v-5.2h1.4v7.6H77.4z"/>
	<path d="M86,106.8l-0.1-0.8c0,0-0.6,0.9-2.3,0.9c-1.8,0-3.4-1.4-3.4-4s1.8-3.9,3.7-3.9s2.8,1.2,2.9,1.3l-0.9,0.9
		c-0.2-0.2-0.7-1-1.9-1c-1.2,0-2.2,0.9-2.2,2.6s0.9,2.6,2.2,2.6c1.3,0,1.7-0.7,1.7-0.7v-1.1H84v-1.1h3v4.1H86z"/>
</g>
</svg>
