<?xml version="1.0" encoding="utf-8"?>
<!-- Generator: Adobe Illustrator 19.0.0, SVG Export Plug-In . SVG Version: 6.00 Build 0)  -->
<svg version="1.1" id="Layer_1" xmlns="http://www.w3.org/2000/svg" xmlns:xlink="http://www.w3.org/1999/xlink" x="0px" y="0px"
	 viewBox="-279 -5 90 110" style="enable-background:new -279 -5 90 110;" xml:space="preserve">
<style type="text/css">
	.st0{fill:#EC0800;}
	.st1{fill:#FFFFFF;}
</style>
<g>
	<path d="M-261.1,93.8h4.7V95h-3.3v2h2.8v1.2h-2.8v2.3h3.5v1.2h-4.8V93.8z"/>
	<path d="M-253.2,97.6l-2.1-3.8h1.5l0.9,1.7c0.1,0.2,0.2,0.4,0.3,0.6c0.1,0.2,0.2,0.4,0.3,0.6h0c0.1-0.2,0.2-0.4,0.3-0.6
		c0.1-0.2,0.2-0.4,0.3-0.6l0.8-1.7h1.5l-2.1,3.9l2.2,4h-1.5l-1-1.8c-0.1-0.2-0.2-0.4-0.3-0.6s-0.2-0.4-0.3-0.7h0
		c-0.1,0.2-0.2,0.5-0.3,0.7c-0.1,0.2-0.2,0.4-0.3,0.6l-0.9,1.8h-1.5L-253.2,97.6z"/>
	<path d="M-248.1,93.8h2.6c0.4,0,0.8,0,1.2,0.1c0.4,0.1,0.7,0.2,0.9,0.4c0.3,0.2,0.5,0.4,0.6,0.8c0.2,0.3,0.2,0.7,0.2,1.1
		c0,0.4-0.1,0.8-0.2,1.1c-0.2,0.3-0.4,0.6-0.6,0.8s-0.6,0.4-0.9,0.5c-0.4,0.1-0.8,0.1-1.2,0.1h-1.2v2.9h-1.4V93.8z M-245.6,97.6
		c1.2,0,1.7-0.5,1.7-1.4c0-0.5-0.1-0.8-0.4-1c-0.3-0.2-0.7-0.3-1.3-0.3h-1.1v2.7H-245.6z"/>
	<path d="M-241,93.8h1.4v6.7h3.3v1.2h-4.7V93.8z"/>
	<path d="M-232.3,101.8c-0.5,0-1-0.1-1.4-0.3c-0.4-0.2-0.8-0.5-1.1-0.8c-0.3-0.4-0.5-0.8-0.7-1.3s-0.3-1.1-0.3-1.7
		c0-0.6,0.1-1.2,0.3-1.7c0.2-0.5,0.4-0.9,0.7-1.3s0.7-0.6,1.1-0.8c0.4-0.2,0.9-0.3,1.4-0.3c0.5,0,1,0.1,1.4,0.3
		c0.4,0.2,0.8,0.4,1.1,0.8c0.3,0.3,0.5,0.8,0.7,1.3c0.2,0.5,0.3,1.1,0.3,1.7c0,0.6-0.1,1.2-0.3,1.7s-0.4,0.9-0.7,1.3
		c-0.3,0.4-0.7,0.6-1.1,0.8C-231.4,101.7-231.8,101.8-232.3,101.8z M-232.3,100.6c0.3,0,0.6-0.1,0.8-0.2s0.5-0.3,0.6-0.6
		s0.3-0.6,0.4-0.9c0.1-0.4,0.1-0.8,0.1-1.2c0-0.9-0.2-1.6-0.5-2.1c-0.4-0.5-0.9-0.8-1.5-0.8s-1.1,0.2-1.5,0.8
		c-0.4,0.5-0.5,1.2-0.5,2.1c0,0.4,0,0.8,0.1,1.2c0.1,0.4,0.2,0.7,0.4,0.9s0.4,0.4,0.6,0.6C-232.9,100.5-232.6,100.6-232.3,100.6z"/>
	<path d="M-227,99.7c0.3,0.3,0.6,0.5,1,0.6c0.4,0.2,0.7,0.2,1.1,0.2c0.4,0,0.8-0.1,1-0.3c0.2-0.2,0.3-0.4,0.3-0.7
		c0-0.2,0-0.3-0.1-0.4c-0.1-0.1-0.1-0.2-0.3-0.3c-0.1-0.1-0.2-0.2-0.4-0.2s-0.3-0.1-0.5-0.2l-1.1-0.5c-0.2-0.1-0.4-0.2-0.6-0.3
		c-0.2-0.1-0.4-0.3-0.5-0.4c-0.2-0.2-0.3-0.4-0.4-0.6s-0.1-0.5-0.1-0.8c0-0.3,0.1-0.6,0.2-0.9c0.1-0.3,0.3-0.5,0.5-0.7
		c0.2-0.2,0.5-0.4,0.8-0.5c0.3-0.1,0.7-0.2,1.1-0.2c0.5,0,0.9,0.1,1.3,0.3c0.4,0.2,0.8,0.4,1.1,0.7l-0.7,0.9
		c-0.3-0.2-0.5-0.4-0.8-0.5c-0.3-0.1-0.6-0.2-0.9-0.2c-0.4,0-0.7,0.1-0.9,0.2c-0.2,0.2-0.3,0.4-0.3,0.7c0,0.2,0,0.3,0.1,0.4
		c0.1,0.1,0.2,0.2,0.3,0.3s0.2,0.2,0.4,0.2c0.2,0.1,0.3,0.1,0.5,0.2l1.1,0.4c0.2,0.1,0.4,0.2,0.6,0.3s0.4,0.3,0.5,0.4
		s0.2,0.4,0.3,0.6c0.1,0.2,0.1,0.5,0.1,0.8c0,0.3-0.1,0.6-0.2,0.9c-0.1,0.3-0.3,0.5-0.6,0.7s-0.5,0.4-0.9,0.5
		c-0.3,0.1-0.7,0.2-1.2,0.2c-0.5,0-1-0.1-1.5-0.3c-0.5-0.2-0.9-0.5-1.3-0.9L-227,99.7z"/>
	<path d="M-220.8,93.8h1.4v7.8h-1.4V93.8z"/>
	<path d="M-218.4,93.8h1.5l1.1,3.9c0.1,0.4,0.2,0.9,0.3,1.3c0.1,0.4,0.2,0.8,0.4,1.3h0c0.1-0.5,0.3-0.9,0.4-1.3
		c0.1-0.4,0.2-0.8,0.3-1.3l1.1-3.9h1.4l-2.4,7.8h-1.6L-218.4,93.8z"/>
	<path d="M-210.9,93.8h4.7V95h-3.3v2h2.8v1.2h-2.8v2.3h3.5v1.2h-4.8V93.8z"/>
</g>
<g>
	
		<rect x="-264.3" y="11" transform="matrix(0.7071 -0.7071 0.7071 0.7071 -97.8637 -153.1299)" class="st0" width="61.1" height="61.1"/>
	<g>
		<path class="st1" d="M-220.6,68.6l-13-12l-13,12l1.3-17.6l-17.5-2.7l14.6-10l-8.8-15.3l16.9,5.2l6.5-16.4l6.5,16.4l16.9-5.2
			l-8.8,15.3l14.6,10l-17.5,2.7L-220.6,68.6z M-233.5,53.9l10.6,9.8l-1.1-14.4l14.3-2.2l-11.9-8.2l7.2-12.5l-13.8,4.2l-5.3-13.4
			l-5.3,13.4l-13.8-4.2l7.2,12.5l-11.9,8.2l14.3,2.2l-1.1,14.4L-233.5,53.9z"/>
	</g>
	<g>
		<path class="st1" d="M-227.1,54.3l-6.5-6l-6.5,6l0.6-8.8l-8.7-1.3l7.3-5l-4.4-7.6l8.4,2.6l3.2-8.2l3.2,8.2l8.4-2.6l-4.4,7.6l7.3,5
			l-8.7,1.3L-227.1,54.3z M-233.5,45.6l4.1,3.8l-0.4-5.6l5.5-0.8l-4.6-3.2l2.8-4.8l-5.3,1.6l-2.1-5.2l-2.1,5.2l-5.3-1.6l2.8,4.8
			l-4.6,3.2l5.5,0.8l-0.4,5.6L-233.5,45.6z"/>
	</g>
</g>
</svg>
