<?xml version="1.0" encoding="utf-8"?>
<!-- Generator: Adobe Illustrator 19.0.0, SVG Export Plug-In . SVG Version: 6.00 Build 0)  -->
<svg version="1.1" id="Layer_1" xmlns="http://www.w3.org/2000/svg" xmlns:xlink="http://www.w3.org/1999/xlink" x="0px" y="0px"
	 viewBox="-279 -5 90 110" style="enable-background:new -279 -5 90 110;" xml:space="preserve">
<style type="text/css">
	.st0{fill:#EC0800;}
	.st1{fill:#FFFFFF;}
</style>
<g>
	<path d="M-259.7,98.1c0-0.6,0.1-1.2,0.3-1.7c0.2-0.5,0.4-0.9,0.8-1.3c0.3-0.4,0.7-0.6,1.2-0.8c0.4-0.2,0.9-0.3,1.4-0.3
		c0.5,0,0.9,0.1,1.3,0.3s0.7,0.4,0.9,0.7l-0.8,0.9c-0.2-0.2-0.4-0.4-0.6-0.5s-0.5-0.2-0.8-0.2c-0.3,0-0.6,0.1-0.9,0.2
		s-0.5,0.3-0.7,0.6c-0.2,0.2-0.3,0.5-0.5,0.9c-0.1,0.4-0.2,0.7-0.2,1.2c0,0.9,0.2,1.6,0.6,2.1c0.4,0.5,0.9,0.8,1.6,0.8
		c0.4,0,0.7-0.1,0.9-0.2c0.3-0.1,0.5-0.3,0.7-0.6l0.8,0.9c-0.3,0.4-0.7,0.7-1.1,0.8c-0.4,0.2-0.9,0.3-1.4,0.3c-0.5,0-1-0.1-1.4-0.3
		s-0.8-0.4-1.1-0.8c-0.3-0.3-0.6-0.8-0.8-1.3S-259.7,98.7-259.7,98.1z"/>
	<path d="M-252.4,94.2h1.4v3.2h3.2v-3.2h1.4v7.8h-1.4v-3.5h-3.2v3.5h-1.4V94.2z"/>
	<path d="M-244.4,94.2h4.7v1.2h-3.3v2h2.8v1.2h-2.8v2.3h3.5v1.2h-4.8V94.2z"/>
	<path d="M-238,94.2h1.5l1.4,3.9l0.5,1.5h0l0.5-1.5l1.4-3.9h1.5v7.8h-1.3v-3.6c0-0.2,0-0.4,0-0.6c0-0.2,0-0.4,0-0.7s0-0.4,0.1-0.6
		c0-0.2,0-0.4,0.1-0.6h0l-0.6,1.8l-1.4,3.6h-0.6l-1.4-3.6l-0.6-1.8h0c0,0.2,0,0.4,0.1,0.6c0,0.2,0,0.4,0.1,0.6s0,0.4,0,0.7
		c0,0.2,0,0.4,0,0.6v3.6h-1.3V94.2z"/>
	<path d="M-229,94.2h1.4v7.8h-1.4V94.2z"/>
	<path d="M-226,98.1c0-0.6,0.1-1.2,0.3-1.7c0.2-0.5,0.4-0.9,0.8-1.3c0.3-0.4,0.7-0.6,1.2-0.8c0.4-0.2,0.9-0.3,1.4-0.3
		c0.5,0,0.9,0.1,1.3,0.3s0.7,0.4,0.9,0.7l-0.8,0.9c-0.2-0.2-0.4-0.4-0.6-0.5c-0.2-0.1-0.5-0.2-0.8-0.2c-0.3,0-0.6,0.1-0.9,0.2
		c-0.3,0.1-0.5,0.3-0.7,0.6s-0.3,0.5-0.5,0.9c-0.1,0.4-0.2,0.7-0.2,1.2c0,0.9,0.2,1.6,0.6,2.1c0.4,0.5,0.9,0.8,1.6,0.8
		c0.4,0,0.7-0.1,0.9-0.2s0.5-0.3,0.7-0.6l0.8,0.9c-0.3,0.4-0.7,0.7-1.1,0.8c-0.4,0.2-0.9,0.3-1.4,0.3c-0.5,0-1-0.1-1.4-0.3
		c-0.4-0.2-0.8-0.4-1.1-0.8c-0.3-0.3-0.6-0.8-0.8-1.3C-226,99.3-226,98.7-226,98.1z"/>
	<path d="M-215.1,99.9h-2.6l-0.6,2.1h-1.4l2.6-7.8h1.6l2.6,7.8h-1.5L-215.1,99.9z M-215.4,98.8l-0.3-1c-0.1-0.4-0.2-0.8-0.4-1.3
		c-0.1-0.4-0.2-0.9-0.3-1.3h0c-0.1,0.4-0.2,0.9-0.3,1.3c-0.1,0.4-0.2,0.9-0.4,1.3l-0.3,1H-215.4z"/>
	<path d="M-212,94.2h1.4v6.7h3.3v1.2h-4.7V94.2z"/>
</g>
<g>
	
		<rect x="-264.8" y="11" transform="matrix(0.7071 -0.7071 0.7071 0.7071 -98.0224 -153.5129)" class="st0" width="61.1" height="61.1"/>
	<g>
		<path class="st1" d="M-234.4,13.2c-10,0-18.1,8.1-18.1,18.1c0,6.2,3.3,12.1,8.5,15.3v6.5h19.4v-6.6c5.2-3.4,8.3-9,8.3-15.2
			C-216.3,21.4-224.4,13.2-234.4,13.2z M-226.1,45.1l-0.5,0.3v5.8h-3.3v-4h-2v4h-5v-4h-2v4h-3.1v-5.6l-0.5-0.3c-5-2.9-8-8.2-8-13.9
			c0-8.9,7.2-16.1,16.1-16.1c8.9,0,16.1,7.2,16.1,16.1C-218.3,37-221.2,42.2-226.1,45.1z"/>
		<path class="st1" d="M-233.9,40.8c-0.2-0.3-0.7-0.3-0.9,0l-2,2.6c-0.3,0.4,0,0.9,0.4,0.9h4.1c0.5,0,0.7-0.5,0.4-0.9L-233.9,40.8z"
			/>
		<path class="st1" d="M-241.4,27c-3.4,0-6.2,2.8-6.2,6.2c0,3.4,2.8,6.2,6.2,6.2c3.4,0,6.2-2.8,6.2-6.2C-235.2,29.8-238,27-241.4,27
			z M-241.4,37.4c-2.3,0-4.2-1.9-4.2-4.2s1.9-4.2,4.2-4.2s4.2,1.9,4.2,4.2S-239.1,37.4-241.4,37.4z"/>
		<path class="st1" d="M-227.4,27c-3.4,0-6.2,2.8-6.2,6.2c0,3.4,2.8,6.2,6.2,6.2s6.2-2.8,6.2-6.2C-221.2,29.8-224,27-227.4,27z
			 M-227.4,37.4c-2.3,0-4.2-1.9-4.2-4.2s1.9-4.2,4.2-4.2s4.2,1.9,4.2,4.2S-225.1,37.4-227.4,37.4z"/>
	</g>
	<path class="st1" d="M-215.3,54.4c0.1-0.3,0.2-0.5,0.2-0.8c0-1.3-1.1-2.4-2.4-2.4c-1.3,0-2.4,1.1-2.4,2.4c0,0.4,0.1,0.8,0.3,1.1
		l-14.9,6.1l-14-5.7c0.3-0.4,0.6-0.9,0.6-1.5c0-1.3-1.1-2.4-2.4-2.4c-1.3,0-2.4,1.1-2.4,2.4c0,0.3,0.1,0.6,0.2,0.8
		c-0.8,0.4-1.4,1.2-1.4,2.2c0,1.3,1.1,2.4,2.4,2.4c1.2,0,2.1-0.9,2.3-2l12,4.9l-5.8,2.4c-0.2-1.1-1.1-2-2.3-2
		c-1.3,0-2.4,1.1-2.4,2.4c0,1,0.6,1.8,1.4,2.2c-0.1,0.3-0.2,0.5-0.2,0.8c0,1.3,1.1,2.4,2.4,2.4c1.3,0,2.4-1.1,2.4-2.4
		c0-0.6-0.2-1.1-0.6-1.5l7.8-3.2l8,3.2c-0.3,0.4-0.5,0.9-0.5,1.4c0,1.3,1.1,2.4,2.4,2.4s2.4-1.1,2.4-2.4c0-0.3-0.1-0.6-0.2-0.8
		c0.8-0.4,1.4-1.2,1.4-2.2c0-1.3-1.1-2.4-2.4-2.4c-1.2,0-2.2,0.9-2.3,2.1l-6.1-2.5l13.2-5.4c0,0,0,0.1,0,0.1c0,1.3,1.1,2.4,2.4,2.4
		c1.3,0,2.4-1.1,2.4-2.4C-213.9,55.6-214.5,54.7-215.3,54.4z"/>
</g>
</svg>
