<?xml version="1.0" encoding="utf-8"?>
<!-- Generator: Adobe Illustrator 22.1.0, SVG Export Plug-In . SVG Version: 6.00 Build 0)  -->
<svg version="1.1" id="Layer_1" xmlns="http://www.w3.org/2000/svg" xmlns:xlink="http://www.w3.org/1999/xlink" x="0px" y="0px"
	 viewBox="0 0 90 110" style="enable-background:new 0 0 90 110;" xml:space="preserve">
<style type="text/css">
	.st0{fill:#EC0800;}
	.st1{fill:#FFFFFF;}
</style>
<g>
	
		<rect x="14.2" y="16" transform="matrix(0.7071 -0.7071 0.7071 0.7071 -19.8034 45.2597)" class="st0" width="61.1" height="61.1"/>
	<path class="st1" d="M51.7,67.7c5.3-0.8,10-8.1,10-13.8V41.6h6c0.6,0,1-0.4,1-1s-0.4-1-1-1h-45c-0.6,0-1,0.4-1,1s0.4,1,1,1h6V54
		c0,5.7,4.7,12.9,10,13.8v5.9h13L51.7,67.7L51.7,67.7z M49.7,65.6v6h-9v-6h-1c-4.5,0-9-6.7-9-11.7V41.6h29V54c0,4.9-4.5,11.7-9,11.7
		L49.7,65.6L49.7,65.6z"/>
	<path class="st1" d="M34.7,37.6c0.6,0,1-0.4,1-1v-11c0-0.6-0.4-1-1-1s-1,0.4-1,1v11C33.7,37.2,34.2,37.6,34.7,37.6z"/>
	<path class="st1" d="M55.7,37.6c0.6,0,1-0.4,1-1v-11c0-0.6-0.4-1-1-1s-1,0.4-1,1v11C54.7,37.2,55.2,37.6,55.7,37.6z"/>
	<path class="st1" d="M41.7,76.6c0-0.6-0.4-1-1-1s-1,0.4-1,1v8.1l2,2c0,0,0,0,0-0.1V76.6z"/>
	<path class="st1" d="M49.7,76.6c0-0.6-0.4-1-1-1s-1,0.4-1,1v10v0.1l2-2V76.6z"/>
	<path class="st1" d="M43.1,37.7c0.6,0,1-0.4,1-1v-9c0-0.6,0.5-1.2,1.2-1.2s1.2,0.5,1.2,1.2v9c0,0.6,0.4,1,1,1s1-0.4,1-1v-9
		c0-1.7-1.4-3.2-3.2-3.2s-3.2,1.4-3.2,3.2v9C42.1,37.3,42.5,37.7,43.1,37.7z"/>
</g>
<g>
	<path d="M21.9,106.8v-7.6h4.9v1.2h-3.4v1.8h3.1v1.2h-3.1v2.2h3.5v1.2H21.9z"/>
	<path d="M28.3,106.8v-7.6h1.5v6.4h3v1.2H28.3z"/>
	<path d="M33.8,106.8v-7.6h4.9v1.2h-3.4v1.8h3.1v1.2h-3.1v2.2h3.5v1.2H33.8z"/>
	<path d="M45.3,101.4c0,0-0.6-1-1.9-1c-1.3,0-2.2,1-2.2,2.6s0.9,2.6,2.2,2.6c1.3,0,2-1,2-1l0.8,1c0,0-0.8,1.4-2.9,1.4
		c-2.1,0-3.6-1.4-3.6-3.9s1.8-3.9,3.7-3.9s2.7,1.3,2.8,1.4L45.3,101.4z"/>
	<path d="M50.4,100.4v6.4h-1.5v-6.4h-2.2v-1.2h5.9v1.2H50.4z"/>
	<path d="M57.7,106.8l-1.8-3H55v3h-1.5v-7.6h2.7c0.8,0,1.5,0.2,1.9,0.5c0.5,0.4,0.8,1,0.8,1.8c0,1.1-0.6,1.8-1.6,2.1l2,3.2H57.7z
		 M57,100.6c-0.3-0.2-0.6-0.3-1-0.3H55v2.4H56c0.4,0,0.7-0.1,1-0.3s0.5-0.5,0.5-0.9C57.5,101.1,57.3,100.8,57,100.6z"/>
	<path d="M60.4,106.8v-7.6h1.5v7.6H60.4z"/>
	<path d="M68.9,101.4c0,0-0.6-1-1.9-1c-1.3,0-2.2,1-2.2,2.6s0.9,2.6,2.2,2.6c1.3,0,2-1,2-1l0.8,1c0,0-0.8,1.4-2.9,1.4
		c-2.1,0-3.6-1.4-3.6-3.9s1.8-3.9,3.7-3.9c1.9,0,2.7,1.3,2.8,1.4L68.9,101.4z"/>
</g>
</svg>
