<?xml version="1.0" encoding="utf-8"?>
<!-- Generator: Adobe Illustrator 22.1.0, SVG Export Plug-In . SVG Version: 6.00 Build 0)  -->
<svg version="1.1" id="Layer_1" xmlns="http://www.w3.org/2000/svg" xmlns:xlink="http://www.w3.org/1999/xlink" x="0px" y="0px"
	 viewBox="0 0 90 110" style="enable-background:new 0 0 90 110;" xml:space="preserve">
<style type="text/css">
	.st0{fill:#EC0800;}
	.st1{fill:#FFFFFF;}
</style>
<g>
	
		<rect x="14.8" y="16.2" transform="matrix(0.7071 -0.7071 0.7071 0.7071 -19.7855 45.7643)" class="st0" width="61.1" height="61.1"/>
	<path class="st1" d="M34.6,59.5c-3.6,0-5.4,1.9-5.4,6c0,3.4,2.2,5.3,4.2,5.3c0.6,0,1-0.4,1-1s-0.4-1-1-1c-0.9,0-2.2-0.9-2.2-3.3
		c0-2.9,0.9-4,3.4-4c3.1,0,3.3,2.2,3.3,2.9v18l2,2v-20C39.9,62,38.2,59.5,34.6,59.5z"/>
	<path class="st1" d="M49.8,52.4c2.6,0,3.7,1.2,3.7,4c0,2.6-1.9,3.4-2.6,3.4c-0.6,0-1,0.4-1,1s0.4,1,1,1c1.9,0,4.6-1.9,4.6-5.4
		c0-3.8-2-6-5.7-6c-4,0-5.9,2.8-5.9,4.9v33.2l1.5,1.5l0.5-0.5V55.3C45.9,54.3,46.8,52.4,49.8,52.4z"/>
	<path class="st1" d="M51.9,68c0-0.9,1-2.9,4-2.9c2.6,0,3.7,1.2,3.7,4c0,2.9-2.7,3-2.7,3c-0.6,0-1,0.4-1,1s0.4,1,1,1
		c1.8,0,4.7-1.3,4.7-5c0-3.8-2-6-5.7-6c-4.1,0-6,2.9-6,4.9v17.4l2-2V68z"/>
	<path class="st1" d="M46.4,14.9l-2.8,2.8l-6.2-6.2L36,12.9l2.9,2.9L34.7,20c-0.4,0.4-0.4,1,0,1.4c0.2,0.2,0.5,0.3,0.7,0.3
		s0.5-0.1,0.7-0.3l4.2-4.2l3.2,3.2l2.8-2.8l2.8,2.8L33.5,36l-2.8-2.8l2.8-2.8l-7.6-7.6l-1.4,1.4l6.2,6.2l-2.8,2.8l5.7,5.7L52,20.5
		L46.4,14.9z"/>
	<g>
		<path class="st1" d="M45.1,48.2c-3.4,0-6.1-2.7-6.1-6.1c0-3,3.5-9.6,6.1-9.6c1.9,0,6.1,6.6,6.1,9.6C51.2,45.5,48.5,48.2,45.1,48.2
			z M45,34.5c-1.1,0.4-4,5.1-4,7.6c0,2.3,1.9,4.1,4.1,4.1s4.1-1.9,4.1-4.1C49.2,39.8,46,35.2,45,34.5z"/>
	</g>
</g>
<g>
	<path d="M21.1,101.4c0,0-0.6-1-1.9-1c-1.3,0-2.2,1-2.2,2.6s0.9,2.6,2.2,2.6c1.3,0,2-1,2-1l0.8,1c0,0-0.8,1.4-2.9,1.4
		s-3.6-1.4-3.6-3.9s1.8-3.9,3.7-3.9s2.7,1.3,2.8,1.4L21.1,101.4z"/>
	<path d="M27.8,106.8v-3.4h-3.3v3.4H23v-7.6h1.5v3h3.3v-3h1.5v7.6H27.8z"/>
	<path d="M31.1,106.8v-7.6H36v1.2h-3.4v1.8h3.1v1.2h-3.1v2.2h3.5v1.2H31.1z"/>
	<path d="M44,106.8l-0.1-5.7l-1.9,5.7h-1.3l-1.9-5.7l-0.1,5.7h-1.4l0.3-7.6h1.9l1.9,5.8l1.9-5.8h2l0.3,7.6H44z"/>
	<path d="M47.1,106.8v-7.6h1.5v7.6H47.1z"/>
	<path d="M55.6,101.4c0,0-0.6-1-1.9-1c-1.3,0-2.2,1-2.2,2.6s0.9,2.6,2.2,2.6c1.3,0,2-1,2-1l0.8,1c0,0-0.8,1.4-2.9,1.4
		c-2.1,0-3.6-1.4-3.6-3.9s1.8-3.9,3.7-3.9c1.9,0,2.7,1.3,2.8,1.4L55.6,101.4z"/>
	<path d="M62.4,106.8l-0.6-1.7h-3l-0.6,1.7h-1.5l2.7-7.6h1.8l2.7,7.6H62.4z M60.3,100.6l-1.1,3.4h2.2L60.3,100.6z"/>
	<path d="M64.8,106.8v-7.6h1.5v6.4h3v1.2H64.8z"/>
	<path d="M72.8,107c-1,0-2.1-0.4-2.8-1.1l0.8-1.1c0.3,0.3,1.2,0.9,2.1,0.9s1.4-0.4,1.4-0.9c0-0.6-0.6-0.8-0.9-0.9
		c-0.3-0.1-1.3-0.5-1.5-0.6c-0.8-0.3-1.5-0.9-1.5-2c0-1,0.7-2.2,2.7-2.2c1.3,0,2.2,0.6,2.6,1l-0.6,1c-0.4-0.4-1.2-0.8-2-0.8
		s-1.2,0.3-1.2,0.9c0,0.6,0.6,0.8,0.8,0.9c0.3,0.1,1.2,0.5,1.5,0.5c1.1,0.4,1.6,1.2,1.6,2C75.6,105.7,74.9,107,72.8,107z"/>
</g>
</svg>
