<?xml version="1.0" encoding="utf-8"?>
<!-- Generator: Adobe Illustrator 22.1.0, SVG Export Plug-In . SVG Version: 6.00 Build 0)  -->
<svg version="1.1" id="Layer_1" xmlns="http://www.w3.org/2000/svg" xmlns:xlink="http://www.w3.org/1999/xlink" x="0px" y="0px"
	 viewBox="0 0 90 110" style="enable-background:new 0 0 90 110;" xml:space="preserve">
<style type="text/css">
	.st0{fill:#EC0800;}
	.st1{fill:#FFFFFF;}
</style>
<g>
	
		<rect x="14.2" y="16" transform="matrix(0.7071 -0.7071 0.7071 0.7071 -19.8034 45.2597)" class="st0" width="61.1" height="61.1"/>
	<g>
		<path class="st1" d="M37.7,61.8c0.6,0,1-0.4,1-1v-17c0-0.6-0.4-1-1-1s-1,0.4-1,1v17C36.7,61.4,37.2,61.8,37.7,61.8z"/>
		<path class="st1" d="M44.7,61.8c0.6,0,1-0.4,1-1v-17c0-0.6-0.4-1-1-1s-1,0.4-1,1v17C43.7,61.4,44.2,61.8,44.7,61.8z"/>
		<path class="st1" d="M51.7,61.8c0.6,0,1-0.4,1-1v-17c0-0.6-0.4-1-1-1s-1,0.4-1,1v17C50.7,61.4,51.2,61.8,51.7,61.8z"/>
		<path class="st1" d="M65.7,27.8h-13v-7h-16v7h-13v10h5v31h32v-31h5V27.8z M38.7,22.8h12v5h-12V22.8z M58.7,66.8h-28v-29h28V66.8z
			 M63.7,35.8h-3h-32h-3v-6h11h16h11V35.8z"/>
	</g>
</g>
<g>
	<path d="M26.1,105.9c-0.7,0.6-1.5,0.9-2.7,0.9h-2.6v-7.6h2.6c1.2,0,2.1,0.3,2.7,0.9c0.7,0.6,1.2,1.6,1.2,2.9
		C27.3,104.4,26.8,105.3,26.1,105.9z M25.1,101c-0.4-0.4-1-0.6-1.7-0.6h-1.1v5.2h1.1c0.7,0,1.3-0.2,1.7-0.6c0.4-0.4,0.7-1.1,0.7-2
		C25.8,102.1,25.5,101.4,25.1,101z"/>
	<path d="M28.6,106.8v-7.6h1.5v7.6H28.6z"/>
	<path d="M34,107c-1,0-2.1-0.4-2.8-1.1l0.8-1.1c0.3,0.3,1.2,0.9,2.1,0.9s1.4-0.4,1.4-0.9c0-0.6-0.6-0.8-0.9-0.9
		c-0.3-0.1-1.3-0.5-1.5-0.6c-0.8-0.3-1.5-0.9-1.5-2c0-1,0.7-2.2,2.7-2.2c1.3,0,2.2,0.6,2.6,1l-0.6,1c-0.4-0.4-1.2-0.8-2-0.8
		c-0.8,0-1.2,0.3-1.2,0.9c0,0.6,0.6,0.8,0.8,0.9c0.3,0.1,1.2,0.5,1.5,0.5c1.1,0.4,1.6,1.2,1.6,2C36.9,105.7,36.1,107,34,107z"/>
	<path d="M42.7,103.6c-0.5,0.4-1.4,0.6-2,0.6h-1.1v2.7h-1.5v-7.6h2.6c0.7,0,1.5,0.2,2,0.6c0.5,0.4,0.8,1,0.8,1.9
		C43.6,102.6,43.3,103.2,42.7,103.6z M41.6,100.6c-0.3-0.2-0.6-0.3-1.1-0.3h-0.8v2.6h0.8c0.5,0,0.8,0,1.1-0.3
		c0.3-0.2,0.5-0.5,0.5-1.1C42,101.2,41.9,100.9,41.6,100.6z"/>
	<path d="M48.1,107c-2.3,0-3.7-1.6-3.7-3.9c0-2.3,1.5-3.9,3.7-3.9c2.3,0,3.7,1.6,3.7,3.9C51.8,105.4,50.4,107,48.1,107z M48.1,100.4
		c-1.4,0-2.2,1.1-2.2,2.7c0,1.5,0.8,2.7,2.2,2.7c1.4,0,2.2-1.1,2.2-2.7C50.3,101.5,49.5,100.4,48.1,100.4z"/>
	<path d="M55.2,107c-1,0-2.1-0.4-2.8-1.1l0.8-1.1c0.3,0.3,1.2,0.9,2.1,0.9s1.4-0.4,1.4-0.9c0-0.6-0.6-0.8-0.9-0.9
		c-0.3-0.1-1.3-0.5-1.5-0.6c-0.8-0.3-1.5-0.9-1.5-2c0-1,0.7-2.2,2.7-2.2c1.3,0,2.2,0.6,2.6,1l-0.6,1c-0.4-0.4-1.2-0.8-2-0.8
		c-0.8,0-1.2,0.3-1.2,0.9c0,0.6,0.6,0.8,0.8,0.9c0.3,0.1,1.2,0.5,1.5,0.5c1.1,0.4,1.6,1.2,1.6,2C58.1,105.7,57.3,107,55.2,107z"/>
	<path d="M64,106.8l-0.6-1.7h-3l-0.6,1.7h-1.5l2.7-7.6h1.8l2.7,7.6H64z M61.9,100.6l-1.1,3.4H63L61.9,100.6z"/>
	<path d="M66.4,106.8v-7.6h1.5v6.4h3v1.2H66.4z"/>
</g>
</svg>
