<?xml version="1.0" encoding="utf-8"?>
<!-- Generator: Adobe Illustrator 22.1.0, SVG Export Plug-In . SVG Version: 6.00 Build 0)  -->
<svg version="1.1" id="Layer_1" xmlns="http://www.w3.org/2000/svg" xmlns:xlink="http://www.w3.org/1999/xlink" x="0px" y="0px"
	 viewBox="0 0 90 110" style="enable-background:new 0 0 90 110;" xml:space="preserve">
<style type="text/css">
	.st0{fill:#EC0800;}
	.st1{fill:#FFFFFF;}
</style>
<g>
	<rect x="14.2" y="16" transform="matrix(0.7174 -0.6966 0.6966 0.7174 -19.7707 44.308)" class="st0" width="61.1" height="61.1"/>
	<path class="st1" d="M70.6,40.5c0-0.2,0-0.4,0-0.6l0.1-0.4l0,0c0-4.9-4.2-11.8-9.8-15.5c-5.3-3.6-11.1-3.9-16.2-0.8
		c-3.6,2.1-5.5,3.8-6.8,5c-2,1.8-2.5,2.3-6.8,1.6c-4.8-0.8-8.3,0-10.5,2.2c-3.1,3.2-2.1,8.1-2,8.3c0,0.2,0.1,0.3,0.2,0.4l2.9,19.5
		h0.1c0.4,2.4,2.4,4.2,4.9,4.2l12.1,0.2c0,0,0,0,0.1,0c2.4,0,3.9-2.1,4-5.7c0-0.5,1-0.7,1.6-0.7l0,0c1.1,0,2,0.4,2,0.8
		c0,2.7,2.1,5.8,4.9,5.8L62.5,65c0,0,0,0,0.1,0c2.6,0,4.9-2.1,5.1-4.6l3.1-19.6C70.5,40.7,70.6,40.6,70.6,40.5z M22,33.4
		c1.7-1.7,4.6-2.3,8.7-1.6c5,0.8,6.1,0.1,8.5-2.1c1.3-1.2,3-2.8,6.4-4.8c5.7-3.3,10.8-1.4,14.1,0.8c5.6,3.7,9.2,10.5,8.9,14.4
		c-0.7,0.2-2.1,0.4-4,0.7c0-4.3-2.7-9.1-6.8-11.6c-4-2.4-8.5-2.3-12.4,0.4c-1.9,1.3-3.4,2.4-4.5,3.3c-4.2,3.1-4.4,3.3-10.2,2.7
		c-2-0.2-3.6,0.2-4.5,1.4c-1,1.1-1.1,2.7-1.1,3.8c-2.2-0.3-3.8-0.6-4.6-0.8l0,0C20.4,39.9,19.7,35.8,22,33.4z M27.1,41
		c-0.1-0.8-0.1-2.1,0.6-2.8c0.5-0.6,1.5-0.8,2.8-0.7c6.3,0.7,7.1,0.3,11.6-3.1c1.1-0.9,2.6-1.9,4.5-3.2c4.5-3.1,8.3-1.5,10.3-0.4
		c3.6,2.2,6,6.6,5.9,10.2c-4.4,0.6-10.6,1.3-17.8,1.3C38.4,42.3,31.8,41.6,27.1,41z M62.2,63l-11.1-0.2c-1.6,0-2.9-2.1-2.9-3.8
		c0-1.8-2-2.8-4-2.8l0,0c-2.1,0-3.6,1.1-3.6,2.7c0,1.1-0.2,3.7-2,3.7l0,0l-12.1-0.2c-1.7,0-3-1.4-3-3.1V50h41.9v10v0.3l0,0
		C65.2,61.8,63.8,63.1,62.2,63z M67.3,48.2H21.8l-0.9-6.1c3.6,0.6,13.8,2.2,24,2.2c11.1,0,20-1.5,23.4-2.2L67.3,48.2z"/>
</g>
<g>
	<path d="M3.3,107c-1,0-2.1-0.4-2.8-1.1l0.7-1c0.3,0.3,1.1,0.9,2,0.9c0.9,0,1.3-0.4,1.3-0.9c0-0.6-0.6-0.8-0.8-0.9
		c-0.3-0.1-1.2-0.5-1.4-0.5c-0.8-0.3-1.4-0.9-1.4-2c0-1,0.7-2.2,2.7-2.2c1.2,0,2.2,0.6,2.5,1l-0.6,1c-0.4-0.4-1.2-0.8-1.9-0.8
		s-1.2,0.3-1.2,0.8c0,0.6,0.5,0.8,0.8,0.9c0.3,0.1,1.2,0.4,1.4,0.5c1.1,0.4,1.5,1.1,1.5,2C6.1,105.7,5.4,107,3.3,107z"/>
	<path d="M11.9,106.8l-0.5-1.6H8.5l-0.5,1.6H6.5l2.6-7.5h1.8l2.6,7.5H11.9z M9.9,100.7L8.8,104H11L9.9,100.7z"/>
	<path d="M15.8,100.5v2h2.9v1.2h-2.9v3.1h-1.5v-7.5h4.6v1.2H15.8z"/>
	<path d="M20,106.8v-7.5h4.8v1.2h-3.3v1.8h3.1v1.2h-3.1v2.1h3.4v1.2H20z"/>
	<path d="M29.2,100.5v6.3h-1.5v-6.3h-2.1v-1.2h5.7v1.2H29.2z"/>
	<path d="M35.8,103.8v3h-1.5v-3l-2.6-4.4h1.6l1.7,3.3l1.7-3.3h1.6L35.8,103.8z"/>
	<path d="M46.6,106.8l-0.1-0.8c0,0-0.6,0.9-2.3,0.9c-1.8,0-3.3-1.4-3.3-3.9s1.7-3.8,3.6-3.8c1.9,0,2.7,1.2,2.8,1.3l-0.9,0.9
		c-0.2-0.2-0.7-1-1.9-1s-2.2,0.9-2.2,2.6s0.9,2.6,2.1,2.6c1.2,0,1.7-0.7,1.7-0.7v-1.1h-1.6v-1.1h3v4H46.6z"/>
	<path d="M52.3,107c-2.2,0-3.7-1.6-3.7-3.9c0-2.3,1.4-3.8,3.7-3.8s3.7,1.6,3.7,3.8S54.5,107,52.3,107z M52.3,100.5
		c-1.4,0-2.1,1.1-2.1,2.6c0,1.5,0.8,2.6,2.1,2.6c1.4,0,2.1-1.1,2.1-2.6C54.4,101.6,53.6,100.5,52.3,100.5z"/>
	<path d="M62.5,106.8l-0.1-0.8c0,0-0.6,0.9-2.3,0.9c-1.8,0-3.3-1.4-3.3-3.9s1.7-3.8,3.6-3.8s2.7,1.2,2.8,1.3l-0.9,0.9
		c-0.2-0.2-0.7-1-1.9-1s-2.2,0.9-2.2,2.6s0.9,2.6,2.1,2.6s1.7-0.7,1.7-0.7v-1.1h-1.6v-1.1h3v4H62.5z"/>
	<path d="M70.3,106.8l-0.1-0.8c0,0-0.6,0.9-2.3,0.9c-1.8,0-3.3-1.4-3.3-3.9s1.7-3.8,3.6-3.8s2.7,1.2,2.8,1.3l-0.9,0.9
		c-0.2-0.2-0.7-1-1.9-1s-2.2,0.9-2.2,2.6s0.9,2.6,2.1,2.6c1.2,0,1.7-0.7,1.7-0.7v-1.1h-1.6v-1.1h3v4H70.3z"/>
	<path d="M72.9,106.8v-7.5h1.5v6.3h3v1.2H72.9z"/>
	<path d="M78.2,106.8v-7.5H83v1.2h-3.3v1.8h3.1v1.2h-3.1v2.1h3.4v1.2H78.2z"/>
	<path d="M86.7,107c-1,0-2.1-0.4-2.8-1.1l0.7-1c0.3,0.3,1.1,0.9,2,0.9s1.3-0.4,1.3-0.9c0-0.6-0.6-0.8-0.8-0.9
		c-0.3-0.1-1.2-0.5-1.4-0.5c-0.8-0.3-1.4-0.9-1.4-2c0-1,0.7-2.2,2.7-2.2c1.2,0,2.2,0.6,2.5,1l-0.6,1c-0.4-0.4-1.2-0.8-1.9-0.8
		s-1.2,0.3-1.2,0.8c0,0.6,0.5,0.8,0.8,0.9c0.3,0.1,1.2,0.4,1.4,0.5c1.1,0.4,1.5,1.1,1.5,2C89.5,105.7,88.7,107,86.7,107z"/>
</g>
</svg>
