<?xml version="1.0" encoding="utf-8"?>
<!-- Generator: Adobe Illustrator 22.1.0, SVG Export Plug-In . SVG Version: 6.00 Build 0)  -->
<svg version="1.1" id="Layer_1" xmlns="http://www.w3.org/2000/svg" xmlns:xlink="http://www.w3.org/1999/xlink" x="0px" y="0px"
	 viewBox="0 0 90 110" style="enable-background:new 0 0 90 110;" xml:space="preserve">
<style type="text/css">
	.st0{fill:#EC0800;}
	.st1{fill:#FFFFFF;}
</style>
<g>
	
		<rect x="14.6" y="16" transform="matrix(0.7071 -0.7071 0.7071 0.7071 -19.7017 45.5581)" class="st0" width="61.1" height="61.1"/>
	<g>
		<path class="st1" d="M70.5,33.8c-0.8-2.6-3.4-3-5.7-3.4c-3.3-0.5-4.9-0.9-4.6-4.6c0.1-0.5-0.4-1-0.9-1.1c-0.5,0-1,0.4-1.1,0.9
			c-0.5,5.8,3.4,6.4,6.3,6.8c2.2,0.3,3.6,0.6,4,2c0.4,1.2,0.6,2.8-0.2,3.9c-0.8,1.1-2.5,1.4-3.8,1.4l0,0h-0.9
			c-10.1,0-10.1-4.4-10.1-5.9v-1.1V28c0-4.7-3.8-8.6-8.5-8.6s-8.4,3.9-8.4,8.6c0,0,0,6.1,0,6.3c-0.6,5.4-9.6,5.4-9.9,5.4h-1l0,0
			c-4.7-0.8-8.3-0.3-10.2,1.6c-0.9,0.9-1.9,2.5-1.4,5.3c0.7,3.9,2.7,4.8,4.1,5.5s2.4,1.1,2,4.9c-0.1,0.5,0.4,1,0.9,1.1h0.1
			c0.5,0,0.9-0.4,1-0.9c0.5-4.8-1.1-5.9-3.1-6.9c-1.3-0.6-2.5-1.2-3-4.1c-0.3-1.5,0-2.7,0.8-3.5c1.5-1.4,4.7-1.8,8.8-1v23.9h39V41.7
			c3,0,4.6-1.2,5.3-2.2C71.1,38.1,71.3,36.1,70.5,33.8z M45,21.3c3.7,0,6.5,2.9,6.5,6.6v4.7H38.4v-4.7C38.5,24.2,41.3,21.3,45,21.3z
			 M62.7,63.6h-35V41.7c4.1-0.2,10-1.9,10.6-7.1h13.3c0.4,3.3,2.7,6.8,11,7.1L62.7,63.6L62.7,63.6z"/>
		<path class="st1" d="M38.7,51.1c0,3.7,3,6.6,6.6,6.6c3.7,0,6.6-3,6.6-6.6v-4.5H38.7L38.7,51.1L38.7,51.1z M40.7,48.6h9.2v2.5
			c0,2.6-2.1,4.6-4.6,4.6s-4.6-2.1-4.6-4.6L40.7,48.6L40.7,48.6z"/>
	</g>
</g>
<g>
	<path d="M32.6,106.8l-0.6-1.7h-3l-0.6,1.7H27l2.7-7.6h1.8l2.7,7.6H32.6z M30.5,100.6l-1.1,3.4h2.2L30.5,100.6z"/>
	<path d="M39.6,103.6c-0.5,0.4-1.4,0.6-2,0.6h-1.1v2.7H35v-7.6h2.6c0.7,0,1.5,0.2,2,0.6c0.5,0.4,0.8,1,0.8,1.9
		C40.4,102.6,40.2,103.2,39.6,103.6z M38.5,100.6c-0.3-0.2-0.6-0.3-1.1-0.3h-0.8v2.6h0.8c0.5,0,0.8,0,1.1-0.3
		c0.3-0.2,0.5-0.5,0.5-1.1C38.9,101.2,38.8,100.9,38.5,100.6z"/>
	<path d="M45.8,106.8l-1.8-3h-0.9v3h-1.5v-7.6h2.7c0.8,0,1.5,0.2,1.9,0.5c0.5,0.4,0.8,1,0.8,1.8c0,1.1-0.6,1.8-1.6,2.1l2,3.2H45.8z
		 M45.1,100.6c-0.3-0.2-0.6-0.3-1-0.3h-1.1v2.4h1.1c0.4,0,0.7-0.1,1-0.3c0.3-0.2,0.5-0.5,0.5-0.9C45.6,101.1,45.4,100.8,45.1,100.6z
		"/>
	<path d="M51.7,107c-2.3,0-3.7-1.6-3.7-3.9c0-2.3,1.5-3.9,3.7-3.9s3.7,1.6,3.7,3.9C55.4,105.4,54,107,51.7,107z M51.7,100.4
		c-1.4,0-2.2,1.1-2.2,2.7c0,1.5,0.8,2.7,2.2,2.7c1.4,0,2.2-1.1,2.2-2.7C53.9,101.5,53.1,100.4,51.7,100.4z"/>
	<path d="M61.6,106.8l-3.4-5.5v5.5h-1.4v-7.6h1.6l3.2,5.2v-5.2h1.4v7.6H61.6z"/>
</g>
</svg>
