<?xml version="1.0" encoding="utf-8"?>
<!-- Generator: Adobe Illustrator 22.1.0, SVG Export Plug-In . SVG Version: 6.00 Build 0)  -->
<svg version="1.1" id="Layer_1" xmlns="http://www.w3.org/2000/svg" xmlns:xlink="http://www.w3.org/1999/xlink" x="0px" y="0px"
	 viewBox="0 0 90 110" style="enable-background:new 0 0 90 110;" xml:space="preserve">
<style type="text/css">
	.st0{fill:#EC0800;}
	.st1{fill:#FFFFFF;}
</style>
<g>
	
		<rect x="14.2" y="16" transform="matrix(0.7071 -0.7071 0.7071 0.7071 -19.8034 45.2597)" class="st0" width="61.1" height="61.1"/>
	<g>
		<path class="st1" d="M37,61.6c-0.6,0-1-0.4-1-1v-24c0-1.5-1.5-4-5.2-4c-3.4,0-5,1.6-5,5.4c0,3.4,2.4,4.5,3.5,4.5c0.6,0,1,0.4,1,1
			s-0.5,1-1,1c-2.2,0-5.5-2.1-5.5-6.5c0-6.1,3.9-7.4,7-7.4c5.2,0,7.2,3.7,7.2,6v24C38,61.2,37.6,61.6,37,61.6z"/>
	</g>
	<g>
		<path class="st1" d="M45,61.6c-0.6,0-1-0.4-1-1v-37c0-2.3,1.8-6,6.9-6c3.1,0,6.8,1.3,6.8,7.4c0,4.4-3.3,6.5-5.5,6.5
			c-0.6,0-1-0.4-1-1s0.4-1,1-1c1.1,0,3.5-1.1,3.5-4.5c0-3.8-1.3-5.4-4.8-5.4c-3.7,0-4.9,2.4-4.9,4v37C46,61.2,45.6,61.6,45,61.6z"/>
	</g>
	<g>
		<path class="st1" d="M53,61.6c-0.6,0-1-0.4-1-1v-16c0-2.3,1.8-6,6.9-6c3.1,0,6.8,1.3,6.8,7.4c0,4.4-3.3,6.5-5.5,6.5
			c-0.6,0-1-0.4-1-1s0.4-1,1-1c1.1,0,3.5-1.1,3.5-4.5c0-3.8-1.3-5.4-4.8-5.4c-3.7,0-4.9,2.4-4.9,4v16C54,61.2,53.6,61.6,53,61.6z"/>
	</g>
	<path class="st1" d="M53.7,72.6h4v-8h-26v8h4v8.1l2,2v-4.1h6c0.6,0,1-0.4,1-1s-0.4-1-1-1h-6v-6h-4v-4h22v4h-4v12.1l2-2V72.6z"/>
</g>
<g>
	<path d="M30,100.4v2.1h2.9v1.2H30v3.1h-1.5v-7.6h4.7v1.2H30z"/>
	<path d="M38.7,99.2h1.5v4.6c0,1-0.2,1.7-0.7,2.3c-0.5,0.6-1.2,0.9-2.4,0.9c-1.1,0-1.9-0.3-2.4-0.9c-0.5-0.6-0.7-1.3-0.7-2.3v-4.6
		h1.5v4.7c0,0.7,0.1,1,0.3,1.2c0.3,0.3,0.6,0.5,1.2,0.5c0.6,0,1-0.2,1.2-0.5c0.2-0.3,0.3-0.6,0.3-1.2V99.2z"/>
	<path d="M48.5,106.8l-0.1-5.7l-1.9,5.7h-1.3l-1.9-5.7l-0.1,5.7h-1.4l0.3-7.6H44l1.9,5.8l1.9-5.8h2l0.3,7.6H48.5z"/>
	<path d="M51.6,106.8v-7.6h4.9v1.2h-3.4v1.8h3.1v1.2h-3.1v2.2h3.5v1.2H51.6z"/>
	<path d="M60.2,107c-1,0-2.1-0.4-2.8-1.1l0.8-1.1c0.3,0.3,1.2,0.9,2.1,0.9c0.9,0,1.4-0.4,1.4-0.9c0-0.6-0.6-0.8-0.9-0.9
		s-1.3-0.5-1.5-0.6c-0.8-0.3-1.5-0.9-1.5-2c0-1,0.7-2.2,2.7-2.2c1.3,0,2.2,0.6,2.6,1l-0.6,1c-0.4-0.4-1.2-0.8-2-0.8
		c-0.8,0-1.2,0.3-1.2,0.9c0,0.6,0.6,0.8,0.8,0.9c0.3,0.1,1.2,0.5,1.5,0.5c1.1,0.4,1.6,1.2,1.6,2C63,105.7,62.3,107,60.2,107z"/>
</g>
</svg>
