<?xml version="1.0" encoding="utf-8"?>
<!-- Generator: Adobe Illustrator 22.1.0, SVG Export Plug-In . SVG Version: 6.00 Build 0)  -->
<svg version="1.1" id="Layer_1" xmlns="http://www.w3.org/2000/svg" xmlns:xlink="http://www.w3.org/1999/xlink" x="0px" y="0px"
	 viewBox="0 0 90 110" style="enable-background:new 0 0 90 110;" xml:space="preserve">
<style type="text/css">
	.st0{fill:#EC0800;}
	.st1{fill:#FFFFFF;}
</style>
<g>
	
		<rect x="14.1" y="16" transform="matrix(0.7071 -0.7071 0.7071 0.7071 -19.8223 45.1787)" class="st0" width="61.1" height="61.1"/>
	<path class="st1" d="M62.9,24.3c-0.5-0.2-1.1-0.2-1.6-0.1c0.1-0.7-0.1-1.4-0.4-2c-0.5-0.8-1.2-1.4-2.1-1.7
		c-0.9-0.3-1.8-0.2-2.7,0.3c-0.6,0.3-1.1,0.8-1.4,1.4c-0.4-0.4-0.9-0.6-1.4-0.8c-0.9-0.3-1.8-0.2-2.7,0.3c-0.7,0.4-1.3,1-1.6,1.8
		c-0.4-0.3-0.8-0.6-1.4-0.8c-0.9-0.3-1.8-0.2-2.6,0.3c-0.8,0.4-1.4,1.2-1.7,2.1l-2.6,9l1,3.6l3.5-12.1c0.2-0.8,1-1.2,1.8-1
		c0.4,0.1,0.7,0.4,0.9,0.7c0.2,0.4,0.2,0.8,0.1,1.1l-1.6,5.7v0.1c-0.2,0.5,0.2,1.1,0.7,1.2c0.5,0.1,1.1-0.2,1.2-0.7l2.5-8.5
		c0.2-0.8,1.1-1.2,1.9-1c0.4,0.1,0.7,0.4,0.9,0.7c0.2,0.3,0.2,0.8,0.1,1.1l-2.5,8.5c-0.2,0.5,0.2,1.1,0.7,1.2
		c0.5,0.2,1.1-0.2,1.2-0.7l2.5-8.5l0,0l0.7-2.3c0.1-0.4,0.4-0.7,0.7-0.9c0.4-0.2,0.8-0.2,1.1-0.1c0.4,0.1,0.7,0.4,0.9,0.7
		c0.2,0.4,0.2,0.8,0.1,1.1l-0.7,2.3l0,0l-2.5,8.5c-0.2,0.5,0.2,1.1,0.7,1.2c0.5,0.2,1.1-0.2,1.2-0.7l2.5-8.5c0.2-0.8,1.1-1.2,1.9-1
		c0.8,0.2,1.3,1.1,1,1.9l-4.9,16.8l-3-5.1c-1.2-2.2-4-2.9-6.2-1.7c-1.1,0.6-1.8,1.6-2.2,2.7c-0.3,1.2-0.2,2.4,0.4,3.5l2.5,4.6
		l-1.7,5.9c-0.2,0.5,0.2,1.1,0.7,1.2c0.1,0,0.2,0,0.3,0c0.4,0,0.8-0.3,1-0.7l1.9-6.6l-2.9-5.4c-0.3-0.6-0.4-1.3-0.2-2
		s0.6-1.2,1.2-1.5c1.3-0.7,2.8-0.3,3.5,0.9l3.9,6.8l-5.7,19.7L50,66.3l0.7,2.3l1.6,0.5c0.1,0,0.2,0,0.3,0c0.2,0,0.3,0,0.5-0.1
		s0.4-0.3,0.5-0.6l11.6-40.2C65.8,26.8,64.8,24.8,62.9,24.3z"/>
	<path class="st1" d="M52.7,71.7L41.8,34.2c-0.3-0.9-0.9-1.6-1.7-2.1c-0.8-0.4-1.7-0.5-2.6-0.3c-0.5,0.1-1,0.4-1.4,0.8
		c-0.3-0.8-0.8-1.4-1.6-1.8s-1.8-0.5-2.7-0.3c-0.5,0.2-1,0.4-1.4,0.8c-0.3-0.6-0.8-1.1-1.4-1.4c-0.8-0.4-1.8-0.5-2.7-0.3
		c-0.9,0.3-1.6,0.9-2.1,1.7c-0.3,0.6-0.5,1.3-0.4,2c-0.5-0.1-1.1-0.1-1.6,0.1c-1.9,0.5-2.9,2.5-2.4,4.3L31,76.3l2.1,2.1L51.9,73
		c0.3-0.1,0.5-0.2,0.6-0.5C52.7,72.2,52.7,71.9,52.7,71.7z M33.2,76.3l-5.7-19.7l3.9-6.8c0.7-1.2,2.2-1.6,3.5-0.9
		c0.6,0.3,1,0.9,1.2,1.5c0.2,0.7,0.1,1.4-0.2,2L33,57.8l1.9,6.6c0.1,0.4,0.5,0.7,1,0.7c0.1,0,0.2,0,0.3,0c0.5-0.2,0.8-0.7,0.7-1.2
		L35.2,58l2.5-4.6c0.6-1.1,0.7-2.3,0.4-3.5s-1.1-2.2-2.2-2.7c-2.2-1.2-5-0.5-6.2,1.7l-3,5.2l-4.9-16.8c-0.2-0.8,0.2-1.6,1-1.9
		c0.1,0,0.3-0.1,0.4-0.1c0.6,0,1.2,0.4,1.4,1.1l2.5,8.5c0.2,0.5,0.7,0.8,1.2,0.7c0.5-0.2,0.8-0.7,0.7-1.2l-2.5-8.5l0,0l-0.7-2.3
		c-0.1-0.4-0.1-0.8,0.1-1.1c0.2-0.4,0.5-0.6,0.9-0.7s0.8-0.1,1.1,0.1s0.6,0.5,0.7,0.9l0.7,2.3l0,0l2.5,8.5c0.2,0.5,0.7,0.8,1.2,0.7
		c0.5-0.2,0.8-0.7,0.7-1.2l-2.5-8.5c-0.1-0.4-0.1-0.8,0.1-1.1c0.2-0.4,0.5-0.6,0.9-0.7c0.8-0.2,1.6,0.2,1.9,1l2.5,8.5
		c0.2,0.5,0.7,0.8,1.2,0.7c0.5-0.2,0.8-0.7,0.7-1.2L36.8,36c-0.1-0.4-0.1-0.8,0.1-1.1c0.2-0.4,0.5-0.6,0.9-0.7
		c0.8-0.2,1.6,0.2,1.8,1l10.6,36.6L33.2,76.3z"/>
</g>
<g>
	<path d="M31.2,106.8l-0.1-0.8c0,0-0.6,0.9-2.3,0.9c-1.8,0-3.4-1.4-3.4-4s1.8-3.9,3.7-3.9s2.8,1.2,2.9,1.3l-0.9,0.9
		c-0.2-0.2-0.7-1-1.9-1c-1.2,0-2.2,0.9-2.2,2.6s0.9,2.6,2.2,2.6s1.7-0.7,1.7-0.7v-1.1h-1.6v-1.1h3v4.1H31.2z"/>
	<path d="M33.8,106.8v-7.6h1.5v6.4h3v1.2H33.8z"/>
	<path d="M42.5,107c-2.3,0-3.7-1.6-3.7-3.9c0-2.3,1.5-3.9,3.7-3.9s3.7,1.6,3.7,3.9C46.2,105.4,44.8,107,42.5,107z M42.5,100.4
		c-1.4,0-2.2,1.1-2.2,2.7c0,1.5,0.8,2.7,2.2,2.7c1.4,0,2.2-1.1,2.2-2.7C44.7,101.5,43.9,100.4,42.5,100.4z"/>
	<path d="M50.7,106.8h-1.7l-2.6-7.6h1.6l1.9,6l1.9-6h1.5L50.7,106.8z"/>
	<path d="M54.2,106.8v-7.6h4.9v1.2h-3.4v1.8h3.1v1.2h-3.1v2.2h3.5v1.2H54.2z"/>
	<path d="M62.8,107c-1,0-2.1-0.4-2.8-1.1l0.8-1.1c0.3,0.3,1.2,0.9,2.1,0.9s1.4-0.4,1.4-0.9c0-0.6-0.6-0.8-0.9-0.9
		c-0.3-0.1-1.3-0.5-1.5-0.6c-0.8-0.3-1.5-0.9-1.5-2c0-1,0.7-2.2,2.7-2.2c1.3,0,2.2,0.6,2.6,1l-0.6,1c-0.4-0.4-1.2-0.8-2-0.8
		c-0.8,0-1.2,0.3-1.2,0.9c0,0.6,0.6,0.8,0.8,0.9c0.3,0.1,1.2,0.5,1.5,0.5c1.1,0.4,1.6,1.2,1.6,2C65.7,105.7,64.9,107,62.8,107z"/>
</g>
</svg>
