<?xml version="1.0" encoding="utf-8"?>
<!-- Generator: Adobe Illustrator 22.1.0, SVG Export Plug-In . SVG Version: 6.00 Build 0)  -->
<svg version="1.1" id="Layer_1" xmlns="http://www.w3.org/2000/svg" xmlns:xlink="http://www.w3.org/1999/xlink" x="0px" y="0px"
	 viewBox="0 0 90 110" style="enable-background:new 0 0 90 110;" xml:space="preserve">
<style type="text/css">
	.st0{fill:#EC0800;}
	.st1{fill:#FFFFFF;}
</style>
<g>
	
		<rect x="14.1" y="16" transform="matrix(0.7071 -0.7071 0.7071 0.7071 -19.8223 45.1787)" class="st0" width="61.1" height="61.1"/>
	<path class="st1" d="M73.6,32.4l-7,7.6l-1.7-1.8l-9.5-10.3l6.8-7l-1.4-1.4L21.2,60.2c-0.3,0.3-0.4,0.8-0.2,1.1
		c0.2,0.3,0.5,0.6,0.9,0.6H22c0.2,0,22-2.9,29.2-3.7c0.5-0.1,0.9-0.5,0.9-1c0-2.3,0.4-4,1.1-6.5c0.2-0.8,0.4-1.7,0.7-2.6
		c0.7-2.8,5.8-7.6,8.4-9.8l3.5,3.8c0.2,0.2,0.5,0.4,0.7,0.4l0,0c0.3,0,0.5-0.2,0.7-0.4l7.7-8.4L73.6,32.4z M52,47.8
		c-0.2,1-0.5,1.8-0.7,2.6c-0.6,2.2-1,3.9-1.1,6.1c-6.2,0.7-19.7,2.4-25.5,3.2l29.4-30.3l7,7.6C58.8,38.9,52.9,44.1,52,47.8z"/>
	<g>
		<path class="st1" d="M68.3,34.5c-0.3,0-0.5-0.1-0.7-0.3l-7.1-7.1c-0.4-0.4-0.4-1,0-1.4s1-0.4,1.4,0l7.1,7.1c0.4,0.4,0.4,1,0,1.4
			C68.9,34.4,68.6,34.5,68.3,34.5z"/>
	</g>
</g>
<g>
	<path d="M7.6,107c-1,0-2.1-0.4-2.8-1.1l0.8-1.1c0.3,0.3,1.2,0.9,2.1,0.9s1.4-0.4,1.4-0.9c0-0.6-0.6-0.8-0.9-0.9s-1.3-0.5-1.5-0.6
		c-0.8-0.3-1.5-0.9-1.5-2c0-1,0.7-2.2,2.7-2.2c1.3,0,2.2,0.6,2.6,1l-0.6,1c-0.4-0.4-1.2-0.8-2-0.8c-0.8,0-1.2,0.3-1.2,0.9
		c0,0.6,0.6,0.8,0.8,0.9c0.3,0.1,1.2,0.5,1.5,0.5c1.1,0.4,1.6,1.2,1.6,2C10.4,105.7,9.7,107,7.6,107z"/>
	<path d="M16.6,106.8v-3.4h-3.3v3.4h-1.5v-7.6h1.5v3h3.3v-3h1.5v7.6H16.6z"/>
	<path d="M24.5,106.8l-0.6-1.7h-3l-0.6,1.7h-1.5l2.7-7.6h1.8l2.7,7.6H24.5z M22.5,100.6l-1.1,3.4h2.2L22.5,100.6z"/>
	<path d="M31.2,106.8l-1.8-3h-0.9v3H27v-7.6h2.7c0.8,0,1.5,0.2,1.9,0.5c0.5,0.4,0.8,1,0.8,1.8c0,1.1-0.6,1.8-1.6,2.1l2,3.2H31.2z
		 M30.5,100.6c-0.3-0.2-0.6-0.3-1-0.3h-1.1v2.4h1.1c0.4,0,0.7-0.1,1-0.3c0.3-0.2,0.5-0.5,0.5-0.9C31,101.1,30.8,100.8,30.5,100.6z"
		/>
	<path d="M38.5,103.6c-0.5,0.4-1.4,0.6-2,0.6h-1.1v2.7h-1.5v-7.6h2.6c0.7,0,1.5,0.2,2,0.6c0.5,0.4,0.8,1,0.8,1.9
		C39.3,102.6,39.1,103.2,38.5,103.6z M37.4,100.6c-0.3-0.2-0.6-0.3-1.1-0.3h-0.8v2.6h0.8c0.5,0,0.8,0,1.1-0.3
		c0.3-0.2,0.5-0.5,0.5-1.1C37.8,101.2,37.7,100.9,37.4,100.6z"/>
	<path d="M46,107c-2.3,0-3.7-1.6-3.7-3.9c0-2.3,1.5-3.9,3.7-3.9c2.3,0,3.7,1.6,3.7,3.9C49.7,105.4,48.3,107,46,107z M46,100.4
		c-1.4,0-2.2,1.1-2.2,2.7c0,1.5,0.8,2.7,2.2,2.7c1.4,0,2.2-1.1,2.2-2.7C48.2,101.5,47.4,100.4,46,100.4z"/>
	<path d="M55.9,106.4c-0.5,0.3-1.2,0.5-2.1,0.5H51v-7.6h2.6c0.7,0,1.4,0.1,1.9,0.4c0.5,0.3,0.8,0.8,0.8,1.5c0,0.8-0.5,1.4-1.3,1.6v0
		c1.1,0.2,1.8,0.9,1.8,1.9C56.8,105.5,56.4,106,55.9,106.4z M54.4,100.5c-0.2-0.1-0.5-0.2-0.9-0.2h-1v2h1c0.3,0,0.7-0.1,0.9-0.2
		c0.2-0.2,0.4-0.4,0.4-0.8C54.8,100.9,54.6,100.7,54.4,100.5z M54.8,103.6c-0.2-0.1-0.6-0.2-1-0.2h-1.2v2.3h1.2c0.4,0,0.8-0.1,1-0.2
		c0.3-0.2,0.5-0.5,0.5-0.9C55.2,104.1,55,103.8,54.8,103.6z"/>
	<path d="M59.6,106.7c0,0.8-0.2,1.3-0.5,1.6c-0.3,0.3-0.8,0.6-1.5,0.6c-0.7,0-1.1-0.2-1.1-0.2l0.2-1.1c0,0,0.3,0.1,0.7,0.1
		s0.7-0.3,0.7-1v-7.6h1.5V106.7z"/>
	<path d="M61.3,106.8v-7.6h4.9v1.2h-3.4v1.8h3.1v1.2h-3.1v2.2h3.5v1.2H61.3z"/>
	<path d="M72.8,101.4c0,0-0.6-1-1.9-1c-1.3,0-2.2,1-2.2,2.6s0.9,2.6,2.2,2.6c1.3,0,2-1,2-1l0.8,1c0,0-0.8,1.4-2.9,1.4
		c-2.1,0-3.6-1.4-3.6-3.9c0-2.5,1.8-3.9,3.7-3.9s2.7,1.3,2.8,1.4L72.8,101.4z"/>
	<path d="M77.9,100.4v6.4h-1.5v-6.4h-2.2v-1.2H80v1.2H77.9z"/>
	<path d="M83.2,107c-1,0-2.1-0.4-2.8-1.1l0.8-1.1c0.3,0.3,1.2,0.9,2.1,0.9s1.4-0.4,1.4-0.9c0-0.6-0.6-0.8-0.9-0.9
		c-0.3-0.1-1.3-0.5-1.5-0.6c-0.8-0.3-1.5-0.9-1.5-2c0-1,0.7-2.2,2.7-2.2c1.3,0,2.2,0.6,2.6,1l-0.6,1c-0.4-0.4-1.2-0.8-2-0.8
		c-0.8,0-1.2,0.3-1.2,0.9c0,0.6,0.6,0.8,0.8,0.9c0.3,0.1,1.2,0.5,1.5,0.5c1.1,0.4,1.6,1.2,1.6,2C86.1,105.7,85.3,107,83.2,107z"/>
</g>
</svg>
