<?xml version="1.0" encoding="utf-8"?>
<!-- Generator: Adobe Illustrator 19.0.0, SVG Export Plug-In . SVG Version: 6.00 Build 0)  -->
<svg version="1.1" id="Layer_1" xmlns="http://www.w3.org/2000/svg" xmlns:xlink="http://www.w3.org/1999/xlink" x="0px" y="0px"
	 viewBox="-279 -5 90 110" style="enable-background:new -279 -5 90 110;" xml:space="preserve">
<style type="text/css">
	.st0{fill:#EC0800;}
	.st1{fill:#FFFFFF;}
</style>
<g>
	<path d="M-255.6,94h1.4v3.2h3.2V94h1.4v7.8h-1.4v-3.5h-3.2v3.5h-1.4V94z"/>
	<path d="M-247.7,94h4.7v1.2h-3.3v2h2.8v1.2h-2.8v2.3h3.5v1.2h-4.8V94z"/>
	<path d="M-237.6,99.7h-2.6l-0.6,2.1h-1.4l2.6-7.8h1.6l2.6,7.8h-1.5L-237.6,99.7z M-237.9,98.6l-0.3-1c-0.1-0.4-0.3-0.8-0.4-1.3
		c-0.1-0.4-0.2-0.9-0.3-1.3h0c-0.1,0.4-0.2,0.9-0.3,1.3c-0.1,0.4-0.2,0.9-0.4,1.3l-0.3,1H-237.9z"/>
	<path d="M-233.4,95.2h-2.3V94h5.9v1.2h-2.3v6.7h-1.4V95.2z"/>
	<path d="M-228.5,94h1.4v7.8h-1.4V94z"/>
	<path d="M-225.1,94h1.4l2.4,4.4l0.8,1.7h0c0-0.4-0.1-0.8-0.1-1.3c0-0.5-0.1-0.9-0.1-1.4V94h1.3v7.8h-1.4l-2.4-4.4l-0.8-1.7h0
		c0,0.4,0.1,0.9,0.1,1.3c0,0.5,0.1,0.9,0.1,1.3v3.4h-1.3V94z"/>
	<path d="M-217.6,98c0-0.6,0.1-1.2,0.3-1.7c0.2-0.5,0.5-0.9,0.8-1.3c0.3-0.4,0.7-0.6,1.2-0.8c0.5-0.2,0.9-0.3,1.5-0.3
		c0.3,0,0.5,0,0.8,0.1c0.2,0.1,0.4,0.1,0.6,0.2s0.4,0.2,0.5,0.3c0.2,0.1,0.3,0.2,0.4,0.4l-0.8,0.9c-0.2-0.2-0.4-0.3-0.7-0.5
		s-0.5-0.2-0.9-0.2c-0.4,0-0.7,0.1-1,0.2c-0.3,0.1-0.5,0.3-0.7,0.6c-0.2,0.2-0.4,0.5-0.5,0.9c-0.1,0.4-0.2,0.7-0.2,1.2
		c0,0.9,0.2,1.6,0.6,2.1c0.4,0.5,1,0.8,1.8,0.8c0.2,0,0.4,0,0.6-0.1c0.2-0.1,0.4-0.1,0.5-0.3v-1.7h-1.5v-1.1h2.7v3.5
		c-0.3,0.3-0.6,0.5-1.1,0.7c-0.4,0.2-0.9,0.3-1.5,0.3c-0.5,0-1-0.1-1.5-0.3s-0.8-0.4-1.2-0.8s-0.6-0.8-0.8-1.3S-217.6,98.6-217.6,98
		z"/>
</g>
<g>
	
		<rect x="-264.7" y="11" transform="matrix(0.7071 -0.7071 0.7071 0.7071 -97.9736 -153.3951)" class="st0" width="61.1" height="61.1"/>
	<g>
		<path class="st1" d="M-233.3,50c-8,0-14.6-6.5-14.6-14.6c0-0.1,0-0.2,0-0.4l0-0.1l0-0.1c0-5.2,2.2-12.7,7-16.8l1.7-1.4l-0.1,2.2
			c0,0.9,0.5,1.5,1,1.7c0.2,0.1,0.5,0.1,0.6,0c0.2-0.2,0.4-1.3-0.7-3.4c-2.2-4.3-0.4-7.2,0.5-8.2c1.3-1.6,3.3-2.3,4.8-1.9l1.1,0.3
			l-0.5,1c-1.1,2.4,0.8,4.5,4.3,8c4.3,4.3,9.7,9.7,9.4,18.9C-218.7,43.5-225.3,50-233.3,50z M-245.8,34.8l0,0.1l0,0.3
			c0,0.1,0,0.1,0,0.2c0,6.9,6,12.6,12.9,12.6s12.9-5.6,12.9-12.6v0c0-8.3-5.1-13.3-9.1-17.4c-3-3-5.8-5.7-5.3-8.8
			c-0.5,0.2-1.2,0.6-1.7,1.2c-0.6,0.7-1.9,2.8-0.3,6c1.7,3.3,1.1,4.9,0.4,5.7c-0.7,0.7-1.8,0.9-2.8,0.5c-0.7-0.3-1.4-0.9-1.8-1.7
			C-244.4,24.9-245.8,31.2-245.8,34.8z M-233.5,44.5c-3.3,0-6-2.7-6-6c-0.1-1.8,0.9-3.4,1.8-4.9c1-1.6,1.9-3.2,1.6-4.9l-0.5-2.4
			l2,1.3c2.9,1.9,7.4,6.5,7.1,10.9C-227.5,41.8-230.2,44.5-233.5,44.5z M-234.1,30.6c-0.3,1.5-1.1,2.9-1.9,4.1
			c-0.8,1.3-1.6,2.6-1.5,3.8c0,2.2,1.8,4,4,4s4-1.8,4-4C-229.3,35.8-231.8,32.6-234.1,30.6z"/>
	</g>
	<path class="st1" d="M-241.7,77.2l2,2V69.1h11.2V79l2-2v-8.1h2.4v-15h-20v15h2.4V77.2z M-242,66.9v-11h16v11H-242z"/>
</g>
</svg>
