<?xml version="1.0" encoding="utf-8"?>
<!-- Generator: Adobe Illustrator 22.1.0, SVG Export Plug-In . SVG Version: 6.00 Build 0)  -->
<svg version="1.1" xmlns="http://www.w3.org/2000/svg" xmlns:xlink="http://www.w3.org/1999/xlink" x="0px" y="0px"
	 viewBox="0 0 90 110" style="enable-background:new 0 0 90 110;" xml:space="preserve">
<style type="text/css">
	.st0{fill:#EC0800;}
	.st1{enable-background:new    ;}
	.st2{fill:#FFFFFF;}
</style>
<g id="Layer_1">
	<g id="Layer_1_1_">
		
			<rect x="14.8" y="16.2" transform="matrix(0.7071 -0.7071 0.7071 0.7071 -19.7717 45.7531)" class="st0" width="61.1" height="61.1"/>
		<g class="st1">
			<path d="M14.4,107c-1,0-2.1-0.4-2.8-1.1l0.8-1.1c0.3,0.3,1.2,0.9,2.1,0.9s1.4-0.4,1.4-0.9c0-0.6-0.6-0.8-0.9-0.9
				c-0.3-0.1-1.3-0.5-1.5-0.6c-0.8-0.3-1.5-0.9-1.5-2c0-1,0.7-2.2,2.7-2.2c1.3,0,2.2,0.6,2.6,1l-0.6,1c-0.4-0.4-1.2-0.8-2-0.8
				s-1.2,0.3-1.2,0.9s0.6,0.8,0.8,0.9c0.3,0.1,1.2,0.5,1.5,0.5c1.1,0.4,1.6,1.2,1.6,2C17.3,105.7,16.5,107,14.4,107z"/>
			<path d="M18.5,106.9v-7.6H20v6.4h3v1.2H18.5z"/>
			<path d="M24.1,106.9v-7.6h1.5v7.6H24.1z"/>
			<path d="M32,103.6c-0.5,0.4-1.4,0.6-2,0.6h-1.1v2.7h-1.5v-7.6H30c0.7,0,1.5,0.2,2,0.6s0.8,1,0.8,1.9
				C32.8,102.6,32.5,103.2,32,103.6z M30.8,100.7c-0.3-0.2-0.6-0.3-1.1-0.3h-0.8v2.6h0.8c0.5,0,0.8,0,1.1-0.3
				c0.3-0.2,0.5-0.5,0.5-1.1C31.3,101.2,31.1,100.9,30.8,100.7z"/>
			<path d="M41,106.9v-3.4h-3.3v3.4h-1.5v-7.6h1.5v3H41v-3h1.5v7.6H41z"/>
			<path d="M48.9,106.9l-0.6-1.7h-3l-0.6,1.7h-1.5l2.7-7.6h1.8l2.7,7.6H48.9z M46.8,100.7l-1.1,3.4H48L46.8,100.7z"/>
			<path d="M50.8,106.9v-1l4-5.4h-3.9v-1.2h5.7v1.1l-4,5.3h4.1v1.2H50.8z"/>
			<path d="M62.7,106.9l-0.6-1.7h-3l-0.6,1.7H57l2.7-7.6h1.8l2.7,7.6H62.7z M60.6,100.7l-1.1,3.4h2.2L60.6,100.7z"/>
			<path d="M69.3,106.9l-1.8-3h-0.9v3h-1.5v-7.6h2.7c0.8,0,1.5,0.2,1.9,0.5c0.5,0.4,0.8,1,0.8,1.8c0,1.1-0.6,1.8-1.6,2.1l2,3.2H69.3
				z M68.6,100.7c-0.3-0.2-0.6-0.3-1-0.3h-1.1v2.4h1.1c0.4,0,0.7-0.1,1-0.3s0.5-0.5,0.5-0.9C69.1,101.2,68.9,100.8,68.6,100.7z"/>
			<path d="M77.5,106c-0.7,0.6-1.5,0.9-2.7,0.9h-2.6v-7.6h2.6c1.2,0,2.1,0.3,2.7,0.9c0.7,0.6,1.2,1.6,1.2,2.9
				C78.6,104.4,78.1,105.4,77.5,106z M76.4,101.1c-0.4-0.4-1-0.6-1.7-0.6h-1.1v5.2h1.1c0.7,0,1.3-0.2,1.7-0.6c0.4-0.4,0.7-1.1,0.7-2
				S76.8,101.5,76.4,101.1z"/>
		</g>
	</g>
</g>
<g id="Layer_2">
	<g>
		<path class="st2" d="M35,32c3.3,0,6-2.7,6-6s-2.7-6-6-6s-6,2.7-6,6S31.7,32,35,32z M35,22.5c2,0,3.5,1.6,3.5,3.5S37,29.6,35,29.6
			S31.5,28,31.5,26S33,22.5,35,22.5z"/>
		<path class="st2" d="M67.8,54.8l-9.7-10.5l-13.6,5.3L40,37l7.4-2.7l4.3-15c0.2-0.7-0.2-1.3-0.8-1.5c-0.7-0.2-1.3,0.2-1.5,0.8
			l-3.9,13.8l-15.1,5.4l-7.4,14.5c-0.3,0.6-0.1,1.3,0.5,1.7c0.2,0.1,0.4,0.1,0.6,0.1c0.4,0,0.9-0.2,1.1-0.7l7-13.7l5.7-2l5,14
			c0,0.3,0.1,0.6,0.3,0.8l0,0.1l0,0c0.1,0.1,0.1,0.1,0.1,0.2l20.5,14.2c0.2,0.1,0.5,0.2,0.7,0.2c0.4,0,0.8-0.2,1-0.5
			c0.4-0.6,0.2-1.3-0.3-1.7L45.7,51.7l11.7-4.6l8.6,9.3c0.2,0.3,0.6,0.4,0.9,0.4c0.3,0,0.6-0.1,0.8-0.3
			C68.3,56.1,68.3,55.3,67.8,54.8z"/>
		<path class="st2" d="M44.5,61.2c0-0.7-0.6-1.2-1.2-1.2H26.5c-0.7,0-1.2,0.6-1.2,1.2s0.6,1.2,1.2,1.2h16.8
			C44,62.4,44.5,61.9,44.5,61.2z"/>
		<path class="st2" d="M51.4,66.5H34.6c-0.7,0-1.2,0.6-1.2,1.2s0.6,1.2,1.2,1.2h16.8c0.7,0,1.2-0.6,1.2-1.2S52.1,66.5,51.4,66.5z"/>
	</g>
</g>
</svg>
