<?xml version="1.0" encoding="utf-8"?>
<!-- Generator: Adobe Illustrator 19.0.0, SVG Export Plug-In . SVG Version: 6.00 Build 0)  -->
<svg version="1.1" id="Layer_1" xmlns="http://www.w3.org/2000/svg" xmlns:xlink="http://www.w3.org/1999/xlink" x="0px" y="0px"
	 viewBox="-39 36 70 80" style="enable-background:new -39 36 70 80;" xml:space="preserve">
<style type="text/css">
	.st0{fill:#FFFFFF;}
</style>
<g>
	<path class="st0" d="M24.6,84.7L19.5,82l0.6-23.7c0.7-0.7,1.2-1.4,1.7-2.3c2.3-4.3,1.1-9.4-2.5-12.4l2-3.7c0.5-1,0.1-2.2-0.8-2.7
		c-1-0.5-2.2-0.1-2.7,0.8l-2,3.7c-4.5-1.3-9.4,0.6-11.7,4.9c-0.5,0.9-0.8,1.8-1,2.7L-16.1,63l-5.1-2.7c-1-0.5-2.2-0.1-2.7,0.8
		c-0.5,1-0.1,2.2,0.8,2.7l3.3,1.8l-13.8,9.8c-0.5,0.4-0.8,0.9-0.8,1.5c0,0.6,0.2,1.2,0.7,1.6c0.3,0.3,0.6,0.5,1,0.8l-1.6,1.2
		c-0.9,0.7-1.1,1.9-0.4,2.8c0.4,0.5,1,0.8,1.6,0.8c0.4,0,0.8-0.1,1.2-0.4l2.9-2.2c0.1-0.1,0.2-0.2,0.3-0.3c3.5,0.9,7.2,0.4,10.4-1.8
		l10.5-7.5l6,3.2l-0.9,1.8c-0.5,1-0.1,2.2,0.8,2.7c1,0.5,2.2,0.1,2.7-0.8L1.6,77l6,3.2L7.2,93c-0.1,4.1,1.9,7.8,5,10.1
		c0,0.1,0,0.2,0,0.3l-0.2,3.6c-0.1,1.1,0.8,2,1.9,2.1h0.1c1.1,0,1.9-0.8,2-1.9l0.1-2.2c0.1,0,0.3,0.1,0.4,0.1c0.2,0,0.3,0.1,0.5,0.1
		c0.4,0,0.9-0.1,1.2-0.4c0.5-0.4,0.8-0.9,0.8-1.6l0.4-16.8l3.3,1.8c1,0.5,2.2,0.1,2.7-0.8C26,86.4,25.5,85.2,24.6,84.7z M-8.9,67.6
		c-0.3,0.1-0.6,0.3-0.9,0.6l-11,7.8c-2.4,1.7-5.5,2-8.1,0.8L3.3,54c0.4,1.3,1,2.5,1.8,3.6L-8.9,67.6z M7.7,75.7l-4.2-2.3l0.9-1.8
		c0.5-1,0.1-2.2-0.8-2.7c-1-0.5-2.2-0.1-2.7,0.8l-0.9,1.8l-4.2-2.2l12.4-8.8L7.7,75.7z M15.4,82.5c-0.1,0.3-0.1,0.7,0,1l-0.4,16.7
		c-2.4-1.5-3.9-4.2-3.9-7.2l0.8-31.8c1.3,0.1,2.6,0,3.8-0.4c0.1,0,0.1,0,0.2-0.1L15.4,82.5z M18.2,54.1c-0.3,0.5-0.7,1-1.1,1.5
		c-0.2,0.1-0.4,0.3-0.6,0.5c-0.5,0.4-1.2,0.7-1.8,0.9c-1.2,0.4-2.4,0.4-3.6,0c-0.2-0.1-0.4-0.2-0.6-0.2c-0.1-0.1-0.3-0.1-0.4-0.2
		c-0.2-0.1-0.3-0.2-0.4-0.2c-0.2-0.2-0.4-0.3-0.6-0.4c-0.9-0.7-1.6-1.8-2-2.9c-0.2-0.7-0.3-1.4-0.3-2c0.1-0.3,0.1-0.5,0.1-0.8
		c0.1-0.6,0.3-1.2,0.6-1.7c1.6-2.9,5.2-4,8.1-2.5l0,0C18.6,47.5,19.8,51.2,18.2,54.1z"/>
	<path class="st0" d="M-26.9,96.9c-0.7-0.8-2-0.9-2.8-0.1c-0.8,0.7-0.9,2-0.1,2.8c0.9,1,1.9,2,3,3c0.4,0.3,0.9,0.5,1.3,0.5
		c0.5,0,1.1-0.2,1.5-0.7c0.7-0.8,0.7-2.1-0.2-2.8C-25,98.7-26,97.8-26.9,96.9z"/>
	<path class="st0" d="M-33.2,87.5c-0.5-1-1.6-1.4-2.7-1c-1,0.5-1.4,1.7-1,2.7c0.6,1.3,1.2,2.5,2,3.7c0.4,0.6,1,1,1.7,1
		c0.3,0,0.7-0.1,1-0.3c1-0.6,1.3-1.8,0.7-2.7C-32,89.7-32.5,88.6-33.2,87.5z"/>
	<path class="st0" d="M-14.6,105.8c-1.1-0.5-2.3-1.1-3.4-1.7c-1-0.6-2.2-0.2-2.7,0.7c-0.6,1-0.2,2.2,0.7,2.7
		c1.2,0.7,2.5,1.3,3.7,1.9c0.3,0.1,0.5,0.2,0.8,0.2c0.8,0,1.5-0.4,1.8-1.2C-13.1,107.4-13.6,106.2-14.6,105.8z"/>
	<path class="st0" d="M-3.8,108.8c-1.3-0.1-2.5-0.4-3.7-0.6c-1.1-0.2-2.1,0.4-2.4,1.5c-0.2,1.1,0.4,2.1,1.5,2.4
		c1.4,0.3,2.8,0.5,4.1,0.7c0.1,0,0.2,0,0.2,0c1,0,1.9-0.8,2-1.8C-1.9,109.9-2.7,108.9-3.8,108.8z"/>
	<path class="st0" d="M7.7,108.4c-1.2,0.2-2.5,0.4-3.8,0.5C2.8,109,2,110,2.1,111.1c0.1,1,1,1.8,2,1.8c0.1,0,0.1,0,0.2,0
		c1.4-0.1,2.8-0.3,4.2-0.6c1.1-0.2,1.8-1.3,1.6-2.3C9.8,108.9,8.6,108.1,7.7,108.4z"/>
</g>
</svg>
