<?xml version="1.0" encoding="utf-8"?>
<!-- Generator: Adobe Illustrator 19.0.0, SVG Export Plug-In . SVG Version: 6.00 Build 0)  -->
<svg version="1.1" id="Layer_1" xmlns="http://www.w3.org/2000/svg" xmlns:xlink="http://www.w3.org/1999/xlink" x="0px" y="0px"
	 viewBox="-39 36 70 80" style="enable-background:new -39 36 70 80;" xml:space="preserve">
<style type="text/css">
	.st0{fill:#FFFFFF;}
	.st1{fill:none;}
	.st2{fill:none;stroke:#FFFFFF;stroke-width:5.738;stroke-linecap:round;stroke-linejoin:round;stroke-miterlimit:10;}
</style>
<path class="st0" d="M-23.5,72.1c0.8,0,1.2-0.4,1.4-1l0.6-1.8h5.3l0.6,1.8c0.2,0.6,0.6,1,1.4,1c0.7,0,1.3-0.5,1.3-1.2
	c0-0.1,0-0.4-0.2-0.7l-3.7-10.3c-0.3-0.9-1-1.6-2-1.6s-1.7,0.7-2,1.6l-3.8,10.3c0,0.1-0.1,0.3-0.1,0.6
	C-24.9,71.5-24.2,72.1-23.5,72.1z M-18.9,61.2L-18.9,61.2l1.8,5.5h-3.6L-18.9,61.2z"/>
<g>
	<path class="st0" d="M-3.6,75.8h-19.5c-1.1,0-1.9,0.8-1.9,1.9c0,1.1,0.8,1.9,1.9,1.9h19.9c-0.3-1-0.4-2.1-0.4-3.2
		C-3.6,76.2-3.6,76-3.6,75.8z"/>
	<path class="st0" d="M-0.8,84.1H-23c-1.1,0-1.9,0.8-1.9,1.9c0,1.1,0.8,1.9,1.9,1.9H3.9c0.3,0,0.5,0,0.7-0.1
		C2.4,87,0.6,85.8-0.8,84.1z"/>
	<path class="st0" d="M-6,92.4h-17c-1.1,0-1.9,0.8-1.9,1.9c0,1.1,0.8,1.9,1.9,1.9h17c1.1,0,1.9-0.8,1.9-1.9
		C-4.1,93.2-4.9,92.4-6,92.4z"/>
	<path class="st0" d="M0.3,67.6h-9c-1.1,0-1.9,0.8-1.9,1.9c0,1.1,0.8,1.9,1.9,1.9h6.2C-1.8,69.9-0.8,68.6,0.3,67.6z"/>
	<g>
		<path class="st1" d="M8.6,50.8h-34.9c-0.9,0-3.8,0.3-3.8,3.8v45c0,0.9,0.3,3.8,3.8,3.8H8.6c0.9,0,3.8-0.3,3.8-3.8v-12
			c-1.3,0.5-2.6,0.7-4.1,0.7c-1.3,0-2.6-0.2-3.8-0.6c-2.1-0.7-4-2-5.4-3.6c-1.1-1.3-1.9-2.8-2.4-4.5c-0.3-1-0.4-2.1-0.4-3.2
			c0-0.2,0-0.4,0-0.6c0.1-1.6,0.5-3.1,1.1-4.5c0.7-1.4,1.6-2.7,2.8-3.8c2.1-1.9,4.9-3.1,8-3.1c1.4,0,2.8,0.3,4.1,0.7V54.6
			C12.4,53.8,12.1,50.8,8.6,50.8z"/>
		<path class="st0" d="M12.4,99.6c0,3.5-2.9,3.8-3.8,3.8h-34.9c-3.5,0-3.8-2.9-3.8-3.8v-45c0-3.5,2.9-3.8,3.8-3.8H8.6
			c3.5,0,3.8,2.9,3.8,3.8v10.6c1.4,0.5,2.7,1.3,3.8,2.3V54.6c0-3.1-2-7.7-7.7-7.7h-34.9c-3.1,0-7.7,2-7.7,7.7v45
			c0,3.1,2,7.7,7.7,7.7h35c3.1,0,7.7-2,7.7-7.7V85.3c-1.1,1-2.4,1.8-3.8,2.3v12H12.4z"/>
	</g>
</g>
<path class="st0" d="M27.1,95.2c-0.4,0-0.9-0.2-1.2-0.5l-8.3-8.3c-2.4,2.3-5.7,3.7-9.3,3.7C0.8,90.1-5.3,84-5.3,76.5
	S0.8,62.9,8.3,62.9S21.9,69,21.9,76.5c0,2.7-0.8,5.2-2.2,7.4l8.5,8.5c0.7,0.7,0.7,1.7,0,2.4C28,95,27.5,95.2,27.1,95.2z M8.3,66.2
	c-5.6,0-10.2,4.6-10.2,10.2c0,5.6,4.6,10.2,10.2,10.2S18.5,82,18.5,76.4C18.6,70.8,14,66.2,8.3,66.2z"/>
<path class="st0" d="M9.4,81.5H-1.2c-1.6,0-2.9-5.7-1.4-5.7h12c1.6,0,2.9,1.3,2.9,2.9C12.2,80.2,11,81.5,9.4,81.5z"/>
<path class="st2" d="M1.5,68"/>
<path class="st2" d="M9.4,68"/>
</svg>
