<?xml version="1.0" encoding="utf-8"?>
<!-- Generator: Adobe Illustrator 19.0.0, SVG Export Plug-In . SVG Version: 6.00 Build 0)  -->
<svg version="1.1" id="Layer_1" xmlns="http://www.w3.org/2000/svg" xmlns:xlink="http://www.w3.org/1999/xlink" x="0px" y="0px"
	 viewBox="0 0 80 80" style="enable-background:new 0 0 80 80;" xml:space="preserve">
<style type="text/css">
	.st0{fill:#FFFFFF;}
</style>
<g>
	<path class="st0" d="M34.1,26.6h-9.8v9.8c0,1.2-0.8,2-2,2c-1.2,0-2-0.8-2-2v-9.8h-9.8c-1.2,0-2-0.8-2-2c0-1.2,0.8-2,2-2h9.8v-9.8
		c0-1.2,0.8-2,2-2c1.2,0,2,0.8,2,2v9.8h9.8c1.2,0,2,0.8,2,2C36,25.8,35.2,26.6,34.1,26.6L34.1,26.6z"/>
	<path class="st0" d="M70.1,26.7H46.4c-1.2,0-2-0.8-2-2c0-1.2,0.8-2,2-2h23.6c1.2,0,2,0.8,2,2C72,25.9,71.2,26.7,70.1,26.7
		L70.1,26.7z"/>
	<path class="st0" d="M57.9,36.8c1.4,0,2.5-1.1,2.5-2.5s-1.1-2.5-2.5-2.5c-1.4,0-2.5,1.1-2.5,2.5S56.6,36.8,57.9,36.8L57.9,36.8z"/>
	<path class="st0" d="M57.9,17.8c1.4,0,2.5-1.1,2.5-2.5s-1.1-2.5-2.5-2.5c-1.4,0-2.5,1.1-2.5,2.5S56.6,17.8,57.9,17.8L57.9,17.8z"/>
	<path class="st0" d="M34.1,58.8H10.4c-1.2,0-2-0.8-2-2c0-1.2,0.8-2,2-2h23.6c1.2,0,2,0.8,2,2C36,58,35.2,58.8,34.1,58.8L34.1,58.8z
		"/>
	<path class="st0" d="M70.4,67c0.8,0.8,0.8,2,0,2.8c-0.4,0.4-0.8,0.6-1.4,0.6c-0.6,0-1-0.2-1.4-0.6L57.2,59.3L46.8,69.8
		c-0.4,0.4-0.8,0.6-1.4,0.6c-0.6,0-1-0.2-1.4-0.6c-0.8-0.8-0.8-2,0-2.8l10.4-10.4L44,46.2c-0.8-0.8-0.8-2,0-2.8c0.8-0.8,2-0.8,2.8,0
		l10.4,10.4l10.4-10.4c0.8-0.8,2-0.8,2.8,0c0.8,0.8,0.8,2,0,2.8L60,56.6L70.4,67L70.4,67z"/>
</g>
</svg>
