<?xml version="1.0" encoding="utf-8"?>
<!-- Generator: Adobe Illustrator 19.0.0, SVG Export Plug-In . SVG Version: 6.00 Build 0)  -->
<svg version="1.1" id="Layer_1" xmlns="http://www.w3.org/2000/svg" xmlns:xlink="http://www.w3.org/1999/xlink" x="0px" y="0px"
	 viewBox="0 0 50 50" style="enable-background:new 0 0 50 50;" xml:space="preserve">
<style type="text/css">
	.st0{fill:#FA6400;}
	.st1{fill:#FFFFFF;}
</style>
<g>
	<g>
		<path id="XMLID_5_" class="st0" d="M25,12.3c6.6,0,12,5.4,12,12s-5.4,12-12,12s-12-5.4-12-12S18.4,12.3,25,12.3"/>
	</g>
</g>
<g>
	<path id="XMLID_4_" class="st1" d="M20.3,21.6c0.2-0.2,0.4-0.3,0.7-0.3s0.5,0.1,0.7,0.3l3.3,3.3l3.3-3.3c0.4-0.4,1-0.4,1.4,0
		s0.4,1,0,1.4l-4,4c-0.4,0.4-1,0.4-1.4,0l-4-4C19.9,22.6,19.9,22,20.3,21.6"/>
</g>
</svg>
