<?xml version="1.0" encoding="utf-8"?>
<!-- Generator: Adobe Illustrator 19.0.0, SVG Export Plug-In . SVG Version: 6.00 Build 0)  -->
<svg version="1.1" id="Layer_1" xmlns="http://www.w3.org/2000/svg" xmlns:xlink="http://www.w3.org/1999/xlink" x="0px" y="0px"
	 viewBox="15 -20 80 80" style="enable-background:new 20 -20 80 80;" xml:space="preserve" width="90" height="90">
<style type="text/css">
	.st0{fill:none;stroke:#FFFFFF;stroke-width:3.5;stroke-linecap:round;stroke-linejoin:round;stroke-miterlimit:10;}
</style>
<g transform="translate(0, 0)">
	<path class="st0" d="M47.2,24.5L31.9,9.3c-1.9-1.9-1.9-4.8,0-6.6l0,0c1.9-1.9,4.8-1.9,6.6,0L53.7,18"/>
	<path class="st0" d="M60.4,11.4L45-4c-1.9-1.9-1.9-4.8,0-6.6l0,0c1.9-1.9,4.8-1.9,6.6,0l11,11"/>
	<path class="st0" d="M53.7,18L36.3,0.4c-1.9-1.9-1.9-4.8,0-6.6l0,0c1.9-1.9,4.8-1.9,6.6,0l17.5,17.5"/>
	<path class="st0" d="M73.5,31.1c-4.8-4.8-4.1-13.5,1-18.6l-4.4-4.4c-3.8-3.8-3.8-9.3,0-13.1L84.3,9.2c9.1,9.1,9.1,23.7,0,32.9
		s-23.7,9.1-32.9,0l0-0.2L28.6,19c-1.9-1.9-1.9-4.8,0-6.6l0,0c1.9-1.9,4.8-1.9,6.6,0l12.1,12.1"/>
</g>
</svg>
