<?xml version="1.0" encoding="utf-8"?>
<!-- Generator: Adobe Illustrator 19.0.0, SVG Export Plug-In . SVG Version: 6.00 Build 0)  -->
<svg version="1.1" id="Layer_1" xmlns="http://www.w3.org/2000/svg" xmlns:xlink="http://www.w3.org/1999/xlink" x="0px" y="0px"
	 viewBox="-279 -5 90 110" style="enable-background:new -279 -5 90 110;" xml:space="preserve">
<style type="text/css">
	.st0{fill:#EC0800;}
	.st1{fill:#FFFFFF;}
</style>
<g>
	<path d="M-255.2,98.1c0-0.6,0.1-1.2,0.3-1.7c0.2-0.5,0.4-0.9,0.8-1.3s0.7-0.6,1.2-0.8s0.9-0.3,1.4-0.3c0.5,0,0.9,0.1,1.3,0.3
		c0.4,0.2,0.7,0.4,0.9,0.7l-0.8,0.9c-0.2-0.2-0.4-0.4-0.6-0.5c-0.2-0.1-0.5-0.2-0.8-0.2c-0.3,0-0.6,0.1-0.9,0.2s-0.5,0.3-0.7,0.6
		c-0.2,0.2-0.3,0.5-0.5,0.9c-0.1,0.4-0.2,0.7-0.2,1.2c0,0.9,0.2,1.6,0.6,2.1c0.4,0.5,0.9,0.8,1.6,0.8c0.4,0,0.7-0.1,0.9-0.2
		c0.3-0.1,0.5-0.3,0.7-0.6l0.8,0.9c-0.3,0.4-0.7,0.7-1.1,0.8c-0.4,0.2-0.9,0.3-1.4,0.3c-0.5,0-1-0.1-1.4-0.3s-0.8-0.4-1.1-0.8
		c-0.3-0.3-0.6-0.8-0.8-1.3S-255.2,98.7-255.2,98.1z"/>
	<path d="M-244.2,99.9h-2.6l-0.6,2.1h-1.4l2.6-7.8h1.6l2.6,7.8h-1.5L-244.2,99.9z M-244.6,98.8l-0.3-1c-0.1-0.4-0.3-0.8-0.4-1.3
		c-0.1-0.4-0.2-0.9-0.3-1.3h0c-0.1,0.4-0.2,0.9-0.3,1.3c-0.1,0.4-0.2,0.9-0.4,1.3l-0.3,1H-244.6z"/>
	<path d="M-241.4,94.2h1.4v4.5c0,0.4,0,0.8,0.1,1.1s0.2,0.5,0.3,0.7c0.1,0.2,0.3,0.3,0.5,0.4s0.4,0.1,0.6,0.1c0.2,0,0.5,0,0.7-0.1
		c0.2-0.1,0.4-0.2,0.5-0.4c0.1-0.2,0.3-0.4,0.3-0.7c0.1-0.3,0.1-0.7,0.1-1.1v-4.5h1.3v4.4c0,0.6-0.1,1.2-0.2,1.6
		c-0.1,0.5-0.3,0.8-0.6,1.1c-0.3,0.3-0.6,0.5-0.9,0.6c-0.4,0.1-0.8,0.2-1.2,0.2s-0.9-0.1-1.2-0.2c-0.4-0.1-0.7-0.3-0.9-0.6
		c-0.3-0.3-0.5-0.7-0.6-1.1s-0.2-1-0.2-1.6V94.2z"/>
	<path d="M-233.3,100c0.3,0.3,0.6,0.5,1,0.6c0.4,0.2,0.7,0.2,1.1,0.2c0.4,0,0.8-0.1,1-0.3c0.2-0.2,0.3-0.4,0.3-0.7
		c0-0.2,0-0.3-0.1-0.4c-0.1-0.1-0.1-0.2-0.3-0.3c-0.1-0.1-0.2-0.2-0.4-0.2s-0.3-0.1-0.5-0.2l-1.1-0.5c-0.2-0.1-0.4-0.2-0.6-0.3
		c-0.2-0.1-0.4-0.3-0.5-0.4c-0.2-0.2-0.3-0.4-0.4-0.6c-0.1-0.2-0.1-0.5-0.1-0.8c0-0.3,0.1-0.6,0.2-0.9c0.1-0.3,0.3-0.5,0.5-0.7
		c0.2-0.2,0.5-0.4,0.8-0.5c0.3-0.1,0.7-0.2,1.1-0.2c0.5,0,0.9,0.1,1.3,0.3c0.4,0.2,0.8,0.4,1.1,0.7l-0.7,0.9
		c-0.3-0.2-0.5-0.4-0.8-0.5c-0.3-0.1-0.6-0.2-0.9-0.2c-0.4,0-0.7,0.1-0.9,0.2c-0.2,0.2-0.3,0.4-0.3,0.7c0,0.2,0,0.3,0.1,0.4
		c0.1,0.1,0.2,0.2,0.3,0.3s0.2,0.2,0.4,0.2c0.2,0.1,0.3,0.1,0.5,0.2l1.1,0.4c0.2,0.1,0.4,0.2,0.6,0.3c0.2,0.1,0.4,0.3,0.5,0.4
		s0.2,0.4,0.3,0.6c0.1,0.2,0.1,0.5,0.1,0.8c0,0.3-0.1,0.6-0.2,0.9s-0.3,0.5-0.6,0.7s-0.5,0.4-0.9,0.5c-0.3,0.1-0.7,0.2-1.2,0.2
		c-0.5,0-1-0.1-1.5-0.3c-0.5-0.2-0.9-0.5-1.3-0.9L-233.3,100z"/>
	<path d="M-225.7,95.3h-2.3v-1.2h5.9v1.2h-2.3v6.7h-1.4V95.3z"/>
	<path d="M-220.8,94.2h1.4v7.8h-1.4V94.2z"/>
	<path d="M-217.8,98.1c0-0.6,0.1-1.2,0.3-1.7c0.2-0.5,0.4-0.9,0.8-1.3s0.7-0.6,1.2-0.8c0.4-0.2,0.9-0.3,1.4-0.3
		c0.5,0,0.9,0.1,1.3,0.3c0.4,0.2,0.7,0.4,0.9,0.7l-0.8,0.9c-0.2-0.2-0.4-0.4-0.6-0.5c-0.2-0.1-0.5-0.2-0.8-0.2
		c-0.3,0-0.6,0.1-0.9,0.2c-0.3,0.1-0.5,0.3-0.7,0.6c-0.2,0.2-0.3,0.5-0.5,0.9c-0.1,0.4-0.2,0.7-0.2,1.2c0,0.9,0.2,1.6,0.6,2.1
		c0.4,0.5,0.9,0.8,1.6,0.8c0.4,0,0.7-0.1,0.9-0.2c0.3-0.1,0.5-0.3,0.7-0.6l0.8,0.9c-0.3,0.4-0.7,0.7-1.1,0.8
		c-0.4,0.2-0.9,0.3-1.4,0.3c-0.5,0-1-0.1-1.4-0.3c-0.4-0.2-0.8-0.4-1.1-0.8s-0.6-0.8-0.8-1.3C-217.7,99.3-217.8,98.7-217.8,98.1z"/>
</g>
<g>
	
		<rect x="-264.2" y="11.2" transform="matrix(0.7071 -0.7071 0.7071 0.7071 -97.9389 -152.978)" class="st0" width="61.1" height="61.1"/>
	<path class="st1" d="M-244.4,54.5c-3.6,0-5.4,1.9-5.4,6c0,3.4,2.2,5.3,4.2,5.3c0.6,0,1-0.4,1-1s-0.4-1-1-1c-0.9,0-2.2-0.9-2.2-3.3
		c0-2.9,0.9-4,3.4-4c3.1,0,3.3,2.2,3.3,2.9v18l2,2v-20C-239.1,57-240.8,54.5-244.4,54.5z"/>
	<path class="st1" d="M-229.2,47.4c2.6,0,3.7,1.2,3.7,4c0,2.6-1.9,3.4-2.6,3.4c-0.6,0-1,0.4-1,1s0.4,1,1,1c1.9,0,4.6-1.9,4.6-5.4
		c0-3.8-2-6-5.7-6c-4,0-5.9,2.8-5.9,4.9v33.2l1.5,1.5l0.5-0.5V50.3C-233.1,49.3-232.2,47.4-229.2,47.4z"/>
	<path class="st1" d="M-227.1,63c0-0.9,1-2.9,4-2.9c2.6,0,3.7,1.2,3.7,4c0,2.9-2.7,3-2.7,3c-0.6,0-1,0.4-1,1s0.4,1,1,1
		c1.8,0,4.7-1.3,4.7-5c0-3.8-2-6-5.7-6c-4.1,0-6,2.9-6,4.9v17.4l2-2V63z"/>
	<path class="st1" d="M-232.6,9.9l-2.8,2.8l-6.2-6.2l-1.4,1.4l2.9,2.9l-4.2,4.2c-0.4,0.4-0.4,1,0,1.4c0.2,0.2,0.5,0.3,0.7,0.3
		s0.5-0.1,0.7-0.3l4.2-4.2l3.2,3.2l2.8-2.8l2.8,2.8l-15.6,15.6l-2.8-2.8l2.8-2.8l-7.6-7.6l-1.4,1.4l6.2,6.2l-2.8,2.8l5.7,5.7
		l18.4-18.4L-232.6,9.9z"/>
	<g>
		<path class="st1" d="M-233.9,43.2c-3.4,0-6.1-2.7-6.1-6.1c0-3,3.5-9.6,6.1-9.6c1.9,0,6.1,6.6,6.1,9.6
			C-227.8,40.5-230.5,43.2-233.9,43.2z M-234,29.5c-1.1,0.4-4,5.1-4,7.6c0,2.3,1.9,4.1,4.1,4.1s4.1-1.9,4.1-4.1
			C-229.8,34.8-233,30.2-234,29.5z"/>
	</g>
</g>
</svg>
