<?xml version="1.0" encoding="utf-8"?>
<!-- Generator: Adobe Illustrator 19.0.0, SVG Export Plug-In . SVG Version: 6.00 Build 0)  -->
<svg version="1.1" id="Layer_1" xmlns="http://www.w3.org/2000/svg" xmlns:xlink="http://www.w3.org/1999/xlink" x="0px" y="0px"
	 viewBox="-279 -5 90 110" style="enable-background:new -279 -5 90 110;" xml:space="preserve">
<style type="text/css">
	.st0{fill:#EC0800;}
	.st1{fill:#FFFFFF;}
</style>
<g>
	<path d="M-257.1,93.8h4.7V95h-3.3v2h2.8v1.2h-2.8v2.3h3.5v1.2h-4.8V93.8z"/>
	<path d="M-250.7,93.8h1.4v6.7h3.3v1.2h-4.7V93.8z"/>
	<path d="M-244.7,93.8h4.7V95h-3.3v2h2.8v1.2h-2.8v2.3h3.5v1.2h-4.8V93.8z"/>
	<path d="M-238.6,97.7c0-0.6,0.1-1.2,0.3-1.7c0.2-0.5,0.4-0.9,0.8-1.3c0.3-0.4,0.7-0.6,1.2-0.8c0.4-0.2,0.9-0.3,1.4-0.3
		c0.5,0,0.9,0.1,1.3,0.3s0.7,0.4,0.9,0.7l-0.8,0.9c-0.2-0.2-0.4-0.4-0.6-0.5c-0.2-0.1-0.5-0.2-0.8-0.2c-0.3,0-0.6,0.1-0.9,0.2
		c-0.3,0.1-0.5,0.3-0.7,0.6c-0.2,0.2-0.3,0.5-0.5,0.9c-0.1,0.4-0.2,0.7-0.2,1.2c0,0.9,0.2,1.6,0.6,2.1c0.4,0.5,0.9,0.8,1.6,0.8
		c0.4,0,0.7-0.1,0.9-0.2s0.5-0.3,0.7-0.6l0.8,0.9c-0.3,0.4-0.7,0.7-1.1,0.8c-0.4,0.2-0.9,0.3-1.4,0.3c-0.5,0-1-0.1-1.4-0.3
		s-0.8-0.4-1.1-0.8c-0.3-0.3-0.6-0.8-0.8-1.3S-238.6,98.4-238.6,97.7z"/>
	<path d="M-229.9,95h-2.3v-1.2h5.9V95h-2.3v6.7h-1.4V95z"/>
	<path d="M-220.6,101.6l-1.7-3.1h-1.2v3.1h-1.4v-7.8h2.7c0.4,0,0.8,0,1.1,0.1c0.4,0.1,0.7,0.2,0.9,0.4s0.5,0.4,0.6,0.7
		c0.1,0.3,0.2,0.7,0.2,1.1c0,0.6-0.1,1.1-0.4,1.5c-0.3,0.4-0.7,0.6-1.1,0.8l1.9,3.3H-220.6z M-223.5,97.5h1.1c0.5,0,0.9-0.1,1.2-0.3
		s0.4-0.6,0.4-1c0-0.5-0.1-0.8-0.4-0.9s-0.7-0.3-1.2-0.3h-1.1V97.5z"/>
	<path d="M-217.7,93.8h1.4v7.8h-1.4V93.8z"/>
	<path d="M-214.7,97.7c0-0.6,0.1-1.2,0.3-1.7c0.2-0.5,0.4-0.9,0.8-1.3c0.3-0.4,0.7-0.6,1.2-0.8c0.4-0.2,0.9-0.3,1.4-0.3
		c0.5,0,0.9,0.1,1.3,0.3s0.7,0.4,0.9,0.7l-0.8,0.9c-0.2-0.2-0.4-0.4-0.6-0.5c-0.2-0.1-0.5-0.2-0.8-0.2c-0.3,0-0.6,0.1-0.9,0.2
		c-0.3,0.1-0.5,0.3-0.7,0.6s-0.3,0.5-0.5,0.9c-0.1,0.4-0.2,0.7-0.2,1.2c0,0.9,0.2,1.6,0.6,2.1c0.4,0.5,0.9,0.8,1.6,0.8
		c0.4,0,0.7-0.1,0.9-0.2s0.5-0.3,0.7-0.6l0.8,0.9c-0.3,0.4-0.7,0.7-1.1,0.8c-0.4,0.2-0.9,0.3-1.4,0.3c-0.5,0-1-0.1-1.4-0.3
		c-0.4-0.2-0.8-0.4-1.1-0.8c-0.3-0.3-0.6-0.8-0.8-1.3C-214.7,99-214.7,98.4-214.7,97.7z"/>
</g>
<g>
	
		<rect x="-264.8" y="11" transform="matrix(0.7071 -0.7071 0.7071 0.7071 -98.0102 -153.4835)" class="st0" width="61.1" height="61.1"/>
	<path class="st1" d="M-227.3,62.7c5.3-0.8,10-8.1,10-13.8V36.6h6c0.6,0,1-0.4,1-1s-0.4-1-1-1h-45c-0.6,0-1,0.4-1,1s0.4,1,1,1h6V49
		c0,5.7,4.7,12.9,10,13.8v5.9h13V62.7z M-229.3,60.6v6h-9v-6h-1c-4.5,0-9-6.7-9-11.7V36.6h29V49c0,4.9-4.5,11.7-9,11.7H-229.3z"/>
	<path class="st1" d="M-244.3,32.6c0.6,0,1-0.4,1-1v-11c0-0.6-0.4-1-1-1s-1,0.4-1,1v11C-245.3,32.2-244.8,32.6-244.3,32.6z"/>
	<path class="st1" d="M-223.3,32.6c0.6,0,1-0.4,1-1v-11c0-0.6-0.4-1-1-1s-1,0.4-1,1v11C-224.3,32.2-223.8,32.6-223.3,32.6z"/>
	<path class="st1" d="M-237.3,71.6c0-0.6-0.4-1-1-1s-1,0.4-1,1v8.1l2,2c0,0,0,0,0-0.1V71.6z"/>
	<path class="st1" d="M-229.3,71.6c0-0.6-0.4-1-1-1s-1,0.4-1,1v10c0,0,0,0.1,0,0.1l2-2V71.6z"/>
	<path class="st1" d="M-235.9,32.7c0.6,0,1-0.4,1-1v-9c0-0.6,0.5-1.2,1.2-1.2s1.2,0.5,1.2,1.2v9c0,0.6,0.4,1,1,1s1-0.4,1-1v-9
		c0-1.7-1.4-3.2-3.2-3.2s-3.2,1.4-3.2,3.2v9C-236.9,32.3-236.5,32.7-235.9,32.7z"/>
</g>
</svg>
