<?xml version="1.0" encoding="utf-8"?>
<!-- Generator: Adobe Illustrator 19.0.0, SVG Export Plug-In . SVG Version: 6.00 Build 0)  -->
<svg version="1.1" id="Layer_1" xmlns="http://www.w3.org/2000/svg" xmlns:xlink="http://www.w3.org/1999/xlink" x="0px" y="0px"
	 viewBox="-279 -5 90 110" style="enable-background:new -279 -5 90 110;" xml:space="preserve">
<style type="text/css">
	.st0{fill:#EC0800;}
	.st1{fill:#FFFFFF;}
</style>
<g>
	<path d="M-254.5,98c0-0.6,0.1-1.2,0.3-1.7c0.2-0.5,0.5-0.9,0.8-1.3c0.3-0.4,0.7-0.6,1.2-0.8c0.5-0.2,0.9-0.3,1.5-0.3
		c0.3,0,0.5,0,0.8,0.1c0.2,0.1,0.4,0.1,0.6,0.2s0.4,0.2,0.5,0.3c0.2,0.1,0.3,0.2,0.4,0.4l-0.8,0.9c-0.2-0.2-0.4-0.3-0.7-0.5
		s-0.5-0.2-0.9-0.2c-0.4,0-0.7,0.1-1,0.2c-0.3,0.1-0.5,0.3-0.7,0.6c-0.2,0.2-0.4,0.5-0.5,0.9c-0.1,0.4-0.2,0.7-0.2,1.2
		c0,0.9,0.2,1.6,0.6,2.1c0.4,0.5,1,0.8,1.8,0.8c0.2,0,0.4,0,0.6-0.1c0.2-0.1,0.4-0.1,0.5-0.3v-1.7h-1.5v-1.1h2.7v3.5
		c-0.3,0.3-0.6,0.5-1.1,0.7c-0.4,0.2-0.9,0.3-1.5,0.3c-0.5,0-1-0.1-1.5-0.3s-0.8-0.4-1.2-0.8s-0.6-0.8-0.8-1.3S-254.5,98.6-254.5,98
		z"/>
	<path d="M-246.6,94h1.4v6.7h3.3v1.2h-4.7V94z"/>
	<path d="M-237.9,102c-0.5,0-1-0.1-1.4-0.3c-0.4-0.2-0.8-0.5-1.1-0.8c-0.3-0.4-0.5-0.8-0.7-1.3s-0.3-1.1-0.3-1.7
		c0-0.6,0.1-1.2,0.3-1.7c0.2-0.5,0.4-0.9,0.7-1.3s0.7-0.6,1.1-0.8c0.4-0.2,0.9-0.3,1.4-0.3c0.5,0,1,0.1,1.4,0.3
		c0.4,0.2,0.8,0.4,1.1,0.8s0.5,0.8,0.7,1.3c0.2,0.5,0.3,1.1,0.3,1.7c0,0.6-0.1,1.2-0.3,1.7c-0.2,0.5-0.4,0.9-0.7,1.3
		c-0.3,0.4-0.7,0.6-1.1,0.8C-236.9,101.9-237.4,102-237.9,102z M-237.9,100.8c0.3,0,0.6-0.1,0.8-0.2s0.5-0.3,0.6-0.6
		c0.2-0.3,0.3-0.6,0.4-0.9c0.1-0.4,0.1-0.8,0.1-1.2c0-0.9-0.2-1.6-0.5-2.1c-0.4-0.5-0.9-0.8-1.5-0.8s-1.1,0.2-1.5,0.8
		c-0.4,0.5-0.5,1.2-0.5,2.1c0,0.4,0,0.8,0.1,1.2c0.1,0.4,0.2,0.7,0.4,0.9s0.4,0.4,0.6,0.6C-238.5,100.7-238.2,100.8-237.9,100.8z"/>
	<path d="M-234,94h1.5l1.1,3.9c0.1,0.4,0.2,0.9,0.3,1.3c0.1,0.4,0.2,0.8,0.4,1.3h0c0.1-0.5,0.3-0.9,0.4-1.3c0.1-0.4,0.2-0.8,0.3-1.3
		l1.1-3.9h1.4l-2.4,7.8h-1.6L-234,94z"/>
	<path d="M-226.5,94h4.7v1.2h-3.3v2h2.8v1.2h-2.8v2.3h3.5v1.2h-4.8V94z"/>
	<path d="M-219.8,99.9c0.3,0.3,0.6,0.5,1,0.6c0.4,0.2,0.7,0.2,1.1,0.2c0.4,0,0.8-0.1,1-0.3c0.2-0.2,0.3-0.4,0.3-0.7
		c0-0.2,0-0.3-0.1-0.4c-0.1-0.1-0.1-0.2-0.3-0.3c-0.1-0.1-0.2-0.2-0.4-0.2c-0.1-0.1-0.3-0.1-0.5-0.2l-1.1-0.5
		c-0.2-0.1-0.4-0.2-0.6-0.3c-0.2-0.1-0.4-0.3-0.5-0.4s-0.3-0.4-0.4-0.6s-0.1-0.5-0.1-0.8c0-0.3,0.1-0.6,0.2-0.9
		c0.1-0.3,0.3-0.5,0.5-0.7c0.2-0.2,0.5-0.4,0.8-0.5c0.3-0.1,0.7-0.2,1.1-0.2c0.5,0,0.9,0.1,1.3,0.3s0.8,0.4,1.1,0.7l-0.7,0.9
		c-0.3-0.2-0.5-0.4-0.8-0.5c-0.3-0.1-0.6-0.2-0.9-0.2c-0.4,0-0.7,0.1-0.9,0.2c-0.2,0.2-0.3,0.4-0.3,0.7c0,0.2,0,0.3,0.1,0.4
		s0.2,0.2,0.3,0.3c0.1,0.1,0.2,0.2,0.4,0.2c0.2,0.1,0.3,0.1,0.5,0.2l1.1,0.4c0.2,0.1,0.4,0.2,0.6,0.3c0.2,0.1,0.4,0.3,0.5,0.4
		c0.1,0.2,0.2,0.4,0.3,0.6c0.1,0.2,0.1,0.5,0.1,0.8c0,0.3-0.1,0.6-0.2,0.9c-0.1,0.3-0.3,0.5-0.6,0.7s-0.5,0.4-0.9,0.5
		s-0.7,0.2-1.2,0.2c-0.5,0-1-0.1-1.5-0.3c-0.5-0.2-0.9-0.5-1.3-0.9L-219.8,99.9z"/>
</g>
<g>
	
		<rect x="-264.9" y="11" transform="matrix(0.7071 -0.7071 0.7071 0.7071 -98.0468 -153.5719)" class="st0" width="61.1" height="61.1"/>
	<path class="st1" d="M-216.1,19.3c-0.5-0.2-1.1-0.2-1.6-0.1c0.1-0.7-0.1-1.4-0.4-2c-0.5-0.8-1.2-1.4-2.1-1.7
		c-0.9-0.3-1.8-0.2-2.7,0.3c-0.6,0.3-1.1,0.8-1.4,1.4c-0.4-0.4-0.9-0.6-1.4-0.8c-0.9-0.3-1.8-0.2-2.7,0.3c-0.7,0.4-1.3,1-1.6,1.8
		c-0.4-0.3-0.8-0.6-1.4-0.8c-0.9-0.3-1.8-0.2-2.6,0.3c-0.8,0.4-1.4,1.2-1.7,2.1l-2.6,9l1,3.6l3.5-12.1c0.2-0.8,1-1.2,1.8-1
		c0.4,0.1,0.7,0.4,0.9,0.7c0.2,0.4,0.2,0.8,0.1,1.1l-1.6,5.7l0,0.1c-0.2,0.5,0.2,1.1,0.7,1.2c0.5,0.1,1.1-0.2,1.2-0.7l2.5-8.5
		c0.2-0.8,1.1-1.2,1.9-1c0.4,0.1,0.7,0.4,0.9,0.7c0.2,0.3,0.2,0.8,0.1,1.1l-2.5,8.5c-0.2,0.5,0.2,1.1,0.7,1.2
		c0.5,0.2,1.1-0.2,1.2-0.7l2.5-8.5c0,0,0,0,0,0l0.7-2.3c0.1-0.4,0.4-0.7,0.7-0.9c0.4-0.2,0.8-0.2,1.1-0.1c0.4,0.1,0.7,0.4,0.9,0.7
		c0.2,0.4,0.2,0.8,0.1,1.1l-0.7,2.3c0,0,0,0,0,0l-2.5,8.5c-0.2,0.5,0.2,1.1,0.7,1.2c0.5,0.2,1.1-0.2,1.2-0.7l2.5-8.5
		c0.2-0.8,1.1-1.2,1.9-1c0.8,0.2,1.3,1.1,1,1.9l-4.9,16.8l-3-5.1c-1.2-2.2-4-2.9-6.2-1.7c-1.1,0.6-1.8,1.6-2.2,2.7
		c-0.3,1.2-0.2,2.4,0.4,3.5l2.5,4.6l-1.7,5.9c-0.2,0.5,0.2,1.1,0.7,1.2c0.1,0,0.2,0,0.3,0c0.4,0,0.8-0.3,1-0.7l1.9-6.6l-2.9-5.4
		c-0.3-0.6-0.4-1.3-0.2-2c0.2-0.7,0.6-1.2,1.2-1.5c1.3-0.7,2.8-0.3,3.5,0.9l3.9,6.8l-5.7,19.7l-1.8-0.5l0.7,2.3l1.6,0.5
		c0.1,0,0.2,0,0.3,0c0.2,0,0.3,0,0.5-0.1c0.2-0.1,0.4-0.3,0.5-0.6l11.6-40.2C-213.2,21.8-214.2,19.8-216.1,19.3z"/>
	<path class="st1" d="M-226.3,66.7l-10.9-37.5c-0.3-0.9-0.9-1.6-1.7-2.1c-0.8-0.4-1.7-0.5-2.6-0.3c-0.5,0.1-1,0.4-1.4,0.8
		c-0.3-0.8-0.8-1.4-1.6-1.8c-0.8-0.4-1.8-0.5-2.7-0.3c-0.5,0.2-1,0.4-1.4,0.8c-0.3-0.6-0.8-1.1-1.4-1.4c-0.8-0.4-1.8-0.5-2.7-0.3
		c-0.9,0.3-1.6,0.9-2.1,1.7c-0.3,0.6-0.5,1.3-0.4,2c-0.5-0.1-1.1-0.1-1.6,0.1c-1.9,0.5-2.9,2.5-2.4,4.3l11.2,38.6l2.1,2.1l18.8-5.4
		c0.3-0.1,0.5-0.2,0.6-0.5C-226.3,67.2-226.3,66.9-226.3,66.7z M-245.8,71.3l-5.7-19.7l3.9-6.8c0.7-1.2,2.2-1.6,3.5-0.9
		c0.6,0.3,1,0.9,1.2,1.5c0.2,0.7,0.1,1.4-0.2,2l-2.9,5.4l1.9,6.6c0.1,0.4,0.5,0.7,1,0.7c0.1,0,0.2,0,0.3,0c0.5-0.2,0.8-0.7,0.7-1.2
		l-1.7-5.9l2.5-4.6c0.6-1.1,0.7-2.3,0.4-3.5c-0.3-1.2-1.1-2.2-2.2-2.7c-2.2-1.2-5-0.5-6.2,1.7l-3,5.2l-4.9-16.8
		c-0.2-0.8,0.2-1.6,1-1.9c0.1,0,0.3-0.1,0.4-0.1c0.6,0,1.2,0.4,1.4,1.1l2.5,8.5c0.2,0.5,0.7,0.8,1.2,0.7c0.5-0.2,0.8-0.7,0.7-1.2
		l-2.5-8.5c0,0,0,0,0,0l-0.7-2.3c-0.1-0.4-0.1-0.8,0.1-1.1c0.2-0.4,0.5-0.6,0.9-0.7c0.4-0.1,0.8-0.1,1.1,0.1
		c0.3,0.2,0.6,0.5,0.7,0.9l0.7,2.3c0,0,0,0,0,0l2.5,8.5c0.2,0.5,0.7,0.8,1.2,0.7c0.5-0.2,0.8-0.7,0.7-1.2l-2.5-8.5
		c-0.1-0.4-0.1-0.8,0.1-1.1c0.2-0.4,0.5-0.6,0.9-0.7c0.8-0.2,1.6,0.2,1.9,1l2.5,8.5c0.2,0.5,0.7,0.8,1.2,0.7
		c0.5-0.2,0.8-0.7,0.7-1.2l-1.7-5.8c-0.1-0.4-0.1-0.8,0.1-1.1c0.2-0.4,0.5-0.6,0.9-0.7c0.8-0.2,1.6,0.2,1.8,1l10.6,36.6L-245.8,71.3
		z"/>
</g>
</svg>
