<?xml version="1.0" encoding="utf-8"?>
<!-- Generator: Adobe Illustrator 19.0.0, SVG Export Plug-In . SVG Version: 6.00 Build 0)  -->
<svg version="1.1" id="Layer_1" xmlns="http://www.w3.org/2000/svg" xmlns:xlink="http://www.w3.org/1999/xlink" x="0px" y="0px"
	 viewBox="0 0 110 110" style="enable-background:new 0 0 110 110;" xml:space="preserve">
<style type="text/css">
	.st0{fill:#FFFFFF;}
</style>
<g>
	<path class="st0" d="M70.4,88.3c-0.2,0-0.3,0-0.5-0.1c-5.6-1.5-9.4-6.5-9.3-12.2L61,63.2L55,60L54,61.8c-0.5,1-1.7,1.3-2.7,0.8
		c-1-0.5-1.3-1.7-0.8-2.7l0.9-1.8l-6-3.2L35,62.4c-4.7,3.3-11,2.9-15.3-0.8c-0.5-0.4-0.7-1-0.7-1.6c0-0.6,0.3-1.2,0.8-1.5l13.8-9.8
		l-3.3-1.8c-1-0.5-1.3-1.7-0.8-2.7c0.5-1,1.7-1.3,2.7-0.8l5.1,2.7l19.3-13.7c0.2-0.9,0.5-1.8,1-2.7c2.3-4.3,7.2-6.2,11.7-4.9l2-3.7
		c0.5-1,1.7-1.3,2.7-0.8c1,0.5,1.3,1.7,0.8,2.7l-2,3.7c3.6,3,4.7,8.1,2.5,12.4c-0.5,0.9-1,1.6-1.7,2.3L72.9,65l5.1,2.7
		c1,0.5,1.3,1.7,0.8,2.7c-0.5,1-1.7,1.3-2.7,0.8l-3.3-1.8l-0.4,16.9c0,0.6-0.3,1.2-0.8,1.6C71.3,88.2,70.8,88.3,70.4,88.3z
		 M65.5,44.3l-0.8,31.8c0,3,1.5,5.7,3.9,7.2l0.4-16.7c-0.1-0.3-0.1-0.7,0-1l0.5-21.7c-0.1,0-0.1,0-0.2,0.1
		C68,44.3,66.7,44.4,65.5,44.3z M24.5,60c2.6,1.1,5.7,0.9,8.1-0.8l11-7.8c0.2-0.3,0.5-0.5,0.9-0.6l14.1-10c-0.8-1-1.4-2.1-1.8-3.4
		c0-0.1,0-0.1,0-0.2L24.5,60z M56.8,56.5l4.2,2.2l0.4-15.2l-12.4,8.8l4.2,2.2l0.9-1.8c0.5-1,1.7-1.3,2.7-0.8c1,0.5,1.3,1.7,0.8,2.7
		L56.8,56.5z M64.5,40.1c1.2,0.4,2.4,0.4,3.6,0c0.7-0.2,1.3-0.5,1.8-0.9c0.2-0.2,0.4-0.4,0.6-0.5c0.4-0.4,0.8-0.9,1.1-1.5
		c1.6-2.9,0.4-6.6-2.5-8.1c0,0,0,0,0,0l0,0c-2.9-1.6-6.6-0.4-8.1,2.5c-0.3,0.5-0.5,1.1-0.6,1.7c0,0.3,0,0.5-0.1,0.8
		c0,0.7,0.1,1.4,0.3,2c0.4,1.2,1.1,2.2,2,2.9c0.2,0.1,0.4,0.2,0.6,0.4c0.1,0.1,0.2,0.1,0.4,0.2c0.1,0.1,0.3,0.1,0.4,0.2
		C64.1,39.9,64.3,40,64.5,40.1z"/>
</g>
<path class="st0" d="M20.2,67.1c-0.6,0-1.2-0.3-1.6-0.8c-0.7-0.9-0.5-2.1,0.4-2.8l2.9-2.2c0.9-0.7,2.1-0.5,2.8,0.4
	c0.7,0.9,0.5,2.1-0.4,2.8l-2.9,2.2C21.1,67,20.6,67.1,20.2,67.1z"/>
<path class="st0" d="M67.4,92.2c0,0-0.1,0-0.1,0c-1.1-0.1-2-1-1.9-2.1l0.2-3.6c0.1-1.1,1-2,2.1-1.9c1.1,0.1,2,1,1.9,2.1l-0.2,3.6
	C69.3,91.4,68.4,92.2,67.4,92.2z"/>
<g>
	<path class="st0" d="M57.4,95.9c-1,0-1.9-0.8-2-1.8c-0.1-1.1,0.7-2.1,1.8-2.2c1.3-0.1,2.5-0.3,3.8-0.5c1.1-0.2,2.1,0.5,2.3,1.6
		c0.2,1.1-0.5,2.1-1.6,2.3c-1.4,0.3-2.8,0.5-4.2,0.6C57.6,95.9,57.5,95.9,57.4,95.9z M49.5,95.8c-0.1,0-0.2,0-0.2,0
		c-1.4-0.2-2.8-0.4-4.1-0.7c-1.1-0.2-1.8-1.3-1.5-2.4c0.2-1.1,1.3-1.8,2.4-1.5c1.2,0.3,2.5,0.5,3.7,0.6c1.1,0.1,1.9,1.1,1.8,2.2
		C51.3,95.1,50.5,95.8,49.5,95.8z M37.9,92.6c-0.3,0-0.6-0.1-0.8-0.2c-1.3-0.6-2.5-1.2-3.7-1.9c-1-0.6-1.3-1.8-0.7-2.7
		c0.6-1,1.8-1.3,2.7-0.7c1.1,0.6,2.2,1.2,3.4,1.7c1,0.5,1.5,1.6,1,2.6C39.4,92.2,38.7,92.6,37.9,92.6z M27.9,86.1
		c-0.5,0-1-0.2-1.3-0.5c-1-0.9-2-1.9-3-3c-0.7-0.8-0.7-2.1,0.1-2.8c0.8-0.7,2.1-0.7,2.8,0.1c0.8,0.9,1.8,1.8,2.7,2.7
		c0.8,0.7,0.9,2,0.2,2.8C29,85.9,28.5,86.1,27.9,86.1z M20.3,76.9c-0.7,0-1.4-0.4-1.7-1c-0.7-1.2-1.4-2.5-2-3.7c-0.5-1,0-2.2,1-2.7
		c1-0.5,2.2,0,2.7,1c0.5,1.1,1.1,2.3,1.8,3.4c0.6,1,0.2,2.2-0.7,2.7C21,76.8,20.7,76.9,20.3,76.9z"/>
</g>
</svg>
