<?xml version="1.0" encoding="utf-8"?>
<!-- Generator: Adobe Illustrator 19.0.0, SVG Export Plug-In . SVG Version: 6.00 Build 0)  -->
<svg version="1.1" id="Layer_1" xmlns="http://www.w3.org/2000/svg" xmlns:xlink="http://www.w3.org/1999/xlink" x="0px" y="0px"
	 viewBox="-279 -5 90 110" style="enable-background:new -279 -5 90 110;" xml:space="preserve">
<style type="text/css">
	.st0{fill:#EC0800;}
	.st1{fill:#FFFFFF;}
</style>
<g>
	<path d="M-277.2,93.8h4.7V95h-3.3v2h2.8v1.2h-2.8v2.3h3.5v1.2h-4.8V93.8z"/>
	<path d="M-269.4,98.7l-2.4-4.9h1.5l0.9,2c0.1,0.3,0.2,0.6,0.3,0.9c0.1,0.3,0.2,0.6,0.4,0.9h0c0.1-0.3,0.3-0.6,0.4-0.9
		c0.1-0.3,0.2-0.6,0.3-0.9l0.9-2h1.5l-2.4,4.9v2.9h-1.4V98.7z"/>
	<path d="M-264.7,93.8h4.7V95h-3.3v2h2.8v1.2h-2.8v2.3h3.5v1.2h-4.8V93.8z"/>
	<path d="M-255.8,93.8h2.6c0.4,0,0.8,0,1.2,0.1c0.4,0.1,0.7,0.2,0.9,0.4c0.3,0.2,0.5,0.4,0.6,0.8c0.2,0.3,0.2,0.7,0.2,1.1
		c0,0.4-0.1,0.8-0.2,1.1c-0.2,0.3-0.4,0.6-0.6,0.8s-0.6,0.4-0.9,0.5c-0.4,0.1-0.8,0.1-1.2,0.1h-1.2v2.9h-1.4V93.8z M-253.3,97.6
		c1.2,0,1.7-0.5,1.7-1.4c0-0.5-0.1-0.8-0.4-1c-0.3-0.2-0.7-0.3-1.3-0.3h-1.1v2.7H-253.3z"/>
	<path d="M-244.4,101.6l-1.7-3.1h-1.2v3.1h-1.4v-7.8h2.7c0.4,0,0.8,0,1.1,0.1s0.7,0.2,0.9,0.4c0.3,0.2,0.5,0.4,0.6,0.7
		c0.1,0.3,0.2,0.7,0.2,1.1c0,0.6-0.1,1.1-0.4,1.5c-0.3,0.4-0.7,0.6-1.1,0.8l1.9,3.3H-244.4z M-247.3,97.5h1.1c0.5,0,0.9-0.1,1.2-0.3
		s0.4-0.6,0.4-1c0-0.5-0.1-0.8-0.4-0.9s-0.7-0.3-1.2-0.3h-1.1V97.5z"/>
	<path d="M-238.4,101.8c-0.5,0-1-0.1-1.4-0.3c-0.4-0.2-0.8-0.5-1.1-0.8c-0.3-0.4-0.5-0.8-0.7-1.3s-0.3-1.1-0.3-1.7
		c0-0.6,0.1-1.2,0.3-1.7c0.2-0.5,0.4-0.9,0.7-1.3s0.7-0.6,1.1-0.8c0.4-0.2,0.9-0.3,1.4-0.3c0.5,0,1,0.1,1.4,0.3
		c0.4,0.2,0.8,0.4,1.1,0.8s0.5,0.8,0.7,1.3c0.2,0.5,0.3,1.1,0.3,1.7c0,0.6-0.1,1.2-0.3,1.7c-0.2,0.5-0.4,0.9-0.7,1.3
		c-0.3,0.4-0.7,0.6-1.1,0.8C-237.5,101.7-237.9,101.8-238.4,101.8z M-238.4,100.6c0.3,0,0.6-0.1,0.8-0.2s0.5-0.3,0.6-0.6
		c0.2-0.3,0.3-0.6,0.4-0.9c0.1-0.4,0.1-0.8,0.1-1.2c0-0.9-0.2-1.6-0.5-2.1c-0.4-0.5-0.9-0.8-1.5-0.8s-1.1,0.2-1.5,0.8
		c-0.4,0.5-0.5,1.2-0.5,2.1c0,0.4,0,0.8,0.1,1.2c0.1,0.4,0.2,0.7,0.4,0.9s0.4,0.4,0.6,0.6C-239,100.5-238.8,100.6-238.4,100.6z"/>
	<path d="M-232.1,95h-2.3v-1.2h5.9V95h-2.3v6.7h-1.4V95z"/>
	<path d="M-227.1,93.8h4.7V95h-3.3v2h2.8v1.2h-2.8v2.3h3.5v1.2h-4.8V93.8z"/>
	<path d="M-221,97.7c0-0.6,0.1-1.2,0.3-1.7c0.2-0.5,0.4-0.9,0.8-1.3c0.3-0.4,0.7-0.6,1.2-0.8c0.4-0.2,0.9-0.3,1.4-0.3
		c0.5,0,0.9,0.1,1.3,0.3s0.7,0.4,0.9,0.7l-0.8,0.9c-0.2-0.2-0.4-0.4-0.6-0.5s-0.5-0.2-0.8-0.2c-0.3,0-0.6,0.1-0.9,0.2
		s-0.5,0.3-0.7,0.6c-0.2,0.2-0.3,0.5-0.5,0.9c-0.1,0.4-0.2,0.7-0.2,1.2c0,0.9,0.2,1.6,0.6,2.1c0.4,0.5,0.9,0.8,1.6,0.8
		c0.4,0,0.7-0.1,0.9-0.2c0.3-0.1,0.5-0.3,0.7-0.6l0.8,0.9c-0.3,0.4-0.7,0.7-1.1,0.8c-0.4,0.2-0.9,0.3-1.4,0.3c-0.5,0-1-0.1-1.4-0.3
		s-0.8-0.4-1.1-0.8c-0.3-0.3-0.6-0.8-0.8-1.3S-221,98.4-221,97.7z"/>
	<path d="M-212.3,95h-2.3v-1.2h5.9V95h-2.3v6.7h-1.4V95z"/>
	<path d="M-207.4,93.8h1.4v7.8h-1.4V93.8z"/>
	<path d="M-200.9,101.8c-0.5,0-1-0.1-1.4-0.3c-0.4-0.2-0.8-0.5-1.1-0.8c-0.3-0.4-0.5-0.8-0.7-1.3s-0.3-1.1-0.3-1.7
		c0-0.6,0.1-1.2,0.3-1.7c0.2-0.5,0.4-0.9,0.7-1.3s0.7-0.6,1.1-0.8c0.4-0.2,0.9-0.3,1.4-0.3c0.5,0,1,0.1,1.4,0.3
		c0.4,0.2,0.8,0.4,1.1,0.8s0.5,0.8,0.7,1.3c0.2,0.5,0.3,1.1,0.3,1.7c0,0.6-0.1,1.2-0.3,1.7c-0.2,0.5-0.4,0.9-0.7,1.3
		c-0.3,0.4-0.7,0.6-1.1,0.8C-199.9,101.7-200.4,101.8-200.9,101.8z M-200.9,100.6c0.3,0,0.6-0.1,0.8-0.2s0.5-0.3,0.6-0.6
		c0.2-0.3,0.3-0.6,0.4-0.9c0.1-0.4,0.1-0.8,0.1-1.2c0-0.9-0.2-1.6-0.5-2.1c-0.4-0.5-0.9-0.8-1.5-0.8s-1.1,0.2-1.5,0.8
		c-0.4,0.5-0.5,1.2-0.5,2.1c0,0.4,0,0.8,0.1,1.2c0.1,0.4,0.2,0.7,0.4,0.9s0.4,0.4,0.6,0.6C-201.5,100.5-201.2,100.6-200.9,100.6z"/>
	<path d="M-195.9,93.8h1.4l2.4,4.4l0.8,1.7h0c0-0.4-0.1-0.8-0.1-1.3c0-0.5-0.1-0.9-0.1-1.4v-3.4h1.3v7.8h-1.4l-2.4-4.4l-0.8-1.7h0
		c0,0.4,0.1,0.9,0.1,1.3c0,0.5,0.1,0.9,0.1,1.3v3.4h-1.3V93.8z"/>
</g>
<g>
	
		<rect x="-264.8" y="11" transform="matrix(0.7174 -0.6966 0.6966 0.7174 -95.161 -151.4617)" class="st0" width="61.1" height="61.1"/>
	<path class="st1" d="M-208.4,35.5c0-0.2,0-0.4,0-0.6l0.1-0.4l0,0c0-4.9-4.2-11.8-9.8-15.5c-5.3-3.6-11.1-3.9-16.2-0.8
		c-3.6,2.1-5.5,3.8-6.8,5c-2,1.8-2.5,2.3-6.8,1.6c-4.8-0.8-8.3,0-10.5,2.2c-3.1,3.2-2.1,8.1-2,8.3c0,0.2,0.1,0.3,0.2,0.4l2.9,19.5
		l0.1,0c0.4,2.4,2.4,4.2,4.9,4.2l12.1,0.2c0,0,0,0,0.1,0c2.4,0,3.9-2.1,4-5.7c0-0.5,1-0.7,1.6-0.7c0,0,0,0,0,0c1.1,0,2,0.4,2,0.8
		c0,2.7,2.1,5.8,4.9,5.8l11.1,0.2c0,0,0,0,0.1,0c2.6,0,4.9-2.1,5.1-4.6l3.1-19.6C-208.5,35.7-208.4,35.6-208.4,35.5z M-257,28.4
		c1.7-1.7,4.6-2.3,8.7-1.6c5,0.8,6.1,0.1,8.5-2.1c1.3-1.2,3-2.8,6.4-4.8c5.7-3.3,10.8-1.4,14.1,0.8c5.6,3.7,9.2,10.5,8.9,14.4
		c-0.7,0.2-2.1,0.4-4,0.7c0-4.3-2.7-9.1-6.8-11.6c-4-2.4-8.5-2.3-12.4,0.4c-1.9,1.3-3.4,2.4-4.5,3.3c-4.2,3.1-4.4,3.3-10.2,2.7
		c-2-0.2-3.6,0.2-4.5,1.4c-1,1.1-1.1,2.7-1.1,3.8c-2.2-0.3-3.8-0.6-4.6-0.8c0,0,0,0,0,0C-258.6,34.9-259.3,30.8-257,28.4z
		 M-251.9,36c-0.1-0.8-0.1-2.1,0.6-2.8c0.5-0.6,1.5-0.8,2.8-0.7c6.3,0.7,7.1,0.3,11.6-3.1c1.1-0.9,2.6-1.9,4.5-3.2
		c4.5-3.1,8.3-1.5,10.3-0.4c3.6,2.2,6,6.6,5.9,10.2c-4.4,0.6-10.6,1.3-17.8,1.3C-240.6,37.3-247.2,36.6-251.9,36z M-216.8,58
		l-11.1-0.2c-1.6,0-2.9-2.1-2.9-3.8c0-1.8-2-2.8-4-2.8c0,0,0,0,0,0c-2.1,0-3.6,1.1-3.6,2.7c0,1.1-0.2,3.7-2,3.7c0,0,0,0,0,0
		l-12.1-0.2c-1.7,0-3-1.4-3-3.1v-9.3h41.9V55l0,0.3l0,0C-213.8,56.8-215.2,58.1-216.8,58z M-211.7,43.2h-45.5l-0.9-6.1
		c3.6,0.6,13.8,2.2,24,2.2c11.1,0,20-1.5,23.4-2.2L-211.7,43.2z"/>
</g>
</svg>
