<?xml version="1.0" encoding="utf-8"?>
<!-- Generator: Adobe Illustrator 19.0.0, SVG Export Plug-In . SVG Version: 6.00 Build 0)  -->
<svg version="1.1" id="Layer_1" xmlns="http://www.w3.org/2000/svg" xmlns:xlink="http://www.w3.org/1999/xlink" x="0px" y="0px"
	 viewBox="-279 -5 90 110" style="enable-background:new -279 -5 90 110;" xml:space="preserve">
<style type="text/css">
	.st0{fill:#EC0800;}
	.st1{fill:#FFFFFF;}
</style>
<rect id="XMLID_14_" x="-264.6" y="11.3" transform="matrix(-0.7071 0.7071 -0.7071 -0.7071 -370.0023 236.86)" class="st0" width="61.1" height="61.1"/>
<g id="XMLID_1_">
	<path id="XMLID_15_" d="M-248.1,99.6h-2.6l-0.6,2.1h-1.4l2.6-7.8h1.6l2.6,7.8h-1.5L-248.1,99.6z M-248.4,98.6l-0.3-1
		c-0.1-0.4-0.3-0.8-0.4-1.3c-0.1-0.4-0.2-0.9-0.3-1.3l0,0c-0.1,0.4-0.2,0.9-0.3,1.3c-0.1,0.4-0.2,0.9-0.4,1.3l-0.3,1H-248.4z"/>
	<path id="XMLID_18_" d="M-245,93.9h1.4l2.4,4.4l0.8,1.7l0,0c0-0.4-0.1-0.8-0.1-1.3s-0.1-0.9-0.1-1.4v-3.4h1.3v7.8h-1.4l-2.4-4.4
		l-0.8-1.7l0,0c0,0.4,0.1,0.9,0.1,1.3c0,0.5,0.1,0.9,0.1,1.3v3.4h-1.3V93.9z"/>
	<path id="XMLID_20_" d="M-237.1,93.9h1.4v7.8h-1.4V93.9z"/>
	<path id="XMLID_22_" d="M-233.8,93.9h1.5l1.4,3.9l0.5,1.5l0,0l0.5-1.5l1.4-3.9h1.5v7.8h-1.3v-3.6c0-0.2,0-0.4,0-0.6s0-0.4,0-0.7
		c0-0.2,0-0.4,0.1-0.6c0-0.2,0-0.4,0.1-0.6l0,0l-0.6,1.8l-1.4,3.6h-0.6l-1.4-3.6l-0.6-1.8l0,0c0,0.2,0,0.4,0.1,0.6
		c0,0.2,0,0.4,0.1,0.6c0,0.2,0,0.4,0,0.7c0,0.2,0,0.4,0,0.6v3.6h-1.3V93.9z"/>
	<path id="XMLID_24_" d="M-221.2,99.6h-2.6l-0.6,2.1h-1.4l2.6-7.8h1.6l2.6,7.8h-1.5L-221.2,99.6z M-221.5,98.6l-0.3-1
		c-0.1-0.4-0.2-0.8-0.4-1.3s-0.2-0.9-0.3-1.3l0,0c-0.1,0.4-0.2,0.9-0.3,1.3c-0.1,0.4-0.2,0.9-0.4,1.3l-0.3,1H-221.5z"/>
	<path id="XMLID_27_" d="M-218.1,93.9h1.4v6.7h3.3v1.2h-4.7C-218.1,101.8-218.1,93.9-218.1,93.9z"/>
</g>
<g id="XMLID_2_">
	<path id="XMLID_10_" class="st1" d="M-215.7,43.2c5.1,0,9.1-3.9,9.1-9s-4-9-9.1-9c-4.1,0-7.6,2.7-8.7,6.7H-244
		c-1.1-4-4.6-6.7-8.7-6.7c-5.1,0-9.1,3.9-9.1,9c0,5,4.1,9.1,9.1,9.1c0.3,0,0.7,0,1-0.1l6.4,11.1l-8.5-0.9c-0.6-0.1-1,0.3-1.1,0.9
		c-0.1,0.6,0.3,1,0.9,1.1l10,1l1.5,2.7l-9.2,1.1c-0.5,0.1-0.9,0.6-0.9,1.1c0.1,0.5,0.5,0.9,1,0.9h0.1l10-1.2l0.5,0.8
		c1.7,3,4.1,4.7,6.7,4.7c2.6,0,5-1.7,6.7-4.7l0.4-0.7l9.4,1.2h0.1c0.5,0,0.9-0.4,1-0.9s-0.3-1-0.9-1.1l-8.5-1.1l1.6-2.8l9.3-1
		c0.5-0.1,0.9-0.5,0.9-1.1c-0.1-0.5-0.5-0.9-1.1-0.9l-7.8,0.8l6.4-11.1C-216.4,43.2-216.1,43.2-215.7,43.2z M-218.2,41.6l-0.1,0.2
		c0,0.1-0.1,0.2-0.2,0.3l-7.2,12.5l-2.8,0.3c-0.5,0.1-0.9,0.5-0.9,1.1c0.1,0.5,0.5,0.9,1,0.9h0.1l1.4-0.1l-1.3,2.3l-1.3-0.2
		c-0.6-0.1-1,0.3-1.1,0.9c-0.1,0.6,0.3,1,0.9,1.1l0.4,0.1c-1.4,2.4-3.1,3.7-5,3.7c-1.9,0-3.6-1.3-5-3.7v-0.1
		c0.4-0.1,0.8-0.6,0.7-1.1c-0.1-0.5-0.6-0.9-1.1-0.9l-0.6,0.1l-1.2-2.1l0.7,0.1h0.1c0.5,0,0.9-0.4,1-0.9c0.1-0.5-0.3-1-0.9-1.1
		l-2.1-0.2l-7.4-12.7c-0.1-0.1-0.1-0.3-0.2-0.4c-0.2-0.3-0.5-0.5-0.9-0.5c-0.1,0-0.1,0-0.2,0c-0.4,0.1-0.9,0.2-1.3,0.2
		c-3.9,0-7.1-3.2-7.1-7.1s3.1-7,7.1-7c3.5,0,6.3,2.4,7,5.9c0.1,0.5,0.5,0.8,1,0.8h21.2c0.5,0,0.9-0.3,1-0.8c0.7-3.5,3.5-5.9,7-5.9
		c4,0,7.1,3.1,7.1,7s-3.1,7-7.1,7c-0.5,0-1,0-1.4-0.1C-217.6,41-218,41.2-218.2,41.6z"/>
	<path id="XMLID_7_" class="st1" d="M-241.3,38.5c-2,0-3.7,1.7-3.7,3.7s1.7,3.7,3.7,3.7s3.7-1.7,3.7-3.7S-239.2,38.5-241.3,38.5z
		 M-241.3,43.9c-0.9,0-1.7-0.8-1.7-1.7s0.8-1.7,1.7-1.7c0.9,0,1.7,0.8,1.7,1.7S-240.3,43.9-241.3,43.9z"/>
	<path id="XMLID_4_" class="st1" d="M-226.1,38.5c-2,0-3.7,1.7-3.7,3.7s1.7,3.7,3.7,3.7s3.7-1.7,3.7-3.7S-224.1,38.5-226.1,38.5z
		 M-226.1,43.9c-0.9,0-1.7-0.8-1.7-1.7s0.8-1.7,1.7-1.7c0.9,0,1.7,0.8,1.7,1.7S-225.2,43.9-226.1,43.9z"/>
	<path id="XMLID_3_" class="st1" d="M-231.8,55.1h-5.5c-1.1,0-1.4,0.7-0.7,1.6l2.4,3c0.7,0.9,1.8,0.8,2.5,0l2.2-2.9
		C-230.4,55.8-230.7,55.1-231.8,55.1z"/>
</g>
</svg>
