<?xml version="1.0" encoding="utf-8"?>
<!-- Generator: Adobe Illustrator 19.0.0, SVG Export Plug-In . SVG Version: 6.00 Build 0)  -->
<svg version="1.1" id="Layer_1" xmlns="http://www.w3.org/2000/svg" xmlns:xlink="http://www.w3.org/1999/xlink" x="0px" y="0px"
	 viewBox="-279 -5 90 110" style="enable-background:new -279 -5 90 110;" xml:space="preserve">
<style type="text/css">
	.st0{fill:#EC0800;}
	.st1{fill:#FFFFFF;}
</style>
<g>
	<path d="M-260.6,98c0-0.6,0.1-1.2,0.3-1.7c0.2-0.5,0.4-0.9,0.8-1.3c0.3-0.4,0.7-0.6,1.2-0.8c0.4-0.2,0.9-0.3,1.4-0.3
		c0.5,0,0.9,0.1,1.3,0.3s0.7,0.4,0.9,0.7l-0.8,0.9c-0.2-0.2-0.4-0.4-0.6-0.5s-0.5-0.2-0.8-0.2c-0.3,0-0.6,0.1-0.9,0.2
		s-0.5,0.3-0.7,0.6c-0.2,0.2-0.3,0.5-0.5,0.9c-0.1,0.4-0.2,0.7-0.2,1.2c0,0.9,0.2,1.6,0.6,2.1c0.4,0.5,0.9,0.8,1.6,0.8
		c0.4,0,0.7-0.1,0.9-0.2c0.3-0.1,0.5-0.3,0.7-0.6l0.8,0.9c-0.3,0.4-0.7,0.7-1.1,0.8c-0.4,0.2-0.9,0.3-1.4,0.3c-0.5,0-1-0.1-1.4-0.3
		s-0.8-0.4-1.1-0.8c-0.3-0.3-0.6-0.8-0.8-1.3S-260.6,98.6-260.6,98z"/>
	<path d="M-253.3,94h1.4v6.7h3.3v1.2h-4.7V94z"/>
	<path d="M-244.6,102c-0.5,0-1-0.1-1.4-0.3c-0.4-0.2-0.8-0.5-1.1-0.8c-0.3-0.4-0.5-0.8-0.7-1.3s-0.3-1.1-0.3-1.7
		c0-0.6,0.1-1.2,0.3-1.7c0.2-0.5,0.4-0.9,0.7-1.3s0.7-0.6,1.1-0.8c0.4-0.2,0.9-0.3,1.4-0.3c0.5,0,1,0.1,1.4,0.3
		c0.4,0.2,0.8,0.4,1.1,0.8s0.5,0.8,0.7,1.3c0.2,0.5,0.3,1.1,0.3,1.7c0,0.6-0.1,1.2-0.3,1.7c-0.2,0.5-0.4,0.9-0.7,1.3
		c-0.3,0.4-0.7,0.6-1.1,0.8C-243.6,101.9-244.1,102-244.6,102z M-244.6,100.8c0.3,0,0.6-0.1,0.8-0.2s0.5-0.3,0.6-0.6
		c0.2-0.3,0.3-0.6,0.4-0.9c0.1-0.4,0.1-0.8,0.1-1.2c0-0.9-0.2-1.6-0.5-2.1c-0.4-0.5-0.9-0.8-1.5-0.8s-1.1,0.2-1.5,0.8
		c-0.4,0.5-0.5,1.2-0.5,2.1c0,0.4,0,0.8,0.1,1.2c0.1,0.4,0.2,0.7,0.4,0.9s0.4,0.4,0.6,0.6C-245.2,100.7-244.9,100.8-244.6,100.8z"/>
	<path d="M-238.2,95.2h-2.3V94h5.9v1.2h-2.3v6.7h-1.4V95.2z"/>
	<path d="M-233.2,94h1.4v3.2h3.2V94h1.4v7.8h-1.4v-3.5h-3.2v3.5h-1.4V94z"/>
	<path d="M-225.3,94h1.4v7.8h-1.4V94z"/>
	<path d="M-221.9,94h1.4l2.4,4.4l0.8,1.7h0c0-0.4-0.1-0.8-0.1-1.3c0-0.5-0.1-0.9-0.1-1.4V94h1.3v7.8h-1.4l-2.4-4.4l-0.8-1.7h0
		c0,0.4,0.1,0.9,0.1,1.3s0.1,0.9,0.1,1.3v3.4h-1.3V94z"/>
	<path d="M-214.4,98c0-0.6,0.1-1.2,0.3-1.7c0.2-0.5,0.5-0.9,0.8-1.3c0.3-0.4,0.7-0.6,1.2-0.8c0.5-0.2,0.9-0.3,1.5-0.3
		c0.3,0,0.5,0,0.8,0.1c0.2,0.1,0.4,0.1,0.6,0.2c0.2,0.1,0.4,0.2,0.5,0.3c0.2,0.1,0.3,0.2,0.4,0.4l-0.8,0.9c-0.2-0.2-0.4-0.3-0.7-0.5
		c-0.2-0.1-0.5-0.2-0.9-0.2c-0.4,0-0.7,0.1-1,0.2s-0.5,0.3-0.7,0.6c-0.2,0.2-0.4,0.5-0.5,0.9c-0.1,0.4-0.2,0.7-0.2,1.2
		c0,0.9,0.2,1.6,0.6,2.1c0.4,0.5,1,0.8,1.8,0.8c0.2,0,0.4,0,0.6-0.1c0.2-0.1,0.4-0.1,0.5-0.3v-1.7h-1.5v-1.1h2.7v3.5
		c-0.3,0.3-0.6,0.5-1.1,0.7c-0.4,0.2-0.9,0.3-1.5,0.3c-0.5,0-1-0.1-1.5-0.3s-0.8-0.4-1.2-0.8s-0.6-0.8-0.8-1.3
		C-214.3,99.2-214.4,98.6-214.4,98z"/>
</g>
<g>
	
		<rect x="-264.4" y="11" transform="matrix(0.7071 -0.7071 0.7071 0.7071 -97.8821 -153.1742)" class="st0" width="61.1" height="61.1"/>
	<g>
		<path class="st1" d="M-208.5,28.8c-0.8-2.6-3.4-3-5.7-3.4c-3.3-0.5-4.9-0.9-4.6-4.6c0.1-0.5-0.4-1-0.9-1.1c-0.5,0-1,0.4-1.1,0.9
			c-0.5,5.8,3.4,6.4,6.3,6.8c2.2,0.3,3.6,0.6,4,2c0.4,1.2,0.6,2.8-0.2,3.9c-0.8,1.1-2.5,1.4-3.8,1.4h0h-0.9
			c-10.1,0-10.1-4.4-10.1-5.9l0-1.1v-4.7c0-4.7-3.8-8.6-8.5-8.6s-8.4,3.9-8.4,8.6c0,0,0,6.1,0,6.3c-0.6,5.4-9.6,5.4-9.9,5.4h-1v0
			c-4.7-0.8-8.3-0.3-10.2,1.6c-0.9,0.9-1.9,2.5-1.4,5.3c0.7,3.9,2.7,4.8,4.1,5.5c1.4,0.7,2.4,1.1,2,4.9c-0.1,0.5,0.4,1,0.9,1.1
			c0,0,0.1,0,0.1,0c0.5,0,0.9-0.4,1-0.9c0.5-4.8-1.1-5.9-3.1-6.9c-1.3-0.6-2.5-1.2-3-4.1c-0.3-1.5,0-2.7,0.8-3.5
			c1.5-1.4,4.7-1.8,8.8-1v23.9h39V36.7c3,0,4.6-1.2,5.3-2.2C-207.9,33.1-207.7,31.1-208.5,28.8z M-234,16.3c3.7,0,6.5,2.9,6.5,6.6
			v4.7h-13.1v-4.7C-240.5,19.2-237.7,16.3-234,16.3z M-216.3,58.6h-35V36.7c4.1-0.2,10-1.9,10.6-7.1h13.3c0.4,3.3,2.7,6.8,11,7.1
			V58.6z"/>
		<path class="st1" d="M-240.3,46.1c0,3.7,3,6.6,6.6,6.6c3.7,0,6.6-3,6.6-6.6v-4.5l-13.2,0V46.1z M-238.3,43.6l9.2,0v2.5
			c0,2.6-2.1,4.6-4.6,4.6c-2.5,0-4.6-2.1-4.6-4.6V43.6z"/>
	</g>
</g>
</svg>
