<?xml version="1.0" encoding="utf-8"?>
<!-- Generator: Adobe Illustrator 19.0.0, SVG Export Plug-In . SVG Version: 6.00 Build 0)  -->
<svg version="1.1" id="Layer_1" xmlns="http://www.w3.org/2000/svg" xmlns:xlink="http://www.w3.org/1999/xlink" x="0px" y="0px"
	 viewBox="-279 -5 90 110" style="enable-background:new -279 -5 90 110;" xml:space="preserve">
<style type="text/css">
	.st0{fill:#EC0800;}
	.st1{fill:#FFFFFF;}
</style>
<g>
	<path d="M-254.1,99.9c0.3,0.3,0.6,0.5,1,0.6s0.7,0.2,1.1,0.2c0.4,0,0.8-0.1,1-0.3c0.2-0.2,0.3-0.4,0.3-0.7c0-0.2,0-0.3-0.1-0.4
		c-0.1-0.1-0.1-0.2-0.3-0.3s-0.2-0.2-0.4-0.2c-0.1-0.1-0.3-0.1-0.5-0.2l-1.1-0.5c-0.2-0.1-0.4-0.2-0.6-0.3s-0.4-0.3-0.5-0.4
		c-0.2-0.2-0.3-0.4-0.4-0.6s-0.1-0.5-0.1-0.8c0-0.3,0.1-0.6,0.2-0.9c0.1-0.3,0.3-0.5,0.5-0.7s0.5-0.4,0.8-0.5
		c0.3-0.1,0.7-0.2,1.1-0.2c0.5,0,0.9,0.1,1.3,0.3c0.4,0.2,0.8,0.4,1.1,0.7l-0.7,0.9c-0.3-0.2-0.5-0.4-0.8-0.5s-0.6-0.2-0.9-0.2
		c-0.4,0-0.7,0.1-0.9,0.2c-0.2,0.2-0.3,0.4-0.3,0.7c0,0.2,0,0.3,0.1,0.4c0.1,0.1,0.2,0.2,0.3,0.3c0.1,0.1,0.2,0.2,0.4,0.2
		c0.2,0.1,0.3,0.1,0.5,0.2l1.1,0.4c0.2,0.1,0.4,0.2,0.6,0.3c0.2,0.1,0.4,0.3,0.5,0.4c0.1,0.2,0.2,0.4,0.3,0.6
		c0.1,0.2,0.1,0.5,0.1,0.8c0,0.3-0.1,0.6-0.2,0.9c-0.1,0.3-0.3,0.5-0.6,0.7s-0.5,0.4-0.9,0.5c-0.3,0.1-0.7,0.2-1.2,0.2
		c-0.5,0-1-0.1-1.5-0.3c-0.5-0.2-0.9-0.5-1.3-0.9L-254.1,99.9z"/>
	<path d="M-247.8,94h1.4v3.2h3.2V94h1.4v7.8h-1.4v-3.5h-3.2v3.5h-1.4V94z"/>
	<path d="M-236.2,99.7h-2.6l-0.6,2.1h-1.4l2.6-7.8h1.6l2.6,7.8h-1.5L-236.2,99.7z M-236.5,98.6l-0.3-1c-0.1-0.4-0.3-0.8-0.4-1.3
		c-0.1-0.4-0.2-0.9-0.3-1.3h0c-0.1,0.4-0.2,0.9-0.3,1.3c-0.1,0.4-0.2,0.9-0.4,1.3l-0.3,1H-236.5z"/>
	<path d="M-228.9,101.9l-1.7-3.1h-1.2v3.1h-1.4V94h2.7c0.4,0,0.8,0,1.1,0.1s0.7,0.2,0.9,0.4c0.3,0.2,0.5,0.4,0.6,0.7
		c0.1,0.3,0.2,0.7,0.2,1.1c0,0.6-0.1,1.1-0.4,1.5c-0.3,0.4-0.7,0.6-1.1,0.8l1.9,3.3H-228.9z M-231.8,97.7h1.1c0.5,0,0.9-0.1,1.2-0.3
		s0.4-0.6,0.4-1c0-0.5-0.1-0.8-0.4-0.9s-0.7-0.3-1.2-0.3h-1.1V97.7z"/>
	<path d="M-226,94h2.6c0.4,0,0.8,0,1.2,0.1c0.4,0.1,0.7,0.2,0.9,0.4c0.3,0.2,0.5,0.4,0.6,0.8c0.2,0.3,0.2,0.7,0.2,1.1
		c0,0.4-0.1,0.8-0.2,1.1c-0.2,0.3-0.4,0.6-0.6,0.8s-0.6,0.4-0.9,0.5c-0.4,0.1-0.8,0.1-1.2,0.1h-1.2v2.9h-1.4V94z M-223.4,97.9
		c1.2,0,1.7-0.5,1.7-1.4c0-0.5-0.1-0.8-0.4-1c-0.3-0.2-0.7-0.3-1.3-0.3h-1.1v2.7H-223.4z"/>
	<path d="M-218.7,99.9c0.3,0.3,0.6,0.5,1,0.6s0.7,0.2,1.1,0.2c0.4,0,0.8-0.1,1-0.3c0.2-0.2,0.3-0.4,0.3-0.7c0-0.2,0-0.3-0.1-0.4
		c-0.1-0.1-0.1-0.2-0.3-0.3s-0.2-0.2-0.4-0.2c-0.1-0.1-0.3-0.1-0.5-0.2l-1.1-0.5c-0.2-0.1-0.4-0.2-0.6-0.3s-0.4-0.3-0.5-0.4
		c-0.2-0.2-0.3-0.4-0.4-0.6s-0.1-0.5-0.1-0.8c0-0.3,0.1-0.6,0.2-0.9c0.1-0.3,0.3-0.5,0.5-0.7s0.5-0.4,0.8-0.5
		c0.3-0.1,0.7-0.2,1.1-0.2c0.5,0,0.9,0.1,1.3,0.3c0.4,0.2,0.8,0.4,1.1,0.7l-0.7,0.9c-0.3-0.2-0.5-0.4-0.8-0.5s-0.6-0.2-0.9-0.2
		c-0.4,0-0.7,0.1-0.9,0.2c-0.2,0.2-0.3,0.4-0.3,0.7c0,0.2,0,0.3,0.1,0.4c0.1,0.1,0.2,0.2,0.3,0.3c0.1,0.1,0.2,0.2,0.4,0.2
		c0.2,0.1,0.3,0.1,0.5,0.2l1.1,0.4c0.2,0.1,0.4,0.2,0.6,0.3c0.2,0.1,0.4,0.3,0.5,0.4c0.1,0.2,0.2,0.4,0.3,0.6
		c0.1,0.2,0.1,0.5,0.1,0.8c0,0.3-0.1,0.6-0.2,0.9c-0.1,0.3-0.3,0.5-0.6,0.7s-0.5,0.4-0.9,0.5c-0.3,0.1-0.7,0.2-1.2,0.2
		c-0.5,0-1-0.1-1.5-0.3c-0.5-0.2-0.9-0.5-1.3-0.9L-218.7,99.9z"/>
</g>
<g>
	
		<rect x="-264.9" y="11" transform="matrix(0.7071 -0.7071 0.7071 0.7071 -98.0468 -153.5719)" class="st0" width="61.1" height="61.1"/>
	<path class="st1" d="M-205.4,27.4l-7,7.6l-1.7-1.8l-9.5-10.3l6.8-7l-1.4-1.4l-39.6,40.7c-0.3,0.3-0.4,0.8-0.2,1.1
		c0.2,0.3,0.5,0.6,0.9,0.6c0,0,0.1,0,0.1,0c0.2,0,22-2.9,29.2-3.7c0.5-0.1,0.9-0.5,0.9-1c0-2.3,0.4-4,1.1-6.5
		c0.2-0.8,0.4-1.7,0.7-2.6c0.7-2.8,5.8-7.6,8.4-9.8l3.5,3.8c0.2,0.2,0.5,0.4,0.7,0.4c0,0,0,0,0,0c0.3,0,0.5-0.2,0.7-0.4l7.7-8.4
		L-205.4,27.4z M-227,42.8c-0.2,1-0.5,1.8-0.7,2.6c-0.6,2.2-1,3.9-1.1,6.1c-6.2,0.7-19.7,2.4-25.5,3.2l29.4-30.3l7,7.6
		C-220.2,33.9-226.1,39.1-227,42.8z"/>
	<g>
		<path class="st1" d="M-210.7,29.5c-0.3,0-0.5-0.1-0.7-0.3l-7.1-7.1c-0.4-0.4-0.4-1,0-1.4s1-0.4,1.4,0l7.1,7.1c0.4,0.4,0.4,1,0,1.4
			C-210.1,29.4-210.4,29.5-210.7,29.5z"/>
	</g>
</g>
</svg>
