<?xml version="1.0" encoding="utf-8"?>
<!-- Generator: Adobe Illustrator 19.0.0, SVG Export Plug-In . SVG Version: 6.00 Build 0)  -->
<svg version="1.1" id="Layer_1" xmlns="http://www.w3.org/2000/svg" xmlns:xlink="http://www.w3.org/1999/xlink" x="0px" y="0px"
	 viewBox="-279 -5 90 110" style="enable-background:new -279 -5 90 110;" xml:space="preserve">
<style type="text/css">
	.st0{fill:#EC0800;}
	.st1{fill:#FFFFFF;}
</style>
<g>
	
		<rect x="-264.3" y="11" transform="matrix(0.7071 -0.7071 0.7071 0.7071 -97.8638 -153.1299)" class="st0" width="61.1" height="61.1"/>
	<g>
		<path class="st1" d="M-232.8,66.8c-10.5,0-19.1-8.6-19.1-19.1c0-0.2,0-0.3,0-0.5l0-0.1l0-0.2c0-6.9,2.9-16.7,9.3-22.1l1.7-1.4
			l-0.1,2.2c0,1.4,0.7,2.3,1.6,2.6c0.4,0.2,0.9,0.2,1.2-0.1c0.5-0.5,0.5-2.1-0.9-5c-2.8-5.5-0.5-9.2,0.6-10.5c1.7-2,4.2-3,6.1-2.4
			l1.1,0.3l-0.5,1c-1.6,3.4,1,6.3,5.8,11.1c5.7,5.7,12.8,12.9,12.4,24.9C-213.7,58.3-222.3,66.8-232.8,66.8z M-249.8,46.9l0,0.5
			c0,0.1,0,0.2,0,0.3c0,9.4,8,17.1,17.4,17.1s17.4-7.7,17.4-17.1v0c0-11.2-6.7-18-12.1-23.5c-4.1-4.1-7.9-7.7-6.8-12
			c-0.9,0.2-2.1,0.7-3,1.8c-0.9,1-2.7,3.9-0.4,8.3c2.1,4.2,1.5,6.2,0.6,7.2c-0.8,0.9-2.1,1.1-3.4,0.6c-1-0.4-2-1.3-2.5-2.5
			C-247.9,33.1-249.8,41.9-249.8,46.9z M-233.1,59.5c-4.2,0-7.7-3.4-7.7-7.7c-0.1-2.3,1.2-4.3,2.4-6.3c1.4-2.2,2.7-4.3,2.1-6.8
			l-0.5-2.4l2,1.3c3.8,2.5,9.7,8.5,9.3,14.2C-225.4,56-228.9,59.5-233.1,59.5z M-234.2,40.6c-0.2,2.2-1.4,4.2-2.5,6
			c-1.1,1.8-2.2,3.5-2.1,5.2c0,3.2,2.5,5.7,5.7,5.7c3.1,0,5.7-2.5,5.7-5.7C-227.2,47.9-230.9,43.3-234.2,40.6z"/>
	</g>
</g>
<g>
	<path d="M-243.9,93.8h4.7V95h-3.3v2.2h2.9v1.2h-2.9v3.3h-1.4V93.8z"/>
	<path d="M-237.7,93.8h1.4v7.8h-1.4V93.8z"/>
	<path d="M-230.1,101.6l-1.7-3.1h-1.2v3.1h-1.4v-7.8h2.7c0.4,0,0.8,0,1.1,0.1s0.7,0.2,0.9,0.4c0.3,0.2,0.5,0.4,0.6,0.7
		c0.1,0.3,0.2,0.7,0.2,1.1c0,0.6-0.1,1.1-0.4,1.5c-0.3,0.4-0.7,0.6-1.1,0.8l1.9,3.3H-230.1z M-233,97.5h1.1c0.5,0,0.9-0.1,1.2-0.3
		s0.4-0.6,0.4-1c0-0.5-0.1-0.8-0.4-0.9s-0.7-0.3-1.2-0.3h-1.1V97.5z"/>
	<path d="M-227.2,93.8h4.7V95h-3.3v2h2.8v1.2h-2.8v2.3h3.5v1.2h-4.8V93.8z"/>
</g>
</svg>
