<?xml version="1.0" encoding="utf-8"?>
<!-- Generator: Adobe Illustrator 19.0.0, SVG Export Plug-In . SVG Version: 6.00 Build 0)  -->
<svg version="1.1" id="Layer_1" xmlns="http://www.w3.org/2000/svg" xmlns:xlink="http://www.w3.org/1999/xlink" x="0px" y="0px"
	 viewBox="-279 -5 90 110" style="enable-background:new -279 -5 90 110;" xml:space="preserve">
<style type="text/css">
	.st0{fill:#EC0800;}
	.st1{fill:#FFFFFF;}
</style>
<g>
	<path d="M-259.7,93.9h2.1c1.2,0,2.1,0.3,2.8,1c0.7,0.6,1,1.6,1,2.9c0,0.6-0.1,1.2-0.3,1.7c-0.2,0.5-0.4,0.9-0.7,1.2
		c-0.3,0.3-0.7,0.6-1.2,0.8s-1,0.3-1.6,0.3h-2.2V93.9z M-257.7,100.6c0.8,0,1.4-0.2,1.8-0.7c0.4-0.5,0.6-1.2,0.6-2.1
		c0-1-0.2-1.7-0.6-2.1c-0.4-0.4-1-0.7-1.8-0.7h-0.6v5.6H-257.7z"/>
	<path d="M-252.2,93.9h1.4v7.8h-1.4V93.9z"/>
	<path d="M-248.6,99.8c0.3,0.3,0.6,0.5,1,0.6s0.7,0.2,1.1,0.2c0.4,0,0.8-0.1,1-0.3c0.2-0.2,0.3-0.4,0.3-0.7c0-0.2,0-0.3-0.1-0.4
		c-0.1-0.1-0.1-0.2-0.3-0.3s-0.2-0.2-0.4-0.2c-0.1-0.1-0.3-0.1-0.5-0.2l-1.1-0.5c-0.2-0.1-0.4-0.2-0.6-0.3s-0.4-0.3-0.5-0.4
		c-0.2-0.2-0.3-0.4-0.4-0.6s-0.1-0.5-0.1-0.8c0-0.3,0.1-0.6,0.2-0.9c0.1-0.3,0.3-0.5,0.5-0.7s0.5-0.4,0.8-0.5
		c0.3-0.1,0.7-0.2,1.1-0.2c0.5,0,0.9,0.1,1.3,0.3c0.4,0.2,0.8,0.4,1.1,0.7l-0.7,0.9c-0.3-0.2-0.5-0.4-0.8-0.5s-0.6-0.2-0.9-0.2
		c-0.4,0-0.7,0.1-0.9,0.2c-0.2,0.2-0.3,0.4-0.3,0.7c0,0.2,0,0.3,0.1,0.4c0.1,0.1,0.2,0.2,0.3,0.3c0.1,0.1,0.2,0.2,0.4,0.2
		c0.2,0.1,0.3,0.1,0.5,0.2l1.1,0.4c0.2,0.1,0.4,0.2,0.6,0.3c0.2,0.1,0.4,0.3,0.5,0.4c0.1,0.2,0.2,0.4,0.3,0.6
		c0.1,0.2,0.1,0.5,0.1,0.8c0,0.3-0.1,0.6-0.2,0.9c-0.1,0.3-0.3,0.5-0.6,0.7s-0.5,0.4-0.9,0.5c-0.3,0.1-0.7,0.2-1.2,0.2
		c-0.5,0-1-0.1-1.5-0.3c-0.5-0.2-0.9-0.5-1.3-0.9L-248.6,99.8z"/>
	<path d="M-242.3,93.9h2.6c0.4,0,0.8,0,1.2,0.1c0.4,0.1,0.7,0.2,0.9,0.4c0.3,0.2,0.5,0.4,0.6,0.8c0.2,0.3,0.2,0.7,0.2,1.1
		c0,0.4-0.1,0.8-0.2,1.1c-0.2,0.3-0.4,0.6-0.6,0.8s-0.6,0.4-0.9,0.5c-0.4,0.1-0.8,0.1-1.2,0.1h-1.2v2.9h-1.4V93.9z M-239.8,97.7
		c1.2,0,1.7-0.5,1.7-1.4c0-0.5-0.1-0.8-0.4-1c-0.3-0.2-0.7-0.3-1.3-0.3h-1.1v2.7H-239.8z"/>
	<path d="M-232.1,101.9c-0.5,0-1-0.1-1.4-0.3c-0.4-0.2-0.8-0.5-1.1-0.8c-0.3-0.4-0.5-0.8-0.7-1.3s-0.3-1.1-0.3-1.7
		c0-0.6,0.1-1.2,0.3-1.7c0.2-0.5,0.4-0.9,0.7-1.3s0.7-0.6,1.1-0.8c0.4-0.2,0.9-0.3,1.4-0.3c0.5,0,1,0.1,1.4,0.3
		c0.4,0.2,0.8,0.4,1.1,0.8s0.5,0.8,0.7,1.3c0.2,0.5,0.3,1.1,0.3,1.7c0,0.6-0.1,1.2-0.3,1.7c-0.2,0.5-0.4,0.9-0.7,1.3
		c-0.3,0.4-0.7,0.6-1.1,0.8C-231.2,101.8-231.6,101.9-232.1,101.9z M-232.1,100.6c0.3,0,0.6-0.1,0.8-0.2s0.5-0.3,0.6-0.6
		c0.2-0.3,0.3-0.6,0.4-0.9c0.1-0.4,0.1-0.8,0.1-1.2c0-0.9-0.2-1.6-0.5-2.1c-0.4-0.5-0.9-0.8-1.5-0.8s-1.1,0.2-1.5,0.8
		c-0.4,0.5-0.5,1.2-0.5,2.1c0,0.4,0,0.8,0.1,1.2c0.1,0.4,0.2,0.7,0.4,0.9s0.4,0.4,0.6,0.6C-232.7,100.6-232.5,100.6-232.1,100.6z"/>
	<path d="M-226.8,99.8c0.3,0.3,0.6,0.5,1,0.6s0.7,0.2,1.1,0.2c0.4,0,0.8-0.1,1-0.3c0.2-0.2,0.3-0.4,0.3-0.7c0-0.2,0-0.3-0.1-0.4
		c-0.1-0.1-0.1-0.2-0.3-0.3s-0.2-0.2-0.4-0.2c-0.1-0.1-0.3-0.1-0.5-0.2l-1.1-0.5c-0.2-0.1-0.4-0.2-0.6-0.3s-0.4-0.3-0.5-0.4
		c-0.2-0.2-0.3-0.4-0.4-0.6s-0.1-0.5-0.1-0.8c0-0.3,0.1-0.6,0.2-0.9c0.1-0.3,0.3-0.5,0.5-0.7s0.5-0.4,0.8-0.5
		c0.3-0.1,0.7-0.2,1.1-0.2c0.5,0,0.9,0.1,1.3,0.3c0.4,0.2,0.8,0.4,1.1,0.7l-0.7,0.9c-0.3-0.2-0.5-0.4-0.8-0.5s-0.6-0.2-0.9-0.2
		c-0.4,0-0.7,0.1-0.9,0.2c-0.2,0.2-0.3,0.4-0.3,0.7c0,0.2,0,0.3,0.1,0.4c0.1,0.1,0.2,0.2,0.3,0.3c0.1,0.1,0.2,0.2,0.4,0.2
		c0.2,0.1,0.3,0.1,0.5,0.2l1.1,0.4c0.2,0.1,0.4,0.2,0.6,0.3c0.2,0.1,0.4,0.3,0.5,0.4c0.1,0.2,0.2,0.4,0.3,0.6
		c0.1,0.2,0.1,0.5,0.1,0.8c0,0.3-0.1,0.6-0.2,0.9c-0.1,0.3-0.3,0.5-0.6,0.7s-0.5,0.4-0.9,0.5c-0.3,0.1-0.7,0.2-1.2,0.2
		c-0.5,0-1-0.1-1.5-0.3c-0.5-0.2-0.9-0.5-1.3-0.9L-226.8,99.8z"/>
	<path d="M-216.9,99.6h-2.6l-0.6,2.1h-1.4l2.6-7.8h1.6l2.6,7.8h-1.5L-216.9,99.6z M-217.2,98.5l-0.3-1c-0.1-0.4-0.3-0.8-0.4-1.3
		c-0.1-0.4-0.2-0.9-0.3-1.3h0c-0.1,0.4-0.2,0.9-0.3,1.3c-0.1,0.4-0.2,0.9-0.4,1.3l-0.3,1H-217.2z"/>
	<path d="M-213.9,93.9h1.4v6.7h3.3v1.2h-4.7V93.9z"/>
</g>
<g>
	
		<rect x="-264.8" y="11" transform="matrix(0.7071 -0.7071 0.7071 0.7071 -98.0102 -153.4835)" class="st0" width="61.1" height="61.1"/>
	<g>
		<path class="st1" d="M-241.3,56.8c0.6,0,1-0.4,1-1v-17c0-0.6-0.4-1-1-1s-1,0.4-1,1v17C-242.3,56.4-241.8,56.8-241.3,56.8z"/>
		<path class="st1" d="M-234.3,56.8c0.6,0,1-0.4,1-1v-17c0-0.6-0.4-1-1-1s-1,0.4-1,1v17C-235.3,56.4-234.8,56.8-234.3,56.8z"/>
		<path class="st1" d="M-227.3,56.8c0.6,0,1-0.4,1-1v-17c0-0.6-0.4-1-1-1s-1,0.4-1,1v17C-228.3,56.4-227.8,56.8-227.3,56.8z"/>
		<path class="st1" d="M-213.3,22.8h-13v-7h-16v7h-13v10h5v31h32v-31h5V22.8z M-240.3,17.8h12v5h-12V17.8z M-220.3,61.8h-28v-29h28
			V61.8z M-215.3,30.8h-3h-32h-3v-6h11h16h11V30.8z"/>
	</g>
</g>
</svg>
