<?xml version="1.0" encoding="utf-8"?>
<!-- Generator: Adobe Illustrator 19.0.1, SVG Export Plug-In . SVG Version: 6.00 Build 0)  -->
<svg version="1.1" id="Layer_1" xmlns="http://www.w3.org/2000/svg" xmlns:xlink="http://www.w3.org/1999/xlink" x="0px" y="0px"
	 viewBox="0 0 32 32" style="enable-background:new 0 0 32 32;" xml:space="preserve">
<style type="text/css">
	.st0{fill:none;stroke:#FFFFFF;stroke-width:2;stroke-miterlimit:10;}
	.st1{clip-path:url(#SVGID_2_);fill:none;stroke:#FFFFFF;stroke-width:2;stroke-linecap:square;stroke-miterlimit:10;}
</style>
<path class="st0" d="M17,16h6 M7.4,23.8l3.2-4.6 M7.4,8.2l3.2,4.6"/>
<g>
	<defs>
		<rect id="SVGID_1_" width="32" height="32"/>
	</defs>
	<clipPath id="SVGID_2_">
		<use xlink:href="#SVGID_1_"  style="overflow:visible;"/>
	</clipPath>
	<path class="st1" d="M13,12c2.2,0,4,1.8,4,4s-1.8,4-4,4s-4-1.8-4-4S10.8,12,13,12z M27,12c2.2,0,4,1.8,4,4s-1.8,4-4,4s-4-1.8-4-4
		S24.8,12,27,12z M5,23c2.2,0,4,1.8,4,4s-1.8,4-4,4s-4-1.8-4-4S2.8,23,5,23z M5,1c2.2,0,4,1.8,4,4S7.2,9,5,9S1,7.2,1,5S2.8,1,5,1z"
		/>
</g>
</svg>
