<?xml version="1.0" encoding="utf-8"?>
<!-- Generator: Adobe Illustrator 19.0.1, SVG Export Plug-In . SVG Version: 6.00 Build 0)  -->
<svg version="1.1" id="Layer_1" xmlns="http://www.w3.org/2000/svg" xmlns:xlink="http://www.w3.org/1999/xlink" x="0px" y="0px"
	 viewBox="0 0 32 30" style="enable-background:new 0 0 32 30;" xml:space="preserve">
<style type="text/css">
	.st0{clip-path:url(#SVGID_2_);fill:none;stroke:#FFFFFF;stroke-width:2;stroke-miterlimit:10;}
	.st1{clip-path:url(#SVGID_2_);fill:none;stroke:#FFFFFF;stroke-width:2;stroke-linecap:square;stroke-miterlimit:10;}
</style>
<g>
	<defs>
		<rect id="SVGID_1_" x="0" width="32" height="30"/>
	</defs>
	<clipPath id="SVGID_2_">
		<use xlink:href="#SVGID_1_"  style="overflow:visible;"/>
	</clipPath>
	<path class="st0" d="M9.1,16.6l-6.8,4.5C1.5,21.7,1,22.6,1,23.6V29h24v-5.4c0-1-0.5-1.9-1.3-2.5l-6.8-4.5 M18,5.7V5.5
		C18,3,20,1,22.5,1S27,3,27,5.5v2c0,2.5-2,4.5-4.5,4.5c-1.4,0-2.7-0.7-3.5-1.7 M22,20h9v-5.2c0-1.1-0.6-2.1-1.5-2.6l-3.4-1.9"/>
	<path class="st1" d="M13,18L13,18c-3.3,0-6-2.7-6-6V9c0-3.3,2.7-6,6-6s6,2.7,6,6v3C19,15.3,16.3,18,13,18z"/>
</g>
</svg>
