<?xml version="1.0" encoding="utf-8"?>
<!-- Generator: Adobe Illustrator 22.1.0, SVG Export Plug-In . SVG Version: 6.00 Build 0)  -->
<svg version="1.1" id="Layer_1" xmlns="http://www.w3.org/2000/svg" xmlns:xlink="http://www.w3.org/1999/xlink" x="0px" y="0px"
	 viewBox="0 0 612 657" style="enable-background:new 0 0 612 657;" xml:space="preserve">
<style type="text/css">
	.st0{fill:#9668AC;}
</style>
<path class="st0" d="M609.9,627L505.4,463.7c-3.3-6.5-9.8-9.8-16.3-9.8h-75.1C489,352.7,528.2,274.3,528.2,215.5
	C528.2,81.6,413.9,0,302.9,0C195.1,3.3,80.8,84.9,80.8,218.8c0,55.5,39.2,137.2,114.3,238.4H120c-6.5,0-13.1,3.3-16.3,9.8L2.4,630.3
	c-3.3,6.5-3.3,13.1,0,19.6c3.3,3.3,6.5,6.5,13.1,6.5h574.7c6.5,0,13.1-3.3,16.3-9.8C613.1,643.3,613.1,633.5,609.9,627z
	 M106.9,215.5C106.9,98,208.2,26.1,306.2,26.1S505.4,98,505.4,215.5c0,71.8-75.1,179.6-137.2,258l-3.3,3.3
	c-22.9,29.4-45.7,55.5-58.8,68.6C267,506.2,106.9,320,106.9,215.5z M35.1,630.3L126.5,480h88.2c35.9,45.7,75.1,84.9,78.4,88.2
	c6.5,6.5,19.6,6.5,26.1,0c3.3-3.3,39.2-42.5,78.4-88.2H489l88.2,150.2C577.2,630.3,35.1,630.3,35.1,630.3z"/>
<path class="st0" d="M306.2,147c-45.7,0-81.6,35.9-81.6,81.6s35.9,78.4,81.6,78.4s81.6-35.9,81.6-81.6
	C384.5,182.9,348.6,147,306.2,147z M306.2,287.4c-32.7,0-58.8-26.1-58.8-58.8s26.1-58.8,58.8-58.8s58.8,26.1,58.8,58.8
	S338.8,287.4,306.2,287.4z"/>
</svg>
