<?xml version="1.0" encoding="utf-8"?>
<!-- Generator: Adobe Illustrator 19.0.1, SVG Export Plug-In . SVG Version: 6.00 Build 0)  -->
<svg version="1.1" id="Layer_1" xmlns="http://www.w3.org/2000/svg" xmlns:xlink="http://www.w3.org/1999/xlink" x="0px" y="0px"
	 viewBox="0 0 28.1 32" style="enable-background:new 0 0 28.1 32;" xml:space="preserve">
<style type="text/css">
	.st0{clip-path:url(#SVGID_2_);fill:none;stroke:#FFFFFF;stroke-width:2;stroke-linecap:round;stroke-miterlimit:10;}
	.st1{fill:none;stroke:#FFFFFF;stroke-width:2;stroke-linecap:square;stroke-linejoin:round;stroke-miterlimit:10;}
	.st2{clip-path:url(#SVGID_4_);fill:none;stroke:#FFFFFF;stroke-width:1.547;stroke-linecap:round;stroke-miterlimit:10;}
</style>
<g>
	<defs>
		<rect id="SVGID_1_" x="0" width="28.1" height="32"/>
	</defs>
	<clipPath id="SVGID_2_">
		<use xlink:href="#SVGID_1_"  style="overflow:visible;"/>
	</clipPath>
	<path class="st0" d="M18.8,31H4.4V1h14.4h6.1c1.2,0,2.2,1,2.2,2.2v25.6c0,1.2-1,2.2-2.2,2.2H18.8z"/>
</g>
<line class="st1" x1="12.6" y1="21.6" x2="22.3" y2="21.6"/>
<line class="st1" x1="12.6" y1="16" x2="18" y2="16"/>
<line class="st1" x1="12.6" y1="10.4" x2="22.3" y2="10.4"/>
<g>
	<defs>
		<rect id="SVGID_3_" x="0" width="28.1" height="32"/>
	</defs>
	<clipPath id="SVGID_4_">
		<use xlink:href="#SVGID_3_"  style="overflow:visible;"/>
	</clipPath>
	<path class="st2" d="M3.8,24.5c-1.7,0-3-1-3-2.2c0-1.2,1.4-2.2,3-2.2s3,1,3,2.2 M3.9,18c-1.7,0-3.1-1-3.1-2.2
		c0-1.2,1.4-2.2,3.1-2.2s3.1,1,3.1,2.2 M3.8,11.5c-1.7,0-3-1-3-2.2c0-1.2,1.4-2.2,3-2.2s3,1,3,2.2"/>
</g>
</svg>
