<?xml version="1.0" encoding="utf-8"?>
<!-- Generator: Adobe Illustrator 19.0.1, SVG Export Plug-In . SVG Version: 6.00 Build 0)  -->
<svg version="1.1" id="Layer_1" xmlns="http://www.w3.org/2000/svg" xmlns:xlink="http://www.w3.org/1999/xlink" x="0px" y="0px"
	 viewBox="0 0 33.9 34" style="enable-background:new 0 0 33.9 34;" xml:space="preserve">
<style type="text/css">
	
		.st0{clip-path:url(#SVGID_2_);fill:none;stroke:#FFFFFF;stroke-width:2;stroke-linecap:round;stroke-linejoin:round;stroke-miterlimit:10;}
	.st1{clip-path:url(#SVGID_2_);fill:none;stroke:#FFFFFF;stroke-width:2;stroke-miterlimit:10;}
</style>
<g>
	<defs>
		<rect id="SVGID_1_" width="33.9" height="34"/>
	</defs>
	<clipPath id="SVGID_2_">
		<use xlink:href="#SVGID_1_"  style="overflow:visible;"/>
	</clipPath>
	<path class="st0" d="M7.9,25.9H4.6c-1.2,0-2.2-0.9-2.2-2.2c0-1.2,0.9-2.2,2.2-2.2h6.9 M14.8,17.2H4.6c-1.2,0-2.2-0.9-2.2-2.2
		c0-1.2,0.9-2.2,2.2-2.2H12 M10,21.5H3.2c-1.2,0-2.2-0.9-2.2-2.2c0-1.2,0.9-2.2,2.2-2.2h11.6"/>
	<path class="st1" d="M9,33h17.7c2.4,0,3.8-2.7,2.3-4.7L20.4,17l-0.8-3.2h-4.6V17L6.6,28.3C5.3,30.3,6.6,33,9,33z M20.7,9.4v-4h3V1
		h-3h-5.8H12v4.4h2.9v4H20.7z"/>
	<path class="st0" d="M25.7,20.3c-3.1,0-5.8-3.1-5.8-6.5h-2.9c-2.5,0-4.4-1.8-4.4-4.4H22c6,0,10.9,4.9,10.9,10.9s-0.4,7.3-3.3,10.2"
		/>
</g>
</svg>
