<?xml version="1.0" encoding="utf-8"?>
<!-- Generator: Adobe Illustrator 19.0.1, SVG Export Plug-In . SVG Version: 6.00 Build 0)  -->
<svg version="1.1" id="Layer_1" xmlns="http://www.w3.org/2000/svg" xmlns:xlink="http://www.w3.org/1999/xlink" x="0px" y="0px"
	 viewBox="0 0 22 32" style="enable-background:new 0 0 22 32;" xml:space="preserve">
<style type="text/css">
	.st0{clip-path:url(#SVGID_2_);fill:none;stroke:#FFFFFF;stroke-width:2;stroke-linecap:square;stroke-miterlimit:10;}
	.st1{clip-path:url(#SVGID_2_);fill:none;stroke:#FFFFFF;stroke-width:2;stroke-miterlimit:10;}
</style>
<g>
	<defs>
		<rect id="SVGID_1_" width="22" height="32"/>
	</defs>
	<clipPath id="SVGID_2_">
		<use xlink:href="#SVGID_1_"  style="overflow:visible;"/>
	</clipPath>
	<path class="st0" d="M11,26c0.6,0,1,0.4,1,1s-0.4,1-1,1s-1-0.4-1-1S10.4,26,11,26z M5,14h2l2-3l4,7l2-4h2"/>
	<path class="st1" d="M1,6h20 M1,23h20"/>
	<path class="st0" d="M19,31H3c-1.1,0-2-0.9-2-2V3c0-1.1,0.9-2,2-2h16c1.1,0,2,0.9,2,2v26C21,30.1,20.1,31,19,31z"/>
</g>
</svg>
