<?xml version="1.0" encoding="utf-8"?>
<!-- Generator: Adobe Illustrator 19.2.1, SVG Export Plug-In . SVG Version: 6.00 Build 0)  -->
<svg version="1.1" id="Layer_1" xmlns="http://www.w3.org/2000/svg" xmlns:xlink="http://www.w3.org/1999/xlink" x="0px" y="0px"
	 viewBox="0 0 280 72" style="enable-background:new 0 0 280 72;" xml:space="preserve">
<style type="text/css">
	.st0{fill:#FFFFFF;}
	.st1{clip-path:url(#SVGID_2_);fill:#0067A2;}
	.st2{clip-path:url(#SVGID_2_);fill:#DA473F;}
</style>
<polygon class="st0" points="0,0 0,72 257.6,72 280,49.5 280,0 "/>
<g>
	<defs>
		<rect id="SVGID_1_" width="280" height="72"/>
	</defs>
	<clipPath id="SVGID_2_">
		<use xlink:href="#SVGID_1_"  style="overflow:visible;"/>
	</clipPath>
	<path class="st1" d="M217.8,54.7h8.8v-2.8h-1v1.8h-5.1v-4.9h4.2v-0.9h-4.2v-4.6h5.1v1.9h1v-2.8h-8.8v0.9h1.6v10.4h-1.6V54.7z
		 M208.7,53.9c-3,0-5.1-2.4-5.1-5.4c0-3,2.1-5.4,5.1-5.4s5.1,2.4,5.1,5.4C213.8,51.6,211.7,53.9,208.7,53.9 M208.7,54.9
		c3.6,0,6.2-2.8,6.2-6.4c0-3.5-2.6-6.3-6.1-6.3c-3.6,0-6.2,2.8-6.2,6.4C202.6,52.1,205.2,54.9,208.7,54.9 M194.5,48.6
		c-0.6,0-1.2,0-1.6,0v-5.2h1.8c2,0,3.3,0.9,3.3,2.6C198,47.7,196.5,48.6,194.5,48.6 M190.1,54.7h4.4v-0.9h-1.6v-4.3
		c0.4,0,1.1,0,1.6,0c0.2,0,0.5,0,0.7,0l3.3,5.2h2.2v-0.9h-1.5l-2.9-4.5c1.6-0.5,2.8-1.7,2.8-3.4c0-2.1-1.6-3.5-4.3-3.5h-4.6v0.9h1.6
		v10.4h-1.6V54.7z M185.5,54.7h0.6V43.3h1.6v-0.9h-4.2v0.9h1.6v9.2l-7.6-10.1H175v0.9h1.6v10.4H175v0.9h4.3v-0.9h-1.6v-9.5
		L185.5,54.7z M166.5,54.9c2.8,0,4.4-1.6,4.4-4.4v-7.2h1.6v-0.9h-4.4v0.9h1.7v7.2c0,2.3-1.3,3.4-3.4,3.4c-2.1,0-3.3-1.1-3.3-3.5
		v-7.1h1.7v-0.9h-4.4v0.9h1.6v7.2C162.1,53.3,163.7,54.9,166.5,54.9 M143.6,54.7h4.3v-0.9h-1.6l0.3-9.6l4.2,8.9h0.4l4.2-8.9l0.3,9.6
		h-1.6v0.9h4.3v-0.9h-1.7l-0.5-10.4h1.7v-0.9h-2.8l-4.1,9l-4.1-9H144v0.9h1.7l-0.5,10.4h-1.7V54.7z M127.5,54.7h8.4v-2.9h-1v1.9
		h-4.7V43.3h1.7v-0.9h-4.4v0.9h1.6v10.4h-1.6V54.7z M116.3,54.7h8.4v-2.9h-1v1.9H119V43.3h1.7v-0.9h-4.4v0.9h1.6v10.4h-1.6V54.7z
		 M105.7,49.4l2.3-6.1l2.3,6.1H105.7z M101.7,54.7h3.8v-0.9h-1.5l1.3-3.5h5.2l1.3,3.5h-1.4v0.9h3.8v-0.9H113l-3.9-10.4h1.4v-0.9h-5
		v0.9h1.4L103,53.7h-1.2V54.7z M91.1,53.7V43.3H93c3.7,0,6,2,6,5c0,3.2-1.9,5.4-5.8,5.4H91.1z M88.4,54.7H93c4.4,0,7-2.6,7-6.3
		c0-3.6-2.8-6-7.1-6h-4.6v0.9h1.6v10.4h-1.6V54.7z M83.8,54.7h0.6V43.3H86v-0.9h-4.2v0.9h1.6v9.2l-7.6-10.1h-2.6v0.9h1.6v10.4h-1.6
		v0.9h4.3v-0.9h-1.6v-9.5L83.8,54.7z M62.6,49.4l2.3-6.1l2.3,6.1H62.6z M58.6,54.7h3.8v-0.9H61l1.3-3.5h5.2l1.3,3.5h-1.4v0.9h3.8
		v-0.9h-1.2L66,43.3h1.4v-0.9h-5v0.9h1.4l-3.9,10.4h-1.2V54.7z M51.3,48.6c-0.6,0-1.2,0-1.6,0v-5.2h1.9c2,0,3.3,0.9,3.3,2.6
		C54.8,47.7,53.3,48.6,51.3,48.6 M47,54.7h4.4v-0.9h-1.6v-4.3c0.4,0,1.1,0,1.6,0c0.2,0,0.5,0,0.7,0l3.3,5.2h2.2v-0.9H56l-2.9-4.5
		c1.6-0.5,2.8-1.7,2.8-3.4c0-2.1-1.6-3.5-4.3-3.5H47v0.9h1.6v10.4H47V54.7z M31.8,54.7h4.7v-0.9h-1.8v-4.1l3.7-6.3h1.4v-0.9h-3.9
		v0.9h1.4l-3.1,5.4l-3-5.4h1.3v-0.9h-3.9v0.9H30l3.7,6.3v4.1h-1.8V54.7z M20.3,48v-4.6h2.2c1.9,0,3,0.8,3,2.2c0,1.4-1,2.4-3.2,2.4
		H20.3z M20.3,53.7v-4.9h2c2.2,0,3.6,0.8,3.6,2.5c0,1.3-1,2.4-3,2.4H20.3z M17.6,54.7h5.2c2.6,0,4.1-1.4,4.1-3.3c0-1.6-1-2.5-2.7-3
		c1.4-0.4,2.3-1.4,2.3-2.9c0-1.6-1.1-3.1-4-3.1h-4.9v0.9h1.6v10.4h-1.6V54.7z"/>
	<path class="st2" d="M204.9,20.1c0.2-0.1,0.7-0.1,1.5-0.1c1.5,0,2.4,0.7,2.4,1.9c0,1.2-0.9,2-2.5,2h-1.3V20.1z M201.8,31.8h3.2
		v-5.6h0.9c1.3,0,1.9,0.5,2.3,2.3c0.4,1.8,0.8,2.9,1,3.3h3.3c-0.3-0.5-0.7-2.4-1.1-4c-0.4-1.3-0.9-2.2-1.9-2.6v-0.1
		c1.2-0.4,2.5-1.7,2.5-3.5c0-1.3-0.5-2.3-1.3-3c-1-0.8-2.5-1.1-4.6-1.1c-1.7,0-3.2,0.1-4.3,0.3V31.8z M197.7,23.2h-5.2v-2.9h5.5
		v-2.6h-8.7v14.2h9v-2.6h-5.8v-3.4h5.2V23.2z M176.5,31.8v-4.3c0-2.3,0-4.3-0.1-6.2h0.1c0.7,1.7,1.6,3.5,2.5,5l3,5.5h3.4V17.7h-2.9
		v4.1c0,2.1,0.1,4.1,0.3,5.9h0c-0.7-1.6-1.5-3.4-2.3-4.9l-2.9-5.2h-3.7v14.2H176.5z M166.3,31.8h3.2V17.7h-3.2V31.8z M155,25.8
		l0.8-3c0.2-0.8,0.4-1.9,0.7-2.7h0c0.2,0.8,0.5,1.9,0.7,2.7l0.9,3H155z M158.6,28.2l1.1,3.6h3.5l-4.4-14.2h-4.2l-4.3,14.2h3.3l1-3.6
		H158.6z M139.1,31.8h8.8v-2.7h-5.6V17.7h-3.2V31.8z M128.8,20.1c0.2-0.1,0.7-0.1,1.3-0.1c1.6,0,2.5,0.8,2.5,2.1
		c0,1.4-1.1,2.3-2.8,2.3c-0.5,0-0.8,0-1.1-0.1V20.1z M125.6,31.8h3.2v-5.1c0.3,0.1,0.7,0.1,1.1,0.1c1.9,0,3.5-0.5,4.6-1.5
		c0.9-0.8,1.3-2,1.3-3.4c0-1.4-0.6-2.6-1.5-3.3c-0.9-0.8-2.4-1.1-4.3-1.1c-2,0-3.3,0.1-4.3,0.3V31.8z M122.7,31.8l-4.2-7.2l4-6.9
		h-3.7l-1.2,2.6c-0.4,0.8-0.6,1.5-1,2.4h0c-0.3-0.8-0.7-1.5-1.1-2.4l-1.2-2.6h-3.7l3.9,7l-4.1,7.2h3.7l1.2-2.6
		c0.5-1,0.8-1.7,1.1-2.5h0c0.4,0.8,0.7,1.6,1.3,2.5l1.3,2.6H122.7z M107.4,23.2h-5.2v-2.9h5.5v-2.6H99v14.2h9v-2.6h-5.8v-3.4h5.2
		V23.2z M83.1,32.1c1.6,0,2.9-0.5,3.9-1.3v1.1h2.4v-7.4h-6v2.1h3.6V29c-0.9,0.6-2,0.9-3.5,0.9c-2.4,0-4.7-2-4.7-5.2
		c0-3.1,2.1-5.2,4.9-5.2c1.3,0,2.1,0.3,2.6,0.7c-0.1,0.2-0.2,0.5-0.2,0.7c0,0.9,0.7,1.5,1.7,1.5c0.9,0,1.6-0.7,1.6-1.8
		c0-1.7-2.2-3.5-5.6-3.5c-4.2,0-7.5,3-7.5,7.5C76.2,29.3,79.5,32.1,83.1,32.1 M70.9,31.9l1.3,0V19.7h1.6v-2.2h-5.8v2.2h1.8v6.8
		l-7.1-9h-3.7v2.2h1.6v9.9h-1.6v2.2h5.8v-2.2h-1.8v-7.7L70.9,31.9z M50.3,31.8h5.9v-2.2h-1.7v-9.9h1.7v-2.2h-5.9v2.2H52v9.9h-1.7
		V31.8z M32.6,31.8h5.9v-2.2h-1.8v-4h6.6v4h-1.8v2.2h5.9v-2.2h-1.6v-9.9h1.6v-2.2h-5.9v2.2h1.8v3.8h-6.6v-3.8h1.8v-2.2h-5.9v2.2h1.6
		v9.9h-1.6V31.8z M20.8,31.8h6v-2.2h-1.8v-10h2.7v2.3h2.3v-4.4H17.6v4.4H20v-2.3h2.7v10h-1.8V31.8z"/>
</g>
</svg>
