<?xml version="1.0" encoding="utf-8"?>
<!-- Generator: Adobe Illustrator 19.2.1, SVG Export Plug-In . SVG Version: 6.00 Build 0)  -->
<svg version="1.1" id="Layer_1" xmlns="http://www.w3.org/2000/svg" xmlns:xlink="http://www.w3.org/1999/xlink" x="0px" y="0px"
	 viewBox="0 0 460 72" style="enable-background:new 0 0 460 72;" xml:space="preserve">
<style type="text/css">
	.st0{fill:#FFFFFF;}
	.st1{clip-path:url(#SVGID_2_);fill:#0067A2;}
	.st2{clip-path:url(#SVGID_2_);fill:#DA473F;}
</style>
<polygon class="st0" points="1,0 1,72 438,72 461,49.5 461,0 "/>
<g>
	<defs>
		<rect id="SVGID_1_" x="1" width="460" height="72"/>
	</defs>
	<clipPath id="SVGID_2_">
		<use xlink:href="#SVGID_1_"  style="overflow:visible;"/>
	</clipPath>
	<path class="st1" d="M423.9,55.4h8.8v-2.8h-1v1.9h-5.1v-4.9h4.2v-0.9h-4.2V44h5.1v1.9h1v-2.8h-8.8V44h1.6v10.4h-1.6V55.4z
		 M414.9,54.6c-3,0-5.1-2.4-5.1-5.4c0-3,2.1-5.4,5.1-5.4s5.1,2.4,5.1,5.4C420,52.3,417.9,54.6,414.9,54.6 M414.8,55.6
		c3.6,0,6.2-2.8,6.2-6.4c0-3.5-2.6-6.3-6.1-6.3c-3.6,0-6.2,2.8-6.2,6.4C408.7,52.8,411.3,55.6,414.8,55.6 M400.6,49.3
		c-0.6,0-1.2,0-1.6,0V44h1.8c2,0,3.3,0.9,3.3,2.6C404.1,48.4,402.6,49.3,400.6,49.3 M396.3,55.4h4.4v-0.9H399v-4.3
		c0.4,0,1.1,0,1.6,0c0.2,0,0.5,0,0.7,0l3.3,5.2h2.2v-0.9h-1.5l-2.9-4.5c1.6-0.5,2.8-1.7,2.8-3.4c0-2.1-1.6-3.5-4.3-3.5h-4.6V44h1.6
		v10.4h-1.6V55.4z M391.6,55.4h0.6V44h1.6v-0.9h-4.2V44h1.6v9.2l-7.6-10.1h-2.6V44h1.6v10.4h-1.6v0.9h4.3v-0.9h-1.6v-9.5L391.6,55.4
		z M372.6,55.6c2.8,0,4.4-1.6,4.4-4.4V44h1.6v-0.9h-4.4V44h1.7v7.2c0,2.3-1.3,3.4-3.4,3.4c-2.1,0-3.3-1.1-3.3-3.5V44h1.7v-0.9h-4.4
		V44h1.6v7.2C368.3,54,369.8,55.6,372.6,55.6 M349.7,55.4h4.3v-0.9h-1.6l0.3-9.6l4.2,8.9h0.4l4.2-8.9l0.3,9.6h-1.6v0.9h4.3v-0.9
		h-1.7L362.4,44h1.7v-0.9h-2.8l-4.1,9l-4.1-9h-2.8V44h1.7l-0.5,10.4h-1.7V55.4z M333.6,55.4h8.4v-2.9h-1v1.9h-4.7V44h1.7v-0.9h-4.4
		V44h1.6v10.4h-1.6V55.4z M322.5,55.4h8.4v-2.9h-1v1.9h-4.7V44h1.7v-0.9h-4.4V44h1.6v10.4h-1.6V55.4z M311.8,50.1l2.3-6.1l2.3,6.1
		H311.8z M307.9,55.4h3.8v-0.9h-1.5l1.3-3.5h5.2l1.3,3.5h-1.4v0.9h3.8v-0.9h-1.2L315.2,44h1.4v-0.9h-5V44h1.4l-3.9,10.4h-1.2V55.4z
		 M297.2,54.4V44h1.8c3.7,0,6,2,6,5c0,3.2-1.9,5.4-5.8,5.4H297.2z M294.5,55.4h4.6c4.4,0,7-2.6,7-6.3c0-3.6-2.8-6-7.1-6h-4.6V44h1.6
		v10.4h-1.6V55.4z M289.9,55.4h0.6V44h1.6v-0.9h-4.2V44h1.6v9.2l-7.6-10.1h-2.6V44h1.6v10.4h-1.6v0.9h4.3v-0.9H282v-9.5L289.9,55.4z
		 M268.7,50.1l2.3-6.1l2.3,6.1H268.7z M264.7,55.4h3.8v-0.9h-1.5l1.3-3.5h5.2l1.3,3.5h-1.4v0.9h3.8v-0.9H276L272.1,44h1.4v-0.9h-5
		V44h1.4L266,54.4h-1.2V55.4z M257.4,49.3c-0.6,0-1.2,0-1.6,0V44h1.8c2,0,3.3,0.9,3.3,2.6C260.9,48.4,259.4,49.3,257.4,49.3
		 M253.1,55.4h4.4v-0.9h-1.6v-4.3c0.4,0,1.1,0,1.6,0c0.2,0,0.5,0,0.7,0l3.3,5.2h2.2v-0.9h-1.5l-2.9-4.5c1.6-0.5,2.8-1.7,2.8-3.4
		c0-2.1-1.6-3.5-4.3-3.5h-4.6V44h1.6v10.4h-1.6V55.4z M238,55.4h4.7v-0.9h-1.8v-4.1l3.7-6.3h1.4v-0.9H242V44h1.4l-3.1,5.4l-3-5.4
		h1.3v-0.9h-3.9V44h1.3l3.7,6.3v4.1H238V55.4z M226.5,48.7V44h2.2c1.9,0,3,0.8,3,2.2c0,1.4-1,2.4-3.2,2.4H226.5z M226.5,54.4v-4.9h2
		c2.2,0,3.5,0.8,3.5,2.5c0,1.3-1,2.4-3,2.4H226.5z M223.7,55.4h5.2c2.6,0,4.1-1.4,4.1-3.3c0-1.6-1-2.5-2.7-3
		c1.4-0.4,2.3-1.4,2.3-2.9c0-1.6-1.1-3.1-4-3.1h-4.9V44h1.6v10.4h-1.6V55.4z"/>
	<path class="st2" d="M207.8,43.6c0.2-0.1,0.7-0.1,1.5-0.1c1.5,0,2.4,0.7,2.4,1.9c0,1.2-0.9,2-2.5,2h-1.3V43.6z M204.6,55.4h3.2
		v-5.6h0.9c1.3,0,1.9,0.5,2.3,2.3c0.4,1.8,0.8,2.9,1,3.3h3.3c-0.3-0.5-0.7-2.4-1.1-4c-0.4-1.3-0.9-2.2-1.9-2.6v-0.1
		c1.2-0.4,2.5-1.7,2.5-3.5c0-1.3-0.5-2.3-1.3-3c-1-0.8-2.5-1.1-4.6-1.1c-1.7,0-3.2,0.1-4.3,0.3V55.4z M200.5,46.8h-5.2v-2.9h5.5
		v-2.6h-8.7v14.2h9v-2.6h-5.8v-3.4h5.2V46.8z M179.3,55.4v-4.3c0-2.3,0-4.3-0.1-6.2h0.1c0.7,1.7,1.6,3.5,2.5,5l3,5.5h3.4V41.2h-2.9
		v4.1c0,2.1,0.1,4.1,0.3,5.9h0c-0.7-1.6-1.5-3.4-2.3-4.9l-2.9-5.2h-3.7v14.2H179.3z M169.1,55.4h3.2V41.2h-3.2V55.4z M157.8,49.4
		l0.8-3c0.2-0.8,0.4-1.9,0.7-2.7h0c0.2,0.8,0.5,1.9,0.7,2.7l0.9,3H157.8z M161.4,51.7l1.1,3.6h3.5l-4.4-14.2h-4.2l-4.3,14.2h3.3
		l1-3.6H161.4z M142,55.4h8.8v-2.7h-5.6V41.2H142V55.4z M131.6,43.7c0.2-0.1,0.7-0.1,1.3-0.1c1.6,0,2.5,0.8,2.5,2.1
		c0,1.4-1.1,2.3-2.8,2.3c-0.5,0-0.8,0-1.1-0.1V43.7z M128.5,55.4h3.2v-5.1c0.3,0.1,0.7,0.1,1.1,0.1c1.9,0,3.5-0.5,4.6-1.5
		c0.9-0.8,1.3-2,1.3-3.4s-0.6-2.6-1.5-3.3c-0.9-0.8-2.4-1.1-4.3-1.1c-2,0-3.3,0.1-4.3,0.3V55.4z M125.5,55.4l-4.2-7.2l4-6.9h-3.7
		l-1.2,2.6c-0.4,0.8-0.6,1.5-1,2.4h0c-0.3-0.8-0.7-1.5-1.1-2.4l-1.2-2.6h-3.7l3.9,7l-4.1,7.2h3.7l1.2-2.6c0.5-1,0.8-1.7,1.1-2.5h0
		c0.4,0.8,0.7,1.6,1.3,2.5l1.3,2.6H125.5z M110.3,46.8h-5.2v-2.9h5.5v-2.6h-8.7v14.2h9v-2.6h-5.8v-3.4h5.2V46.8z M85.9,55.6
		c1.6,0,2.9-0.5,3.9-1.3v1.1h2.4V48h-6V50h3.6v2.5c-0.9,0.6-2,0.9-3.5,0.9c-2.4,0-4.7-2-4.7-5.2c0-3.1,2.1-5.2,4.9-5.2
		c1.3,0,2.1,0.3,2.6,0.7c-0.1,0.2-0.2,0.5-0.2,0.7c0,0.9,0.7,1.5,1.7,1.5c0.9,0,1.6-0.7,1.6-1.8c0-1.7-2.2-3.5-5.6-3.5
		c-4.2,0-7.5,3-7.5,7.5C79,52.9,82.4,55.6,85.9,55.6 M73.8,55.4l1.3,0V43.2h1.6V41h-5.8v2.2h1.8V50l-7.1-9h-3.7v2.2h1.6v9.9h-1.6
		v2.2h5.8v-2.2h-1.8v-7.7L73.8,55.4z M53.1,55.4h5.9v-2.2h-1.7v-9.9h1.7V41h-5.9v2.2h1.7v9.9h-1.7V55.4z M35.4,55.4h5.9v-2.2h-1.8
		v-4h6.6v4h-1.8v2.2h5.9v-2.2h-1.6v-9.9h1.6V41h-5.9v2.2h1.8V47h-6.6v-3.8h1.8V41h-5.9v2.2H37v9.9h-1.6V55.4z M23.7,55.4h6v-2.2
		h-1.8v-10h2.7v2.3h2.3V41H20.5v4.4h2.3v-2.3h2.7v10h-1.8V55.4z"/>
</g>
</svg>
